<svg id="OBJECTS" xmlns="http://www.w3.org/2000/svg" viewBox="0 0 500 300"><defs><style>.cls-1{fill:#b6ffa5;}.cls-2{fill:#32d200;}.cls-3{fill:none;stroke:#fff;stroke-miterlimit:10;stroke-width:7.04px;}</style></defs><title>1</title><rect class="cls-1" x="-38.27" y="-11.88" width="1815.18" height="324.96"/><path class="cls-2" d="M269.18,155.93a1.63,1.63,0,0,1,1.9-.43,1.66,1.66,0,0,1,1.06,1.7v30.7A10.12,10.12,0,0,1,262,198.07H187.44a10.12,10.12,0,0,1-10.16-10.17V113.37a10.12,10.12,0,0,1,10.16-10.17h58a1.49,1.49,0,0,1,1.48,1.06,1.63,1.63,0,0,1-.42,1.91l-6.77,6.77a1.47,1.47,0,0,1-1.06.43H187.44V187.9H262V163.76a1.46,1.46,0,0,1,.42-1.06ZM240,175.62l-19.06,2.12a8.85,8.85,0,0,1-9.74-9.74l2.12-19.06L269,93.25a12.52,12.52,0,0,1,17.57,0l9.11,9.1a12.53,12.53,0,0,1,0,17.58Zm22.44-61.41L223,153.6l-1.49,13.76,13.77-1.48,39.38-39.39Zm16.94-13.76a2.28,2.28,0,0,0-3.17,0L269.6,107l12.28,12.28,6.57-6.56a2.16,2.16,0,0,0,.63-1.59,2.19,2.19,0,0,0-.63-1.59Z"/><rect class="cls-3" x="-172.4" y="-193.24" width="2757.47" height="719.42"/><polygon class="cls-2" points="499.79 299.09 376.78 299.09 499.79 0.91 499.79 299.09"/></svg>