<svg id="OBJECTS" xmlns="http://www.w3.org/2000/svg" viewBox="0 0 500 300"><defs><style>.cls-1{fill:#b6ffa5;}.cls-2{fill:#32d200;}.cls-3{fill:#fff;}.cls-4{fill:none;stroke:#fff;stroke-miterlimit:10;stroke-width:7.04px;}</style></defs><title>1</title><rect class="cls-1" x="-664.3" y="-11.88" width="1815.18" height="324.96"/><rect class="cls-2" x="-12.89" y="-8.34" width="529.36" height="315.7"/><path class="cls-3" d="M309.9,186.53a99.11,99.11,0,0,0,6.56,10.67,29.42,29.42,0,0,0,3.84,4.39,5.69,5.69,0,0,1,1.64,3.28,5.91,5.91,0,0,1-.55,3.56,7.3,7.3,0,0,1-2.33,2.73,5.66,5.66,0,0,1-3.42,1.1q-17.79,0-34.22-10.67A72.37,72.37,0,0,1,265,203.5a67,67,0,0,1-31.62-7.39q-14.1-7.4-20.67-19.44-4.1-.54-7.94-1.37Q188.63,186,170.56,186a5.65,5.65,0,0,1-3.42-1.09,7.58,7.58,0,0,1-2.33-2.74,5.22,5.22,0,0,1-.41-3.56,6.13,6.13,0,0,1,1.64-3.15,47,47,0,0,0,3.7-4.52,100.89,100.89,0,0,0,6.57-10.67q-12.06-11.77-12.05-26.83a35.55,35.55,0,0,1,7.66-21.9,52.36,52.36,0,0,1,20.67-16A72.17,72.17,0,0,1,253,97q14.22,7.39,20.8,19.44a66.62,66.62,0,0,1,24.5,7.8,49.47,49.47,0,0,1,17.38,15.47,35,35,0,0,1,6.3,20Q321.94,174.76,309.9,186.53ZM202.31,161.34l5.48,1.1a57.07,57.07,0,0,0,35.17-2.6,42.92,42.92,0,0,0,16-11.22,22.19,22.19,0,0,0,0-30.39A42.8,42.8,0,0,0,243,107a57.83,57.83,0,0,0-43.52,0,42.8,42.8,0,0,0-16,11.22,22.8,22.8,0,0,0-6,15.19q0,9.59,8.21,17.52l6.85,6.57-4.38,8.76-2.19,3.83a46.41,46.41,0,0,0,11.77-5.75Zm98.28,15.88q8.21-7.93,8.21-17.66T300,141.77q-8.76-8.07-22.17-11.09l.27,2.74a34.89,34.89,0,0,1-6.43,20.26,50.52,50.52,0,0,1-17.66,15.46,64.45,64.45,0,0,1-24.91,7.53,42.25,42.25,0,0,0,15.47,10,57.07,57.07,0,0,0,33.8,2.06l5.48-1.1,4.65,3a46.87,46.87,0,0,0,11.77,5.74l-2.19-4.1-4.1-8.49Z"/><rect class="cls-4" x="-798.43" y="-193.24" width="2757.47" height="719.42"/></svg>