<svg id="OBJECTS" xmlns="http://www.w3.org/2000/svg" viewBox="0 0 500 300"><defs><style>.cls-1{fill:#b6ffa5;}.cls-2{fill:#32d200;}.cls-3{fill:none;stroke:#fff;stroke-miterlimit:10;stroke-width:7.04px;}</style></defs><title>1</title><rect class="cls-1" x="-1290.34" y="-11.88" width="1815.18" height="324.96"/><path class="cls-2" d="M315.18,97.73a11.47,11.47,0,0,1,11.53,11.53v84.57a11.49,11.49,0,0,1-11.53,11.54H246a11.49,11.49,0,0,1-11.53-11.54V109.26A11.47,11.47,0,0,1,246,97.73H265.2a15.38,15.38,0,0,1,30.76,0Zm-1.44,96.1a1.37,1.37,0,0,0,1-.47,1.42,1.42,0,0,0,.48-1V110.7a1.7,1.7,0,0,0-1.44-1.44H303.65v8.65a2.87,2.87,0,0,1-2.89,2.88H260.4a2.87,2.87,0,0,1-2.89-2.88v-8.65H247.42A1.7,1.7,0,0,0,246,110.7v81.69a1.42,1.42,0,0,0,.48,1,1.37,1.37,0,0,0,1,.47ZM280.58,92a5.74,5.74,0,1,0,4.09,1.68A5.59,5.59,0,0,0,280.58,92Z"/><rect class="cls-3" x="-1424.47" y="-193.24" width="2757.47" height="719.42"/><polygon class="cls-2" points="0.79 1.81 123.8 1.81 0.79 300 0.79 1.81"/></svg>