<svg xmlns="http://www.w3.org/2000/svg" viewBox="0 0 500 300"><defs><style>.cls-1,.cls-10{fill:#e72483;}.cls-1,.cls-2,.cls-3,.cls-4,.cls-5,.cls-6,.cls-7,.cls-8,.cls-9{fill-rule:evenodd;}.cls-2{fill:#c6227f;}.cls-3{fill:#f94548;}.cls-4{fill:#00aae2;}.cls-5{fill:#0078bc;}.cls-6{fill:#b032bc;}.cls-7,.cls-9{fill:none;stroke-miterlimit:10;}.cls-7{stroke:#b400d3;stroke-width:2.77px;}.cls-8{fill:#fff;}.cls-9{stroke:#fff;stroke-width:3.6px;}</style></defs><title>1</title><g id="OBJECTS"><polygon class="cls-1" points="372.07 134.84 372.07 147.24 372.07 217.04 311.62 251.94 251.18 286.83 190.73 251.94 179.99 245.74 372.07 134.84"/><polygon class="cls-2" points="322.02 245.93 311.62 251.94 251.18 286.83 190.73 251.94 130.29 217.04 130.29 147.24 130.29 135.24 322.02 245.93"/><polygon class="cls-3" points="251.18 7.66 311.62 42.55 322.28 48.71 130.29 159.55 130.29 147.24 130.29 77.45 190.73 42.55 251.18 7.66"/><polygon class="cls-4" points="251.18 7.66 311.62 42.55 372.07 77.45 372.07 134.84 350.72 147.17 180.13 48.67 190.73 42.55 251.18 7.66"/><polygon class="cls-5" points="300.96 36.4 311.62 42.55 372.07 77.45 372.07 134.84 300.96 175.89 300.96 36.4"/><polygon class="cls-6" points="201.35 258.14 190.68 251.99 130.24 217.09 130.24 159.7 201.35 118.65 201.35 258.14"/><polygon class="cls-7" points="123.08 71.05 116.12 217.94 239.84 297.42 370.53 230.01 377.5 83.12 253.77 3.64 123.08 71.05"/><polygon class="cls-8" points="182.65 106.45 179.03 182.62 243.19 223.83 310.97 188.88 314.58 112.7 250.42 71.49 182.65 106.45"/><path class="cls-9" d="M124.93,118.15l20.28,94.36a27.77,27.77,0,0,0,18.63,20.59l91.86,29.61a27.76,27.76,0,0,0,27.15-5.83l71.58-64.75A27.77,27.77,0,0,0,363,165.7L342.66,71.34A27.77,27.77,0,0,0,324,50.74L232.18,21.13A27.79,27.79,0,0,0,205,27L133.45,91.72A27.75,27.75,0,0,0,124.93,118.15Z"/><path class="cls-10" d="M278.54,151.77a1.12,1.12,0,0,1,1.94.84v20.13a6.64,6.64,0,0,1-6.67,6.67H224.94a6.66,6.66,0,0,1-6.67-6.67V123.86a6.64,6.64,0,0,1,6.67-6.66h38a1,1,0,0,1,1,.69,1.09,1.09,0,0,1-.28,1.25l-4.45,4.44a.9.9,0,0,1-.69.28h-33.6v48.88h48.87V156.91a.94.94,0,0,1,.28-.69Zm-19.17,12.92-12.49,1.39a5.81,5.81,0,0,1-6.39-6.39l1.39-12.5,36.52-36.52a8.21,8.21,0,0,1,11.52,0l6,6a8.22,8.22,0,0,1,0,11.53Zm14.72-40.27-25.83,25.83-1,9,9-1,25.83-25.83Zm11.11-9a1.52,1.52,0,0,0-2.08,0l-4.31,4.31,8.06,8,4.3-4.3a1.51,1.51,0,0,0,0-2.09Z"/></g></svg>