<svg xmlns="http://www.w3.org/2000/svg" viewBox="0 0 500 300"><defs><style>.cls-1{fill:#01a7b3;}.cls-1,.cls-2,.cls-3,.cls-4,.cls-5,.cls-6,.cls-7,.cls-8,.cls-9{fill-rule:evenodd;}.cls-2{fill:#fbb03b;}.cls-10,.cls-3{fill:#7ac943;}.cls-4{fill:#d9e021;}.cls-5{fill:#b394c5;}.cls-6{fill:#2aabed;}.cls-7,.cls-9{fill:none;stroke-miterlimit:10;}.cls-7{stroke:#b400d3;stroke-width:2.77px;}.cls-8{fill:#fff;}.cls-9{stroke:#fff;stroke-width:3.6px;}</style></defs><title>1</title><g id="OBJECTS"><polygon class="cls-1" points="372.07 134.84 372.07 147.24 372.07 217.04 311.62 251.94 251.18 286.83 190.73 251.94 179.99 245.74 372.07 134.84"/><polygon class="cls-2" points="322.02 245.93 311.62 251.94 251.18 286.83 190.73 251.94 130.29 217.04 130.29 147.24 130.29 135.24 322.02 245.93"/><polygon class="cls-3" points="251.18 7.66 311.62 42.55 322.28 48.71 130.29 159.55 130.29 147.24 130.29 77.45 190.73 42.55 251.18 7.66"/><polygon class="cls-4" points="251.18 7.66 311.62 42.55 372.07 77.45 372.07 134.84 350.72 147.17 180.13 48.67 190.73 42.55 251.18 7.66"/><polygon class="cls-5" points="300.96 36.4 311.62 42.55 372.07 77.45 372.07 134.84 300.96 175.89 300.96 36.4"/><polygon class="cls-6" points="201.35 258.14 190.68 251.99 130.24 217.09 130.24 159.7 201.35 118.65 201.35 258.14"/><polygon class="cls-7" points="123.08 71.05 116.12 217.94 239.84 297.42 370.53 230.01 377.5 83.12 253.77 3.64 123.08 71.05"/><polygon class="cls-8" points="182.65 106.45 179.03 182.62 243.19 223.83 310.97 188.88 314.58 112.7 250.42 71.49 182.65 106.45"/><path class="cls-9" d="M124.93,118.15l20.28,94.36a27.77,27.77,0,0,0,18.63,20.59l91.86,29.61a27.76,27.76,0,0,0,27.15-5.83l71.58-64.75A27.77,27.77,0,0,0,363,165.7L342.66,71.34A27.77,27.77,0,0,0,324,50.74L232.18,21.13A27.79,27.79,0,0,0,205,27L133.45,91.72A27.75,27.75,0,0,0,124.93,118.15Z"/><path class="cls-10" d="M282.16,161.91a48.66,48.66,0,0,0,3.33,5.41,15.9,15.9,0,0,0,1.94,2.23,2.85,2.85,0,0,1,.84,1.66A3,3,0,0,1,288,173a3.85,3.85,0,0,1-1.18,1.39,2.88,2.88,0,0,1-1.74.55,31.38,31.38,0,0,1-17.35-5.41,37.08,37.08,0,0,1-8.34,1,34,34,0,0,1-16-3.75,24.41,24.41,0,0,1-10.49-9.86c-1.39-.18-2.73-.42-4-.69a31,31,0,0,1-17.36,5.41,2.88,2.88,0,0,1-1.74-.55,3.94,3.94,0,0,1-1.18-1.39,2.79,2.79,0,0,1-.21-1.81,3.06,3.06,0,0,1,.84-1.59,24.28,24.28,0,0,0,1.87-2.3,50.36,50.36,0,0,0,3.34-5.41q-6.12-6-6.11-13.61a18.06,18.06,0,0,1,3.88-11.11,26.67,26.67,0,0,1,10.49-8.12,36.58,36.58,0,0,1,30.62.76,24.35,24.35,0,0,1,10.55,9.86,34,34,0,0,1,12.43,4,25.15,25.15,0,0,1,8.81,7.85,17.72,17.72,0,0,1,3.2,10.13Q288.27,155.93,282.16,161.91Zm-54.57-12.78,2.77.56a29,29,0,0,0,17.85-1.32,21.66,21.66,0,0,0,8.12-5.69,11.27,11.27,0,0,0,0-15.42,21.77,21.77,0,0,0-8.12-5.69,29.42,29.42,0,0,0-22.08,0,21.69,21.69,0,0,0-8.12,5.69A11.57,11.57,0,0,0,215,135q0,4.86,4.17,8.89l3.47,3.33-2.22,4.44-1.11,2a23.88,23.88,0,0,0,6-2.92Zm49.85,8.06a12.26,12.26,0,0,0,4.16-9q0-4.92-4.44-9a24,24,0,0,0-11.25-5.63l.14,1.39a17.77,17.77,0,0,1-3.26,10.28,25.66,25.66,0,0,1-9,7.84,32.78,32.78,0,0,1-12.64,3.82A21.58,21.58,0,0,0,249,162a28.1,28.1,0,0,0,10.34,1.87,27.73,27.73,0,0,0,6.81-.83l2.77-.56,2.37,1.53a23.56,23.56,0,0,0,6,2.92l-1.11-2.08-2.09-4.31Z"/></g></svg>