<svg xmlns="http://www.w3.org/2000/svg" viewBox="0 0 500 300"><defs><style>.cls-1,.cls-10{fill:#ff730a;}.cls-1,.cls-2,.cls-3,.cls-4,.cls-5,.cls-6,.cls-7,.cls-8,.cls-9{fill-rule:evenodd;}.cls-2{fill:#7c8eff;}.cls-3{fill:#00a99d;}.cls-4{fill:#d4145a;}.cls-5{fill:#00dfbc;}.cls-6{fill:#ffbc84;}.cls-7,.cls-9{fill:none;stroke-miterlimit:10;}.cls-7{stroke:#b400d3;stroke-width:2.77px;}.cls-8{fill:#fff;}.cls-9{stroke:#fff;stroke-width:3.6px;}</style></defs><title>1</title><g id="OBJECTS"><polygon class="cls-1" points="372.07 134.84 372.07 147.24 372.07 217.04 311.62 251.94 251.18 286.83 190.73 251.94 179.99 245.74 372.07 134.84"/><polygon class="cls-2" points="322.02 245.93 311.62 251.94 251.18 286.83 190.73 251.94 130.29 217.04 130.29 147.24 130.29 135.24 322.02 245.93"/><polygon class="cls-3" points="251.18 7.66 311.62 42.55 322.28 48.71 130.29 159.55 130.29 147.24 130.29 77.45 190.73 42.55 251.18 7.66"/><polygon class="cls-4" points="251.18 7.66 311.62 42.55 372.07 77.45 372.07 134.84 350.72 147.17 180.13 48.67 190.73 42.55 251.18 7.66"/><polygon class="cls-5" points="300.96 36.4 311.62 42.55 372.07 77.45 372.07 134.84 300.96 175.89 300.96 36.4"/><polygon class="cls-6" points="201.35 258.14 190.68 251.99 130.24 217.09 130.24 159.7 201.35 118.65 201.35 258.14"/><polygon class="cls-7" points="123.08 71.05 116.12 217.94 239.84 297.42 370.53 230.01 377.5 83.12 253.77 3.64 123.08 71.05"/><polygon class="cls-8" points="182.65 106.45 179.03 182.62 243.19 223.83 310.97 188.88 314.58 112.7 250.42 71.49 182.65 106.45"/><path class="cls-9" d="M124.93,118.15l20.28,94.36a27.77,27.77,0,0,0,18.63,20.59l91.86,29.61a27.76,27.76,0,0,0,27.15-5.83l71.58-64.75A27.77,27.77,0,0,0,363,165.7L342.66,71.34A27.77,27.77,0,0,0,324,50.74L232.18,21.13A27.79,27.79,0,0,0,205,27L133.45,91.72A27.75,27.75,0,0,0,124.93,118.15Z"/><path class="cls-10" d="M270.57,117.2a6.62,6.62,0,0,1,6.67,6.66v48.88a6.64,6.64,0,0,1-6.67,6.67h-40a6.64,6.64,0,0,1-6.67-6.67V123.86a6.62,6.62,0,0,1,6.67-6.66h11.1a8.89,8.89,0,0,1,17.78,0Zm-.83,55.54a1,1,0,0,0,.83-.83V124.7a.82.82,0,0,0-.27-.56.79.79,0,0,0-.56-.28h-5.83v5a1.67,1.67,0,0,1-1.67,1.67H238.92a1.67,1.67,0,0,1-1.67-1.67v-5h-5.83a.79.79,0,0,0-.56.28.82.82,0,0,0-.27.56v47.21a1,1,0,0,0,.83.83Zm-19.16-58.88a3.33,3.33,0,1,0,2.36,1A3.21,3.21,0,0,0,250.58,113.86Z"/></g></svg>