<svg id="OBJECTS" xmlns="http://www.w3.org/2000/svg" viewBox="0 0 500 300"><defs><style>.cls-1{fill:#ecfff0;}.cls-2{fill:none;stroke:#fff;stroke-width:7.04px;}.cls-2,.cls-3{stroke-miterlimit:10;}.cls-3{fill:#32bb00;stroke:#2eff3e;}.cls-11,.cls-4{fill:#fcb245;}.cls-12,.cls-13,.cls-14,.cls-15,.cls-16,.cls-17,.cls-18,.cls-19,.cls-20,.cls-21,.cls-22,.cls-4,.cls-5,.cls-7,.cls-8,.cls-9{fill-rule:evenodd;}.cls-23,.cls-5{fill:#fff;}.cls-6{fill:#00a99d;}.cls-7{fill:#ee6249;}.cls-8{fill:#adecf7;}.cls-9{fill:#f26d6e;}.cls-10,.cls-12{fill:#e7584d;}.cls-13{fill:#f2806b;}.cls-14{fill:#f9bf92;}.cls-15{fill:#f9d4b4;}.cls-16{fill:#fbfffc;}.cls-17{fill:#3c4650;}.cls-18{fill:#3f3e43;}.cls-19{fill:gray;}.cls-20{fill:#999;}.cls-21{fill:#505962;}.cls-22{fill:#333;}</style></defs><title>1</title><rect class="cls-1" x="-10.36" y="-41.48" width="1782" height="394.92"/><rect class="cls-2" x="-172.4" y="-150.59" width="2757.47" height="719.42"/><g id="Training"><g id="Background"><circle id="Background_2" data-name="Background 2" class="cls-3" cx="247.23" cy="147.81" r="110.11" transform="translate(-32.11 218.11) rotate(-45)"/></g><g id="Training-2" data-name="Training"><path class="cls-4" d="M346,96.14a25.1,25.1,0,0,1,0,50.19l-35.39,10.21,17.77-17.44a25.1,25.1,0,0,1,17.62-43Z"/><path class="cls-5" d="M342.09,131.14h6.84v-3.39a10.64,10.64,0,1,0-13.65-10.21v.25h6.81v-.18a3.79,3.79,0,0,1,7.58.18,3.77,3.77,0,0,1-3.76,3.88h-3.82Zm0,4.9a3.43,3.43,0,1,0,3.46-3.39,3.32,3.32,0,0,0-3.46,3.39Z"/><rect class="cls-6" x="187.95" y="49.11" width="128.47" height="87.2"/><path class="cls-7" d="M187,133.19H317.39a2.94,2.94,0,0,1,2.92,2.92h0a2.93,2.93,0,0,1-2.92,2.92H187a2.92,2.92,0,0,1-2.92-2.92h0a2.93,2.93,0,0,1,2.92-2.92Z"/><path class="cls-7" d="M187,49.11H317.39A2.93,2.93,0,0,1,320.31,52h0a2.93,2.93,0,0,1-2.92,2.91H187A2.92,2.92,0,0,1,184.06,52h0A2.92,2.92,0,0,1,187,49.11Z"/><path class="cls-8" d="M290.84,126.6a13.74,13.74,0,1,0-13.74-13.74,13.77,13.77,0,0,0,13.74,13.74Z"/><polygon class="cls-9" points="283.22 109.94 290.35 122.12 307.21 94.48 290.77 113.33 283.22 109.94"/><rect class="cls-10" x="228.44" y="110.41" width="10.48" height="16.95"/><rect class="cls-11" x="238.93" y="99.17" width="10.46" height="28.19"/><rect class="cls-10" x="249.39" y="87.93" width="10.48" height="39.43"/><rect class="cls-11" x="259.88" y="69.59" width="10.46" height="57.77"/><rect class="cls-11" x="217.98" y="118.89" width="10.47" height="8.47"/><rect class="cls-10" x="207.49" y="123.93" width="10.48" height="3.42"/><path class="cls-8" d="M237.76,87.28a9.51,9.51,0,1,0-9.52-9.5,9.52,9.52,0,0,0,9.52,9.5Z"/><path class="cls-12" d="M232.48,79.73a.24.24,0,0,0,.23.25.23.23,0,0,0,.24-.25c0-2.39,2.1-2.88,2.1-4.56a.22.22,0,0,0-.23-.21h-2.74a.22.22,0,0,0-.23.21.24.24,0,0,0,.23.24h2.49c0,1.13-2.09,1.89-2.09,4.32Zm5-.16c-.92,0-1.33-.61-1.33-2.14s.41-2.13,1.33-2.13,1.33.61,1.33,2.13-.43,2.14-1.33,2.14Zm0-4.72c-1.24,0-1.82.81-1.82,2.58s.58,2.59,1.82,2.59,1.82-.81,1.82-2.59-.6-2.58-1.82-2.58Zm6.16,0a.16.16,0,0,0-.16.1L241,79.71v.07a.19.19,0,0,0,.18.2.22.22,0,0,0,.17-.1l2.39-4.72a.12.12,0,0,0,0-.08.18.18,0,0,0-.18-.19Zm-2.56,2c-.56,0-.7-.4-.7-.86s.14-.87.7-.87.72.4.72.87-.16.86-.72.86Zm0-2.07c-.79,0-1.08.52-1.08,1.21s.29,1.18,1.08,1.18,1.08-.52,1.08-1.18-.29-1.21-1.08-1.21Zm2.72,4.83c-.56,0-.7-.4-.7-.87s.14-.86.7-.86.72.39.72.86-.14.87-.72.87Zm0-2.07c-.79,0-1.06.54-1.06,1.2S243,80,243.77,80s1.1-.54,1.1-1.21-.29-1.2-1.1-1.2Z"/><path class="cls-8" d="M237.76,64.06A13.72,13.72,0,1,1,224,77.78a13.71,13.71,0,0,1,13.73-13.72Zm0-1.87a15.6,15.6,0,1,1-15.6,15.59,15.58,15.58,0,0,1,15.6-15.59Z"/><path class="cls-5" d="M209.71,112.68c5.93-2.52,14-4.27,18.88-17.13l-3.43-.65,8.52-6.54,2.56,10.21-3.08-1.49c-5.73,11.22-16.08,13.81-23.45,15.6Z"/><path class="cls-13" d="M215.8,139h72.77a2.94,2.94,0,0,1,2.92,2.92v0a2.94,2.94,0,0,1-2.92,2.92H215.8a2.94,2.94,0,0,1-2.92-2.92v0A2.94,2.94,0,0,1,215.8,139Z"/><polygon class="cls-14" points="161.36 103.24 168.24 103.24 175.11 103.24 175.11 114.06 168.24 114.06 161.36 114.06 161.36 103.24"/><path class="cls-15" d="M168.24,108.37c-7.31-.07-13.2-8-13.2-17.65s5.89-17.58,13.2-17.67c7.3.09,13.19,8,13.19,17.67s-5.89,17.58-13.19,17.65Z"/><polygon class="cls-16" points="157.99 110.32 166.93 142.49 166.93 151.87 168.24 147.19 169.54 151.87 169.54 142.49 178.47 110.32 175.11 110.03 168.24 113.02 161.36 110.03 157.99 110.32"/><polygon class="cls-17" points="157.99 110.32 146.1 114.77 142.09 138.09 148.41 160.75 168.24 160.75 188.06 160.75 194.38 138.09 190.36 114.77 178.47 110.32 168.24 146.24 157.99 110.32"/><path class="cls-18" d="M168.24,70.83c-3.83.72-6.07-.07-8.57,1.44-3.51,2.11-6.76,7.77-5.42,15.64.36,2.22.74,4.43,1.11,6.66.71-3.85.42-7.78,3.53-11.4,1.12,1.12-.57,2.52.56,3.66,1-2.74,5.64-4.36,8.79-4.79,3.28-.16,9,.5,11.12,2.37,2.39,2.15,1,6,1.76,10.16.36-2.23.74-4.44,1.12-6.66,1.31-7.87-1.93-13.53-5.44-15.64-2.5-1.51-4.74-.72-8.56-1.44Z"/><polygon class="cls-7" points="168.24 113.02 165.14 116.12 166.77 119.99 165.54 137.3 168.24 146.24 170.93 137.3 169.7 119.99 171.32 116.12 168.24 113.02"/><path class="cls-19" d="M130.76,143.66h75a3,3,0,0,1,3,3v11.8a3,3,0,0,1-3,3h-75a3,3,0,0,1-3-3v-11.8a3,3,0,0,1,3-3Z"/><polygon class="cls-20" points="134.14 161.47 160.88 161.47 175.59 161.47 202.32 161.47 195.08 224.99 178.24 224.99 158.23 224.99 141.38 224.99 134.14 161.47"/><path class="cls-21" d="M183.25,239.24h56.34v-24a24,24,0,0,0-24-24h-8.36a24.06,24.06,0,0,0-24,24Z"/><path class="cls-22" d="M211.42,154.65a22.26,22.26,0,1,1-22.24,22.24,22.25,22.25,0,0,1,22.24-22.24Z"/><path class="cls-21" d="M245.79,239.24h56.33v-24a24,24,0,0,0-24-24h-8.36a24,24,0,0,0-24,24Z"/><path class="cls-22" d="M274,154.65a22.26,22.26,0,1,1-22.26,22.24A22.25,22.25,0,0,1,274,154.65Z"/><path class="cls-21" d="M309.74,239.24h56.32v-24a24,24,0,0,0-24-24h-8.38a24,24,0,0,0-24,24Z"/><path class="cls-22" d="M337.89,154.65a22.26,22.26,0,1,1-22.25,22.24,22.26,22.26,0,0,1,22.25-22.24Z"/><path class="cls-23" d="M355,213.64a1.6,1.6,0,0,1,0,3.19l-3.19,0a1.59,1.59,0,0,1,0-3.17Zm-12.71,0a1.6,1.6,0,0,1,0,3.19h-3.17a1.6,1.6,0,1,1,0-3.19Zm-12.7,0a1.59,1.59,0,0,1,0,3.18H326.4a1.59,1.59,0,1,1,0-3.18Zm-12.72,0a1.59,1.59,0,1,1,0,3.17h-3.19a1.6,1.6,0,0,1,0-3.19Zm-12.72,0a1.59,1.59,0,1,1,0,3.17H301a1.6,1.6,0,0,1,0-3.19Zm-12.7,0a1.59,1.59,0,1,1,0,3.17h-3.19a1.6,1.6,0,0,1-1.58-1.58,1.58,1.58,0,0,1,1.6-1.59Zm-12.71,0a1.59,1.59,0,0,1,0,3.17h-3.17a1.59,1.59,0,1,1,0-3.17Zm-12.7,0a1.59,1.59,0,0,1,0,3.17h-3.19a1.59,1.59,0,1,1,0-3.17Zm-12.72,0a1.58,1.58,0,0,1,1.58,1.58,1.56,1.56,0,0,1-1.58,1.58h-3.17a1.58,1.58,0,1,1,0-3.16Zm-12.7,0a1.59,1.59,0,0,1,0,3.18h-3.17a1.59,1.59,0,0,1,0-3.17Zm-12.72,0a1.6,1.6,0,0,1,0,3.19l-3.17,0a1.59,1.59,0,1,1,0-3.17Zm-12.7,0a1.6,1.6,0,1,1,0,3.19H212a1.6,1.6,0,0,1,0-3.19Zm-12.71,0a1.6,1.6,0,0,1,0,3.19H199.3a1.6,1.6,0,1,1,0-3.19Zm-12.72,0a1.59,1.59,0,1,1,0,3.17H186.6a1.6,1.6,0,0,1,0-3.19Zm-12.7,0a1.59,1.59,0,0,1,0,3.18h-3.19a1.6,1.6,0,0,1,0-3.19Zm-6.5-3a1.6,1.6,0,0,1-3.19,0v-3.17a1.6,1.6,0,0,1,3.19,0Zm0-12.7a1.6,1.6,0,0,1-3.19,0v-3.19a1.6,1.6,0,0,1,3.19,0Zm0-12.72a1.6,1.6,0,0,1-3.19,0v-3.17a1.6,1.6,0,1,1,3.19,0Zm0-12.7a1.6,1.6,0,0,1-3.19,0v-3.18a1.6,1.6,0,0,1,3.19,0Zm0-12.71a1.6,1.6,0,0,1-3.19,0v-3.17a1.6,1.6,0,1,1,3.19,0Z"/></g></g></svg>