<svg id="OBJECTS" xmlns="http://www.w3.org/2000/svg" viewBox="0 0 500 300"><defs><style>.cls-1{fill:#ecfff0;}.cls-2{fill:none;stroke:#fff;stroke-width:7.04px;}.cls-2,.cls-3{stroke-miterlimit:10;}.cls-3{fill:#32bb00;stroke:#2eff3e;}.cls-4{fill:#ffbf2d;}.cls-10,.cls-11,.cls-12,.cls-13,.cls-14,.cls-15,.cls-16,.cls-17,.cls-18,.cls-19,.cls-20,.cls-22,.cls-23,.cls-24,.cls-25,.cls-4,.cls-5,.cls-6,.cls-7,.cls-9{fill-rule:evenodd;}.cls-5{fill:#ec9492;}.cls-6{fill:#02465d;}.cls-7{fill:#40954e;}.cls-15,.cls-8{fill:#ffc344;}.cls-9{fill:#f9bf92;}.cls-10{fill:#f9d4b4;}.cls-11{fill:#fbfffc;}.cls-12{fill:#3c4650;}.cls-13{fill:#3f3e43;}.cls-14{fill:#ee6249;}.cls-16,.cls-26{fill:#fff;}.cls-17{fill:#ccc;}.cls-18{fill:#3f3f41;}.cls-19{fill:#cf9e37;}.cls-20,.cls-21{fill:#4fb761;}.cls-22{fill:#e6e6e6;}.cls-23{fill:#2a7bb1;}.cls-24{fill:#22648f;}.cls-25{fill:#826ea1;}</style></defs><title>1</title><rect class="cls-1" x="-636.4" y="-41.48" width="1782" height="394.92"/><rect class="cls-2" x="-798.43" y="-150.59" width="2757.47" height="719.42"/><g id="Teamwork"><g id="Background"><circle id="Background_2" data-name="Background 2" class="cls-3" cx="250.18" cy="147.36" r="110.11" transform="translate(-30.92 220.07) rotate(-45)"/></g><g id="Teamwork-2" data-name="Teamwork"><path class="cls-4" d="M363.65,98.35A31.26,31.26,0,0,0,368,86.53l12.63-2.19-3.41-19.59L364.58,67A31.19,31.19,0,0,0,361,61.71a30.45,30.45,0,0,0-4.53-4.42l4.42-12.06L342.26,38.4l-4.41,12a31.9,31.9,0,0,0-12.4,2.15l-8.24-9.83L302,55.49l8.22,9.85a31.5,31.5,0,0,0-4.32,11.82l-12.64,2.21,3.4,19.57,12.63-2.19a31.32,31.32,0,0,0,3.57,5.24,31.89,31.89,0,0,0,4.5,4.43l-4.39,12,18.64,6.85L336,113.25a31.26,31.26,0,0,0,12.41-2.15l8.22,9.85,15.27-12.75Z"/><path class="cls-5" d="M343.3,89.48a9.94,9.94,0,1,0-14-1.26,9.94,9.94,0,0,0,14,1.26Zm6.16,7.38a19.56,19.56,0,1,0-27.55-2.48,19.56,19.56,0,0,0,27.55,2.48Z"/><path class="cls-6" d="M286.38,57.2a21.81,21.81,0,0,0-5.05-7.13L285,42,272.5,36.19l-3.73,8.11a20.83,20.83,0,0,0-4.4,0,21.68,21.68,0,0,0-4.3.84l-5.16-7.27-11.28,8,5.16,7.28A22.25,22.25,0,0,0,245.13,61l-8.87.83,1.28,13.75,8.87-.82a21.72,21.72,0,0,0,5.07,7.13L247.75,90l12.56,5.77L264,87.7a20.21,20.21,0,0,0,4.4,0,21.6,21.6,0,0,0,4.32-.84l5.16,7.27,11.26-8L284,78.9A21.76,21.76,0,0,0,287.67,71l8.87-.83-1.28-13.75Z"/><path class="cls-5" d="M273.28,65.36A6.9,6.9,0,1,0,267,72.88a6.91,6.91,0,0,0,6.24-7.52Zm6.66-.61a13.59,13.59,0,1,0-12.29,14.79,13.63,13.63,0,0,0,12.29-14.79Z"/><path class="cls-7" d="M297,126.27a13.14,13.14,0,0,0,1.85-5l5.39-.94L302.78,112l-5.38,1a14.19,14.19,0,0,0-1.53-2.25,12.55,12.55,0,0,0-1.92-1.87l1.89-5.14-8-2.92L286,105.86a13.29,13.29,0,0,0-5.29.91l-3.51-4.19L270.7,108l3.5,4.19a13.23,13.23,0,0,0-1.83,5l-5.4.94,1.45,8.35,5.39-.94a13.13,13.13,0,0,0,1.51,2.24,12.67,12.67,0,0,0,1.93,1.88l-1.88,5.14,8,2.91,1.88-5.14a13.37,13.37,0,0,0,5.28-.91L294,135.9l6.5-5.42Z"/><path class="cls-5" d="M288.32,122.49a4.23,4.23,0,1,0-6-.54,4.24,4.24,0,0,0,6,.54Zm2.62,3.15a8.34,8.34,0,1,0-11.74-1.06,8.33,8.33,0,0,0,11.74,1.06Z"/><polygon class="cls-8" points="173.46 215.35 173.46 236.48 205.37 236.48 205.37 239.1 172.16 239.1 170.84 239.1 170.84 237.8 170.84 215.35 173.46 215.35"/><polygon class="cls-9" points="166.09 137.01 174.42 137.01 182.73 137.01 182.73 150.15 174.42 150.15 166.09 150.15 166.09 137.01"/><path class="cls-10" d="M174.42,143.27c-8.85-.11-16-9.67-16-21.43s7.16-21.32,16-21.43c8.85.11,16,9.67,16,21.43s-7.14,21.32-16,21.43Z"/><polygon class="cls-11" points="162.01 145.61 172.84 184.64 172.84 196.02 174.42 190.34 176 196.02 176 184.64 186.83 145.61 182.73 145.25 174.42 148.89 166.09 145.25 162.01 145.61"/><polygon class="cls-12" points="162.01 145.61 147.57 151.02 142.69 179.3 150.38 206.8 174.42 206.8 198.47 206.8 206.13 179.3 201.27 151.02 186.83 145.61 174.42 189.19 162.01 145.61"/><path class="cls-13" d="M174.42,97.72c-4.66.89-7.37-.09-10.41,1.74-4.23,2.58-8.18,9.43-6.57,19q.67,4,1.36,8.07c.85-4.65.52-9.42,4.28-13.82,1.36,1.36-.68,3.06.67,4.44,1.19-3.33,6.85-5.29,10.67-5.81,4-.2,11,.61,13.49,2.87,2.91,2.6,1.21,7.31,2.13,12.32.45-2.69.89-5.38,1.36-8.07,1.59-9.55-2.34-16.4-6.59-19-3-1.83-5.75-.85-10.39-1.74Z"/><polygon class="cls-14" points="174.42 148.89 170.67 152.66 172.64 157.33 171.14 178.34 174.42 189.19 177.69 178.34 176.18 157.33 178.15 152.66 174.42 148.89"/><path class="cls-15" d="M147.85,189.78H201a4.92,4.92,0,0,1,4.9,4.9v15.75a4.93,4.93,0,0,1-4.9,4.92H147.85a4.92,4.92,0,0,1-4.91-4.92V194.68a4.92,4.92,0,0,1,4.91-4.9Z"/><polygon class="cls-16" points="155.57 177.37 172.81 177.37 176.5 181.32 176.5 207.32 155.57 207.32 155.57 177.37"/><path class="cls-16" d="M149.76,204.61l.22-2.82c1.8-1.62,3-1.47,3.36,1.05l-1.54,2.4c-2.87,4.49-2.41,4.51-2-.63Z"/><path class="cls-17" d="M151.06,206.48c-1.83,3-1.74,2.93-1.45-.44a1,1,0,0,1,.9-.26,1,1,0,0,1,.55.7Z"/><path class="cls-17" d="M155.24,185.37,155,186l-5,14.77c-.24.7-.09,1.39.31,1.52h0c.28.09.6-.09.86-.43a.82.82,0,0,0,.43.84h0c.26.07.57-.11.83-.45,0,.41.11.73.35.8h0c.36.11.84-.37,1.08-1.09l5.19-15.39.06-.16.52-1.6c.2-.59.13-1.17-.17-1.26l-.74-.24v0l-1.3-.41h0l-.65-.21c-.33-.11-.74.23-1,.75Z"/><path class="cls-17" d="M160,180.56l-1.95-.61a1,1,0,0,0-1.28.67L156,183.1a1,1,0,0,0,.65,1.28l1.95.6a1,1,0,0,0,1.28-.67l.85-2.49a1,1,0,0,0-.65-1.26Z"/><path class="cls-16" d="M159.61,183.62l-3.06-.92a.44.44,0,0,0-.55.27l-.28.84a.43.43,0,0,0,.28.54l3,.93a.46.46,0,0,0,.56-.28l.28-.84a.41.41,0,0,0-.27-.54Z"/><polygon class="cls-17" points="176.5 181.32 172.81 177.37 172.81 181.32 176.5 181.32"/><path class="cls-17" d="M179.63,185.81,198,190.36l-4.56,18.37-18.35-4.57Zm2.23,1.67a1.33,1.33,0,1,1-.63,2.58,1.33,1.33,0,1,1,.63-2.58Z"/><path class="cls-16" d="M178.08,192.12l18.35,4.55,1.57-6.31-18.37-4.55Zm3.78-4.64a1.33,1.33,0,1,1-.63,2.58,1.33,1.33,0,1,1,.63-2.58Z"/><polygon class="cls-18" points="186.17 196.96 193.24 198.73 193.05 199.47 185.98 197.72 186.17 196.96"/><polygon class="cls-18" points="180.25 197.47 190.75 200.06 190.56 200.82 180.06 198.21 180.25 197.47"/><polygon class="cls-18" points="182.9 200.08 190.97 202.09 190.79 202.83 182.72 200.82 182.9 200.08"/><path class="cls-19" d="M141.47,209h65.88a1.23,1.23,0,0,1,1.23,1.22v3.9a1.24,1.24,0,0,1-1.23,1.22H141.47a1.24,1.24,0,0,1-1.23-1.22v-3.9a1.23,1.23,0,0,1,1.23-1.22Z"/><path class="cls-20" d="M300.09,189.78h53.14a4.93,4.93,0,0,1,4.91,4.9v15.75a4.93,4.93,0,0,1-4.91,4.92H300.09a4.93,4.93,0,0,1-4.92-4.92V194.68a4.93,4.93,0,0,1,4.92-4.9Z"/><polygon class="cls-21" points="330.22 215.35 330.22 237.8 330.22 239.1 328.92 239.1 295.69 239.1 295.69 236.48 327.6 236.48 327.6 215.35 330.22 215.35"/><polygon class="cls-9" points="318.33 137.01 326.66 137.01 334.99 137.01 334.99 150.15 326.66 150.15 318.33 150.15 318.33 137.01"/><path class="cls-10" d="M326.66,143.27c-8.85-.11-16-9.67-16-21.43s7.17-21.32,16-21.43c8.85.11,16,9.67,16,21.43s-7.16,21.32-16,21.43Z"/><polygon class="cls-11" points="314.24 145.61 325.08 184.64 325.08 196.02 326.66 190.34 328.23 196.02 328.23 184.64 339.07 145.61 334.99 145.25 326.66 148.89 318.33 145.25 314.24 145.61"/><polygon class="cls-12" points="314.24 145.61 299.81 151.02 294.95 179.3 302.61 206.8 326.66 206.8 350.7 206.8 358.37 179.3 353.5 151.02 339.07 145.61 326.66 189.19 314.24 145.61"/><path class="cls-13" d="M326.66,97.72c-4.64.89-7.35-.09-10.41,1.74-4.23,2.58-8.18,9.43-6.57,19,.45,2.69.91,5.38,1.35,8.07.86-4.65.52-9.42,4.29-13.82,1.35,1.36-.69,3.06.67,4.44,1.19-3.33,6.84-5.29,10.67-5.81,4-.2,11,.61,13.49,2.87,2.91,2.6,1.2,7.31,2.13,12.32.45-2.69.91-5.38,1.35-8.07,1.6-9.55-2.33-16.4-6.58-19-3.05-1.83-5.76-.85-10.39-1.74Z"/><polygon class="cls-14" points="326.66 148.89 322.91 152.66 324.88 157.33 323.37 178.34 326.66 189.19 329.92 178.34 328.44 157.33 330.39 152.66 326.66 148.89"/><path class="cls-22" d="M314.36,177.28h8.73v20.85a4.8,4.8,0,0,1-4.8,4.81H306.51V185.12a7.87,7.87,0,0,1,7.85-7.84Z"/><path class="cls-12" d="M313.39,197.87h3v-1.2a4.16,4.16,0,0,0,2.9-3.86,3.89,3.89,0,0,0-1-2.6,4.62,4.62,0,0,0-3.53-1.6,1.05,1.05,0,0,1-1.09-1,1.1,1.1,0,0,1,2.2,0h3.4a4.17,4.17,0,0,0-2.9-3.84v-1.43h-3v1.38a4.13,4.13,0,0,0-3.06,3.91,4.28,4.28,0,0,0,4.47,4.12,1.07,1.07,0,0,1,1.11,1,1.1,1.1,0,0,1-2.2,0h-3.4a4.13,4.13,0,0,0,3.08,4Z"/><path class="cls-16" d="M341.3,186.15l1.81-.41a1.34,1.34,0,0,1,1.58,1l.72,3.23a1.31,1.31,0,0,1-1,1.58l-1.82.4a1.29,1.29,0,0,1-1.57-1l-.73-3.21a1.32,1.32,0,0,1,1-1.59Z"/><path class="cls-17" d="M323.47,191.81l-2.19.5a1.11,1.11,0,0,0-.91,1.46l4.69,11.88a.66.66,0,0,0-.28.54l.08.87a.5.5,0,0,0,.63.39l1.61-.36,2.21-.5,1.67-.37a.65.65,0,0,0,.54-.67l-.06-.87a.5.5,0,0,0-.63-.41l-.89.21-4.66-11.8a1.57,1.57,0,0,0-1.81-.87Z"/><polygon class="cls-16" points="341.69 179.99 319.96 190.47 321.5 197.35 345.6 197.37 341.69 179.99"/><path class="cls-17" d="M320,190.47l-1.43.33a1.43,1.43,0,0,0-1.09,1.73l.9,4a1.47,1.47,0,0,0,1.75,1.1l1.41-.32Z"/><path class="cls-16" d="M328.77,199.08l-2.24.5a.59.59,0,0,0-.43.69l.35,1.57a.57.57,0,0,0,.69.43l2.24-.5a.58.58,0,0,0,.45-.69l-.37-1.56a.56.56,0,0,0-.69-.44Z"/><path class="cls-17" d="M340.72,179.13h0a.76.76,0,0,0-.56.89l4,18a.76.76,0,0,0,.89.56h0a.75.75,0,0,0,.57-.89l-4.06-18a.74.74,0,0,0-.89-.56Z"/><polygon class="cls-16" points="347.79 191.43 353.43 193.44 353.23 194.01 347.59 192.03 347.79 191.43"/><polygon class="cls-16" points="348.25 188.91 354.23 188.61 354.25 189.25 348.27 189.54 348.25 188.91"/><polygon class="cls-16" points="347.66 186.33 353.04 183.7 353.32 184.27 347.94 186.89 347.66 186.33"/><polygon class="cls-16" points="346.05 184.12 349.9 179.54 350.39 179.95 346.53 184.51 346.05 184.12"/><path class="cls-7" d="M293.71,209h65.9a1.21,1.21,0,0,1,1.2,1.22v3.9a1.21,1.21,0,0,1-1.2,1.22h-65.9a1.22,1.22,0,0,1-1.21-1.22v-3.9a1.22,1.22,0,0,1,1.21-1.22Z"/><polygon class="cls-9" points="239.69 131.6 250.53 131.6 261.38 131.6 261.38 148.71 250.53 148.71 239.69 148.71 239.69 131.6"/><path class="cls-10" d="M250.53,139.73c-11.52-.13-20.85-12.57-20.85-27.91S239,84,250.53,83.91c11.54.13,20.85,12.58,20.85,27.91s-9.31,27.78-20.85,27.91Z"/><polygon class="cls-11" points="234.37 142.79 248.47 193.62 248.47 208.47 250.53 201.04 252.59 208.47 252.59 193.62 266.71 142.79 261.38 142.34 250.53 147.05 239.69 142.34 234.37 142.79"/><polygon class="cls-12" points="234.37 142.79 215.57 149.84 209.23 186.69 219.21 222.49 250.53 222.49 281.87 222.49 291.85 186.69 285.5 149.84 266.71 142.79 250.53 199.56 234.37 142.79"/><path class="cls-13" d="M250.53,80.41c-6.05,1.15-9.57-.13-13.54,2.28-5.53,3.34-10.65,12.24-8.58,24.7q.9,5.25,1.78,10.53c1.12-6.08.67-12.3,5.57-18,1.78,1.76-.89,4,.89,5.77,1.54-4.32,8.93-6.89,13.88-7.55,5.19-.28,14.3.79,17.59,3.73,3.78,3.39,1.56,9.53,2.76,16.06.6-3.52,1.17-7,1.77-10.53,2.09-12.46-3-21.36-8.58-24.7-3.95-2.41-7.49-1.13-13.54-2.28Z"/><polygon class="cls-14" points="250.53 147.05 245.67 151.97 248.23 158.07 246.26 185.42 250.53 199.56 254.8 185.42 252.85 158.07 255.41 151.97 250.53 147.05"/><path class="cls-23" d="M211.59,217.5h77.88a7.21,7.21,0,0,1,7.2,7.2v23.08a7.21,7.21,0,0,1-7.2,7.2H211.59a7.22,7.22,0,0,1-7.2-7.2V224.7a7.23,7.23,0,0,1,7.2-7.2Z"/><path class="cls-22" d="M248,212.9a14.07,14.07,0,0,1,4,5l5.42-1.54,1.24,4.34-5.42,1.56a13.88,13.88,0,0,1-.74,6.38l4.94,2.73-2.19,3.95-4.94-2.72a13.92,13.92,0,0,1-5,4l1.56,5.42-4.34,1.26L241,237.86a13.74,13.74,0,0,1-6.38-.73l-2.73,4.94-3.95-2.19,2.73-4.94a13.61,13.61,0,0,1-4-5l-5.44,1.55L220,227.11l5.42-1.54a14,14,0,0,1,.74-6.38l-4.94-2.75,2.19-3.95,4.94,2.75a14,14,0,0,1,5-4l-1.56-5.42,4.34-1.24,1.56,5.42a14.24,14.24,0,0,1,6.38.72l2.73-4.93,4,2.2Zm-4.26,3a9.12,9.12,0,1,1-12.4,3.56,9.13,9.13,0,0,1,12.4-3.56Z"/><path class="cls-16" d="M274.11,222.75a9.84,9.84,0,0,1,3.62,2.55l3.27-2.08,1.66,2.63-3.28,2.08a9.49,9.49,0,0,1,.76,4.34l3.79.85-.69,3-3.77-.84a9.7,9.7,0,0,1-2.54,3.6L279,242.2l-2.61,1.65-2.08-3.27a9.49,9.49,0,0,1-4.34.75l-.86,3.78-3-.67.85-3.78a9.78,9.78,0,0,1-3.6-2.54L260,240.19l-1.65-2.63,3.26-2.08a9.6,9.6,0,0,1-.76-4.34l-3.78-.85.68-3,3.79.86a9.39,9.39,0,0,1,2.54-3.62L262,221.23l2.62-1.67,2.08,3.27a9.46,9.46,0,0,1,4.36-.74l.83-3.79,3,.67Zm-2.22,2.84a6.27,6.27,0,1,1-7.5,4.75,6.27,6.27,0,0,1,7.5-4.75Z"/><path class="cls-17" d="M265.35,203.35a6,6,0,0,1,2.32,1.63l2.12-1.34,1.08,1.69-2.12,1.34a6,6,0,0,1,.48,2.82l2.45.54-.44,2-2.43-.55a6.32,6.32,0,0,1-1.66,2.33l1.36,2.12L266.8,217l-1.33-2.12a6.21,6.21,0,0,1-2.81.48l-.55,2.45-1.95-.44.54-2.45a5.85,5.85,0,0,1-2.32-1.64l-2.12,1.34-1.07-1.69,2.11-1.33a6.44,6.44,0,0,1-.5-2.83l-2.43-.53.43-2,2.45.56a6.26,6.26,0,0,1,1.63-2.34l-1.34-2.12,1.71-1.07,1.33,2.11a6.21,6.21,0,0,1,2.81-.48l.55-2.45,1.95.45Zm-1.44,1.82a4,4,0,1,1-4.83,3.06,4,4,0,0,1,4.83-3.06Z"/><path class="cls-24" d="M203,248.67h95a1.53,1.53,0,0,1,1.52,1.52V255a1.53,1.53,0,0,1-1.52,1.52H203a1.53,1.53,0,0,1-1.5-1.52v-4.83a1.53,1.53,0,0,1,1.5-1.52Z"/><path class="cls-14" d="M214.59,62.08a15.07,15.07,0,1,1,0,30.13c-.3,0-.59,0-.89,0L199.34,98l6.73-8.39a15.07,15.07,0,0,1,8.52-27.51Z"/><polygon class="cls-16" points="206.22 73.93 214.05 87.29 232.57 56.97 214.52 77.64 206.22 73.93"/><path class="cls-25" d="M163.05,36.29c-17.52,0-31.73,11.11-31.73,24.82S145.53,86,163.05,86A38.41,38.41,0,0,0,178,83l16.52,5.4L187.43,77a21.81,21.81,0,0,0,7.34-15.9c0-13.71-14.19-24.82-31.72-24.82Z"/><path class="cls-16" d="M154.62,72.32h1.6l-.09-.61h-2.58a2.41,2.41,0,0,1-2.4-2.4h0a2.39,2.39,0,0,1,2.4-2.37h1.85l-.09-.63h-3.15a2.4,2.4,0,0,1-2.38-2.38h0a2.39,2.39,0,0,1,2.38-2.39h2.45l-.12-.63h-3.34a2.38,2.38,0,0,1-2.37-2.38h0a2.38,2.38,0,0,1,2.37-2.37h11C161,50.29,161,45.93,164,45.42c2-.34,1.6.29,1.86,1.83,1.2,7,4.49,8.61,7.88,10V73.49a28.87,28.87,0,0,1-10,2.17h-9.15A1.67,1.67,0,0,1,153,74h0a1.69,1.69,0,0,1,1.67-1.67ZM178.93,55.9h-3.17a.86.86,0,0,0-.86.85V74.23a.85.85,0,0,0,.86.83h3.17a.85.85,0,0,0,.85-.83V56.75a.86.86,0,0,0-.85-.85Z"/><path class="cls-26" d="M177.67,91.91a1.68,1.68,0,0,1-2.3.37A1.64,1.64,0,0,1,175,90l.24-.33.31-.45.34-.44.33-.47.34-.44.33-.45.09-.11a1.64,1.64,0,0,1,2.28-.3,1.63,1.63,0,0,1,.3,2.3l-.07.1-.32.42-.33.45-.32.42-.31.43-.32.45ZM185.81,82a1.63,1.63,0,1,1-2.35-2.26l.29-.31.39-.41.39-.39.39-.41.39-.39.41-.39.07-.07a1.63,1.63,0,1,1,2.29,2.33l-.08.08-.37.37-.39.39-.37.37-.37.39-.37.39Zm9.48-8.66A1.62,1.62,0,0,1,193,73a1.66,1.66,0,0,1,.28-2.3l.37-.3.45-.33.44-.35.45-.34.44-.33.45-.33.05,0a1.67,1.67,0,0,1,2.29.37,1.62,1.62,0,0,1-.38,2.28v0l-.45.31L197,72l-.42.33-.43.32-.43.33Zm10.65-7.22a1.64,1.64,0,0,1-1.65-2.84l0,0,.48-.27.48-.28.51-.26.48-.28.5-.26.43-.24a1.64,1.64,0,0,1,1.54,2.89l-.43.23-.46.26-.49.26-.46.26-.48.27-.47.26Zm11.55-5.62a1.64,1.64,0,1,1-1.21-3l.22-.1.54-.2.52-.2.54-.21.54-.18.53-.21.23-.07a1.59,1.59,0,0,1,2.07,1,1.62,1.62,0,0,1-1,2.1l-.22.07-.5.19-.52.18-.52.21-.5.2-.52.19Zm12.24-3.9a1.63,1.63,0,1,1-.76-3.17l.09,0,.56-.15.57-.13.56-.11.58-.13.55-.11.34-.07a1.64,1.64,0,1,1,.65,3.21l-.32.05-.56.13-.53.12-.56.11-.54.13-.54.13Zm12.67-2.07A1.65,1.65,0,0,1,240.62,53a1.63,1.63,0,0,1,1.49-1.78l.24,0,.59,0,.58-.06.59,0,.61,0,.6,0h.11a1.61,1.61,0,0,1,1.72,1.54,1.64,1.64,0,0,1-1.56,1.72h-.09l-.57,0-.58,0-.57,0-.58,0-.57,0Zm12.84-.28a1.65,1.65,0,0,1,.17-3.29l0,0,.57,0,.6,0,.59,0,.58,0,.59.06.37,0a1.63,1.63,0,0,1-.28,3.24l-.37,0-.56,0-.55,0-.58,0-.55,0-.58,0ZM268,55.77a1.6,1.6,0,0,1-1.28-1.91,1.62,1.62,0,0,1,1.91-1.3l.07,0,.56.11.58.11.55.13.56.11.56.13.39.09a1.64,1.64,0,1,1-.77,3.19l-.35-.09-.54-.11-.53-.13-.54-.11-.56-.11-.54-.11Zm12.39,3.37a1.64,1.64,0,0,1-1-2.09,1.67,1.67,0,0,1,2.1-1l.41.15.52.19.53.18.52.21.54.2.52.21.08,0a1.62,1.62,0,0,1,.92,2.12,1.65,1.65,0,0,1-2.13.91l-.06,0-.5-.19-.52-.2-.5-.19-.52-.18-.52-.19Zm11.79,5.13a1.64,1.64,0,1,1,1.52-2.9l0,0,.5.26.49.28.5.26.48.28.5.26.41.24A1.63,1.63,0,1,1,295,65.81l-.4-.23-.47-.26-.48-.26-.46-.26-.49-.26-.48-.24ZM303.09,71A1.63,1.63,0,1,1,305,68.39l.11.07.45.31.45.34.44.33.45.34.44.35.34.26a1.62,1.62,0,0,1,.27,2.28,1.64,1.64,0,0,1-2.3.3l-.31-.26-.43-.32-.43-.33-.42-.32-.45-.31-.42-.34Zm9.84,8.23a1.63,1.63,0,1,1,2.28-2.33l.11.09.41.39.39.39.39.41.39.39.39.39.28.29a1.64,1.64,0,0,1-2.36,2.27l-.26-.28-.37-.37-.39-.39-.37-.37-.39-.39-.39-.37Zm8.57,9.58a1.66,1.66,0,0,1,.3-2.3,1.62,1.62,0,0,1,2.3.3l.13.14.33.45.33.45.34.44.33.46.34.45.2.28c1,1.45-.91,4.3-3.17,1.2l-.32-.42-.33-.45-.32-.43-.33-.42Z"/></g></g></svg>