<svg id="OBJECTS" xmlns="http://www.w3.org/2000/svg" viewBox="0 0 500 300"><defs><style>.cls-1{fill:#ecfff0;}.cls-2{fill:none;stroke:#fff;stroke-width:7.04px;}.cls-2,.cls-3{stroke-miterlimit:10;}.cls-3{fill:#32bb00;stroke:#2eff3e;}.cls-4{fill:#1f596d;}.cls-11,.cls-5{fill:#ffb000;}.cls-14,.cls-17,.cls-18,.cls-20,.cls-23,.cls-24,.cls-25,.cls-26,.cls-29,.cls-30,.cls-31,.cls-32,.cls-33,.cls-35,.cls-36,.cls-37,.cls-38,.cls-39,.cls-40,.cls-43,.cls-5,.cls-7,.cls-8{fill-rule:evenodd;}.cls-6{fill:#de0033;}.cls-7{fill:#582a37;}.cls-8{fill:#532b34;}.cls-25,.cls-9{fill:#b3b3b3;}.cls-10,.cls-26{fill:#e6e6e6;}.cls-12{fill:#21a8ae;}.cls-13,.cls-17{fill:#21576f;}.cls-14,.cls-15{fill:#26afb7;}.cls-16,.cls-18{fill:#562c3a;}.cls-19{fill:#532935;}.cls-20,.cls-21{fill:#866b74;}.cls-22{fill:#c3000e;}.cls-23,.cls-28{fill:#51000a;}.cls-24{fill:#c91a26;}.cls-27{fill:#3c4650;}.cls-29{fill:#f99e3f;}.cls-30{fill:#e4883a;}.cls-31{fill:#b96f2d;}.cls-32,.cls-34{fill:#ccc;}.cls-33{fill:#fff;}.cls-35{fill:#363f48;}.cls-36{fill:#e8483a;}.cls-37{fill:#ee7a70;}.cls-38{fill:#f7caa3;}.cls-39{fill:#f9d4b4;}.cls-40,.cls-41{fill:#02465d;}.cls-42,.cls-43{fill:#3dd4e9;}</style></defs><title>1</title><rect class="cls-1" x="-1262.44" y="-41.48" width="1782" height="394.92"/><rect class="cls-2" x="-1424.47" y="-150.59" width="2757.47" height="719.42"/><g id="Background"><circle id="Background_2" data-name="Background 2" class="cls-3" cx="248.04" cy="148.9" r="110.11" transform="translate(-32.64 219) rotate(-45)"/></g><rect class="cls-4" x="158.53" y="226.95" width="105.07" height="16.44"/><path class="cls-5" d="M183.15,227h3.57v16.44h-3.57ZM221,227h3.57v16.44H221Zm7.5,0h3.59v16.44h-3.59Zm7.52,0h3.56v16.44H236Z"/><rect class="cls-6" x="165.04" y="243.3" width="88.99" height="12.16"/><path class="cls-7" d="M174,243.3h3.62v12.33H174Zm63.24,0h3.59v12.16h-3.59Z"/><polygon class="cls-8" points="166.09 206.67 245.42 206.67 245.42 210.33 170.02 210.33 170.02 223.39 245.42 223.39 245.42 227.04 166.09 227.04 166.09 206.67"/><rect class="cls-9" x="170.02" y="210.33" width="72.71" height="1.86"/><rect class="cls-10" x="170.02" y="212.19" width="72.71" height="1.87"/><rect class="cls-10" x="170.02" y="215.93" width="72.71" height="1.86"/><rect class="cls-9" x="170.02" y="214.06" width="72.71" height="1.87"/><rect class="cls-9" x="170.02" y="217.79" width="72.71" height="1.87"/><rect class="cls-10" x="170.02" y="219.66" width="72.71" height="1.87"/><rect class="cls-9" x="170.02" y="221.52" width="72.71" height="1.87"/><rect class="cls-11" x="179.71" y="200.47" width="69.99" height="6.2"/><rect class="cls-12" x="186.81" y="202.96" width="50.04" height="1.55"/><rect class="cls-12" x="241.74" y="200.47" width="3.99" height="6.2"/><rect class="cls-13" x="154.91" y="188.37" width="88.99" height="12.14"/><path class="cls-14" d="M163.8,188.37h3.62v12.32H163.8Zm63.26,0h3.57v12.14h-3.57Z"/><rect class="cls-15" x="184.03" y="191.58" width="39.14" height="5.71"/><rect class="cls-16" x="160.75" y="162.87" width="94.68" height="25.62"/><rect class="cls-11" x="196.9" y="162.87" width="1.61" height="25.62"/><rect class="cls-11" x="169.74" y="162.87" width="2.14" height="25.62"/><rect class="cls-11" x="172.41" y="162.87" width="0.99" height="25.62"/><rect class="cls-11" x="234.59" y="162.87" width="2.16" height="25.62"/><rect class="cls-11" x="237.28" y="162.87" width="0.99" height="25.62"/><polygon class="cls-17" points="252.02 142.55 172.69 142.55 172.69 146.23 248.09 146.23 248.09 159.27 172.69 159.27 172.69 162.93 252.02 162.93 252.02 142.55"/><rect class="cls-9" x="175.38" y="146.23" width="72.71" height="1.86"/><rect class="cls-10" x="175.38" y="148.1" width="72.71" height="1.85"/><rect class="cls-10" x="175.38" y="151.81" width="72.71" height="1.86"/><rect class="cls-9" x="175.38" y="149.94" width="72.71" height="1.87"/><rect class="cls-9" x="175.38" y="153.67" width="72.71" height="1.86"/><rect class="cls-10" x="175.38" y="155.54" width="72.71" height="1.87"/><rect class="cls-9" x="175.38" y="157.4" width="72.71" height="1.87"/><rect class="cls-11" x="156.16" y="126.19" width="105.06" height="16.42"/><path class="cls-18" d="M180.77,126.19h3.59v16.42h-3.59Zm37.89,0h3.57v16.42h-3.57Zm7.5,0h3.57v16.42h-3.57Zm7.5,0h3.59v16.42h-3.59Z"/><rect class="cls-13" x="165.12" y="119.99" width="70.01" height="6.2"/><rect class="cls-12" x="172.21" y="122.47" width="50.04" height="1.55"/><rect class="cls-12" x="227.17" y="119.99" width="3.97" height="6.2"/><rect class="cls-19" x="168.46" y="107.95" width="88.99" height="12.14"/><path class="cls-20" d="M177.35,108H181v12.33h-3.62Zm63.26,0h3.57V120.1h-3.57Z"/><rect class="cls-21" x="197.6" y="111.17" width="39.12" height="5.72"/><rect class="cls-22" x="158" y="91.68" width="105.06" height="16.42"/><path class="cls-23" d="M238.47,91.68h-3.58V108.1h3.58Zm-37.89,0H197V108.1h3.57Zm-7.5,0H189.5V108.1h3.58Zm-7.5,0H182V108.1h3.58Z"/><polygon class="cls-24" points="277.37 196.06 252.15 152.39 255.31 150.56 279.27 192.08 290.56 185.57 266.58 144.07 269.74 142.24 294.96 185.92 277.37 196.06"/><polygon class="cls-25" points="256.17 152.04 279.27 192.08 280.53 191.37 257.42 151.33 256.17 152.04"/><polygon class="cls-26" points="258.68 150.6 281.78 190.63 280.53 191.37 257.42 151.33 258.68 150.6"/><polygon class="cls-26" points="261.18 149.16 284.28 189.19 283.04 189.9 259.92 149.87 261.18 149.16"/><polygon class="cls-25" points="258.68 150.6 281.78 190.63 283.04 189.9 259.92 149.87 258.68 150.6"/><polygon class="cls-25" points="261.18 149.16 284.28 189.19 285.55 188.46 262.43 148.43 261.18 149.16"/><polygon class="cls-26" points="263.67 147.71 286.79 187.74 285.55 188.46 262.43 148.43 263.67 147.71"/><rect class="cls-9" x="275.13" y="144.25" width="1.46" height="46.23" transform="matrix(0.87, -0.5, 0.5, 0.87, -46.72, 160.38)"/><polygon class="cls-25" points="266.18 146.27 289.29 186.3 290.56 185.57 267.44 145.53 266.18 146.27"/><polygon class="cls-26" points="266.18 146.27 289.29 186.3 288.05 187.01 264.93 146.98 266.18 146.27"/><rect class="cls-13" x="315.46" y="207.72" width="10" height="49.93"/><polygon class="cls-5" points="333.61 224.06 325.7 227.48 341.72 257.64 349.64 254.2 333.61 224.06"/><rect class="cls-16" x="273.33" y="196.39" width="28.59" height="61.25"/><rect class="cls-21" x="273.33" y="219.78" width="28.59" height="14.45"/><rect class="cls-21" x="273.33" y="210.79" width="28.59" height="4.5"/><rect class="cls-21" x="273.33" y="239.48" width="28.59" height="4.5"/><rect class="cls-27" x="252.26" y="201.72" width="21.07" height="55.92"/><rect class="cls-12" x="258.15" y="208.92" width="9.29" height="41.51"/><rect class="cls-22" x="301.91" y="203.62" width="13.15" height="54.02"/><rect class="cls-28" x="301.91" y="211.85" width="13.15" height="37.58"/><path class="cls-29" d="M173.4,36.61h74.07a2.29,2.29,0,0,1,2.28,2.29V89.37a2.29,2.29,0,0,1-2.28,2.29H173.4a2.29,2.29,0,0,1-2.28-2.29V38.9a2.29,2.29,0,0,1,2.28-2.29Z"/><path class="cls-30" d="M172.89,36H248a3.55,3.55,0,0,1,3.53,3.55v16.9A3.54,3.54,0,0,1,248,60H172.89a3.55,3.55,0,0,1-3.55-3.54V39.52A3.55,3.55,0,0,1,172.89,36Z"/><path class="cls-29" d="M171.41,42.37h78.05a2.06,2.06,0,0,1,2,2.07v9.84a2,2,0,0,1-2,2H171.41a2.06,2.06,0,0,1-2.07-2V44.44a2.07,2.07,0,0,1,2.07-2.07Z"/><path class="cls-31" d="M235.4,34.84h-2.56a1.77,1.77,0,0,0-1.76,1.77V86.94a1.77,1.77,0,0,0,1.76,1.77h2.56a1.78,1.78,0,0,0,1.77-1.77V36.61a1.78,1.78,0,0,0-1.77-1.77Zm-49.93,0H188a1.78,1.78,0,0,1,1.78,1.77V86.94A1.78,1.78,0,0,1,188,88.71h-2.54a1.77,1.77,0,0,1-1.77-1.77V36.61a1.77,1.77,0,0,1,1.77-1.77Z"/><path class="cls-26" d="M183.42,64.78H186v1a.31.31,0,0,0,.29.3h0a.31.31,0,0,0,.32-.3v-1h2.57a1.06,1.06,0,0,1,1,1.06v5.74a1.07,1.07,0,0,1-1,1.06h-5.76a1.07,1.07,0,0,1-1.06-1.06V65.84a1.06,1.06,0,0,1,1.06-1.06Zm51.14-1.72h0a.29.29,0,0,0-.3.29v.58h-3.18a1.29,1.29,0,0,0-1.28,1.28v7a1.28,1.28,0,0,0,1.28,1.28h7a1.28,1.28,0,0,0,1.28-1.28v-7a1.29,1.29,0,0,0-1.28-1.28h-3.2v-.58a.28.28,0,0,0-.29-.29Zm3.2-17.4h-7.28a1.76,1.76,0,0,0-1.76,1.76v.4a1.78,1.78,0,0,0,1.76,1.78h7.28a1.79,1.79,0,0,0,1.77-1.78v-.4a1.77,1.77,0,0,0-1.77-1.76Zm-3.5,19.12v1a.29.29,0,0,0,.3.3h0a.29.29,0,0,0,.29-.3v-1h2.6a1.06,1.06,0,0,1,1,1.06v5.74a1.06,1.06,0,0,1-1,1.06h-5.76a1.06,1.06,0,0,1-1.06-1.06V65.84a1.05,1.05,0,0,1,1.06-1.06ZM183.11,45.66h7.26a1.77,1.77,0,0,1,1.78,1.76v.4a1.78,1.78,0,0,1-1.78,1.78h-7.26a1.78,1.78,0,0,1-1.77-1.78v-.4a1.76,1.76,0,0,1,1.77-1.76Zm3.18,17.4h0a.3.3,0,0,1,.32.29v.58h3.18a1.29,1.29,0,0,1,1.28,1.28v7a1.28,1.28,0,0,1-1.28,1.28h-7a1.28,1.28,0,0,1-1.28-1.28v-7a1.29,1.29,0,0,1,1.28-1.28H186v-.58a.3.3,0,0,1,.29-.29Z"/><path class="cls-31" d="M228.28,32.84H228V27.1h0c-7.84-5.56-27.23-5.56-35.09,0h0v5.74h-.29a.86.86,0,0,0-.86.85V37.1a.86.86,0,0,0,.86.85h2.21a.85.85,0,0,0,.84-.85V33.69a.85.85,0,0,0-.84-.85h-.48V29.55c7.85-4.33,24.38-4.33,32.21,0v3.29h-.46a.86.86,0,0,0-.86.85V37.1a.86.86,0,0,0,.86.85h2.21a.86.86,0,0,0,.86-.85V33.69a.86.86,0,0,0-.86-.85Z"/><polygon class="cls-26" points="216.96 54.84 216.96 54.84 257.26 167.71 172.22 198.06 131.94 85.21 216.96 54.84"/><polygon class="cls-32" points="158.37 128.85 224.69 105.17 225.86 108.51 159.56 132.18 158.37 128.85"/><polygon class="cls-32" points="163.85 144.21 230.18 120.54 231.34 123.87 165.04 147.55 163.85 144.21"/><polygon class="cls-32" points="169.34 159.57 235.66 135.9 236.82 139.21 170.52 162.88 169.34 159.57"/><polygon class="cls-32" points="174.82 174.94 241.12 151.26 242.31 154.57 176 178.25 174.82 174.94"/><polygon class="cls-32" points="152.89 113.51 219.21 89.84 220.37 93.15 154.07 116.82 152.89 113.51"/><polygon class="cls-32" points="147.4 98.15 213.73 74.48 214.89 77.79 148.59 101.46 147.4 98.15"/><polygon class="cls-33" points="327.91 89.41 327.91 89.41 310.78 217.53 214.26 204.62 231.39 76.52 327.91 89.41"/><rect class="cls-34" x="270.65" y="100.37" width="3.8" height="75.97" transform="translate(99.25 390.13) rotate(-82.37)"/><rect class="cls-34" x="268.33" y="117.8" width="3.8" height="75.97" transform="matrix(0.13, -0.99, 0.99, 0.13, 79.96, 402.94)"/><polygon class="cls-32" points="230.51 166.29 305.77 176.38 305.3 180.14 230 170.06 230.51 166.29"/><rect class="cls-34" x="263.66" y="152.68" width="3.8" height="75.94" transform="translate(41.34 428.55) rotate(-82.37)"/><rect class="cls-34" x="272.99" y="82.95" width="3.8" height="75.94" transform="translate(118.56 377.32) rotate(-82.37)"/><rect class="cls-34" x="275.31" y="65.51" width="3.8" height="75.94" transform="translate(137.84 364.5) rotate(-82.37)"/><path class="cls-35" d="M249.73,161.8l43.41,4.47a11.89,11.89,0,0,0,13-10.59l1.9-18.44a30.51,30.51,0,0,0-27.11-33.38l-6.52-.66a30.49,30.49,0,0,0-33.35,27.14l-1.9,18.44a11.9,11.9,0,0,0,10.56,13Z"/><path class="cls-36" d="M301.25,197.4a28.88,28.88,0,0,0-25.82-29.69l-8.64-.88a28.87,28.87,0,0,0-31.33,23.8,90,90,0,0,0,65.79,6.77Z"/><path class="cls-37" d="M283.19,169.63a28.12,28.12,0,0,0-7.76-1.92l-8.64-.88a27.74,27.74,0,0,0-8,.3l-.13,1.19a8.74,8.74,0,0,0,7.76,9.55l7.05.73a8.75,8.75,0,0,0,9.55-7.78Z"/><path class="cls-38" d="M267.55,174.73l5.53.56a6.89,6.89,0,0,0,7.53-6.12l1.06-10.25a6.89,6.89,0,0,0-6.11-7.53l-5.56-.56a6.88,6.88,0,0,0-7.53,6.12l-1,10.25a6.88,6.88,0,0,0,6.12,7.53Z"/><path class="cls-39" d="M298.4,130.11a34.64,34.64,0,0,1,.07,7.76c-1.64,15.82-13.72,27.54-27,26.15s-22.74-15.28-21.13-31.1a34.85,34.85,0,0,1,1.67-7.58c6.37-2.28,14.73-3.21,23.7-2.3s16.93,3.54,22.72,7.07Z"/><path class="cls-40" d="M311.76,157.81c12.76,1.31,22.29,10.48,21.25,20.46s-12.2,17-25,15.72a28.44,28.44,0,0,1-10.66-3.26l-12.46,2.7,6-7.78a16,16,0,0,1-4.14-12.13c1-10,12.2-17,25-15.71Z"/><polygon class="cls-33" points="298.98 165.64 305.82 188.96 354.56 151.54 309.01 175.9 298.98 165.64"/><rect class="cls-41" x="251.85" y="67.49" width="15.68" height="9.69" transform="translate(152.82 319.83) rotate(-82.21)"/><rect class="cls-42" x="256.95" y="63.66" width="26.09" height="9.69" transform="translate(165.53 326.72) rotate(-82.21)"/><rect class="cls-41" x="262.06" y="59.81" width="36.49" height="9.69" transform="translate(178.26 333.62) rotate(-82.21)"/><polygon class="cls-43" points="292.23 84.69 282.63 83.39 289.86 30.44 299.46 31.75 292.23 84.69"/><polygon class="cls-43" points="253.83 79.45 244.22 78.14 245.29 70.38 254.89 71.67 253.83 79.45"/><rect class="cls-41" x="238.06" y="71.07" width="3.16" height="9.69" transform="translate(131.94 303.05) rotate(-82.21)"/></svg>