<?xml version="1.0" encoding="utf-8"?>
<!-- Generator: Adobe Illustrator 22.1.0, SVG Export Plug-In . SVG Version: 6.00 Build 0)  -->
<svg version="1.1" id="Layer_1_1_" xmlns="http://www.w3.org/2000/svg" xmlns:xlink="http://www.w3.org/1999/xlink" x="0px" y="0px"
	 viewBox="0 0 434 215.1" style="enable-background:new 0 0 434 215.1;" xml:space="preserve">
<style type="text/css">
	.st0{fill:#E5223F;}
	.st1{fill:url(#SVGID_1_);}
	.st2{fill:url(#SVGID_2_);}
	.st3{fill:url(#SVGID_3_);}
	.st4{fill:url(#SVGID_4_);}
	.st5{fill:url(#SVGID_5_);}
	.st6{fill:url(#SVGID_6_);}
	.st7{fill:#00598B;}
</style>
<g>
	<path class="st0" d="M34.4,88.4"/>
	<linearGradient id="SVGID_1_" gradientUnits="userSpaceOnUse" x1="131.092" y1="67.0789" x2="178.8048" y2="131.7081">
		<stop  offset="0" style="stop-color:#00D47E"/>
		<stop  offset="0.1418" style="stop-color:#02D484;stop-opacity:0.9957"/>
		<stop  offset="0.3372" style="stop-color:#08D696;stop-opacity:0.9899"/>
		<stop  offset="0.5638" style="stop-color:#11D8B3;stop-opacity:0.9831"/>
		<stop  offset="0.8119" style="stop-color:#1EDBDB;stop-opacity:0.9756"/>
		<stop  offset="1" style="stop-color:#2ADEFF;stop-opacity:0.97"/>
	</linearGradient>
	<path class="st1" d="M181.1,139L181.1,139c-19.4,0-35.1-15.7-35.1-35.1V83.1l0,0c19.4,0,35.1,15.7,35.1,35.1V139z"/>
	<linearGradient id="SVGID_2_" gradientUnits="userSpaceOnUse" x1="119.3319" y1="130.6128" x2="194.254" y2="32.7554">
		<stop  offset="0" style="stop-color:#00BC7E"/>
		<stop  offset="0.2178" style="stop-color:#00BC7F;stop-opacity:0.9998"/>
		<stop  offset="0.3933" style="stop-color:#01BD82;stop-opacity:0.9931"/>
		<stop  offset="0.5287" style="stop-color:#04BF8C;stop-opacity:0.9879"/>
		<stop  offset="0.6508" style="stop-color:#0AC49C;stop-opacity:0.9833"/>
		<stop  offset="0.7649" style="stop-color:#11CAB3;stop-opacity:0.979"/>
		<stop  offset="0.8736" style="stop-color:#1BD2D1;stop-opacity:0.9748"/>
		<stop  offset="0.9767" style="stop-color:#27DCF6;stop-opacity:0.9709"/>
		<stop  offset="1" style="stop-color:#2ADEFF;stop-opacity:0.97"/>
	</linearGradient>
	<path class="st2" d="M201.9,41.7L201.9,41.7c0,19.4-15.7,35.1-35.1,35.1H146l0,0c0-19.4,15.7-35.1,35.1-35.1H201.9z"/>
	<linearGradient id="SVGID_3_" gradientUnits="userSpaceOnUse" x1="147.0113" y1="96.0747" x2="83.4964" y2="-24.8084">
		<stop  offset="5.000000e-03" style="stop-color:#00BC7E"/>
		<stop  offset="0.1431" style="stop-color:#02BE85;stop-opacity:0.9958"/>
		<stop  offset="0.3511" style="stop-color:#09C39A;stop-opacity:0.9896"/>
		<stop  offset="0.603" style="stop-color:#14CCBC;stop-opacity:0.982"/>
		<stop  offset="0.887" style="stop-color:#23D9EA;stop-opacity:0.9734"/>
		<stop  offset="1" style="stop-color:#2ADEFF;stop-opacity:0.97"/>
	</linearGradient>
	<path class="st3" d="M104.7,20.9L104.7,20.9c19.4,0,35.1,15.7,35.1,35.1v20.8l0,0c-19.4,0-35.1-15.7-35.1-35.1V20.9z"/>
	<linearGradient id="SVGID_4_" gradientUnits="userSpaceOnUse" x1="66.8177" y1="30.7421" x2="130.5336" y2="198.8042">
		<stop  offset="0" style="stop-color:#90145A"/>
		<stop  offset="0.1501" style="stop-color:#842C6E;stop-opacity:0.9955"/>
		<stop  offset="0.4681" style="stop-color:#646AA1;stop-opacity:0.986"/>
		<stop  offset="0.925" style="stop-color:#33CDF1;stop-opacity:0.9722"/>
		<stop  offset="1" style="stop-color:#2ADEFF;stop-opacity:0.97"/>
	</linearGradient>
	<path class="st4" d="M69.3,138.8c-13.5,7.1-4.7,52.8,27.8,52.6c23.5-0.1,42.5-19,42.5-42.5V83.1l0,0c-19.4,0-35.1,15.7-35.1,35.1
		v20.7c0,9.7-7.9,17.6-17.6,17.6l0,0C77.2,156.4,69.3,148.5,69.3,138.8"/>
	<linearGradient id="SVGID_5_" gradientUnits="userSpaceOnUse" x1="71.2898" y1="38.667" x2="120.3444" y2="133.0742">
		<stop  offset="0" style="stop-color:#90145A"/>
		<stop  offset="0.1501" style="stop-color:#842C6E;stop-opacity:0.9955"/>
		<stop  offset="0.4681" style="stop-color:#646AA1;stop-opacity:0.986"/>
		<stop  offset="0.925" style="stop-color:#33CDF1;stop-opacity:0.9722"/>
		<stop  offset="1" style="stop-color:#2ADEFF;stop-opacity:0.97"/>
	</linearGradient>
	<path class="st5" d="M87.1,156.4c10.4-0.2,17.4-9.1,17.4-17.4l0-21.4c0-19.4,15.9-34.6,35.3-34.6h0v20.3
		C139.8,154.8,87.1,156.4,87.1,156.4z"/>
	<linearGradient id="SVGID_6_" gradientUnits="userSpaceOnUse" x1="22.9087" y1="34.3449" x2="116.6565" y2="273.3093">
		<stop  offset="0" style="stop-color:#90145A"/>
		<stop  offset="0.1501" style="stop-color:#842C6E;stop-opacity:0.9955"/>
		<stop  offset="0.4681" style="stop-color:#646AA1;stop-opacity:0.986"/>
		<stop  offset="0.925" style="stop-color:#33CDF1;stop-opacity:0.9722"/>
		<stop  offset="1" style="stop-color:#2ADEFF;stop-opacity:0.97"/>
	</linearGradient>
	<path class="st6" d="M96.1,191c-28.5-4.2-26.6-52.1-26.6-52.1V66.5c0-19.4-15.7-35.1-35.1-35.1l0,0V149l0,0
		c0.1,23.4,19.4,42.5,42.5,42.4c2.1,0,12.8,0,19,0c0,0,2.2,0,3,0C98.9,191.3,98.2,191.3,96.1,191z"/>
</g>
<g>
	<path class="st7" d="M262.6,144.9c-3.2,1.5-7.9,2.6-12.2,2.6c-5.5,0-11.5-1.5-16.8-7.4c-4.9-5.6-8.8-15.8-8.8-30.4
		c0-31.2,15-40.5,26.7-40.5c4.2,0,7.6,0.8,10,2.1l-1.6,4.3c-1.9-1-4.6-1.9-8.9-1.9c-9.2,0-21.1,8.1-21.1,34.2
		c0,26.9,10.2,35.2,20.9,35.2c3.9,0,6-0.7,6.8-1.1v-29.2h-11.8v-4.2h16.7V144.9z"/>
	<path class="st7" d="M300.1,108.6h-20.3v33.9h23.3v4.3h-28.2V69.9h26.7v4.3h-21.8v30h20.3V108.6z"/>
	<path class="st7" d="M312.4,146.8V69.9h4.9l15.5,39.7c3.8,9.7,7.9,20.1,10.8,29.5h0.2c-0.8-14.6-0.8-22.4-0.8-35.2v-34h4.7v76.9
		h-4.9l-16.4-41.8c-3.4-8.6-6.6-16.7-9.9-28h-0.2c0.8,11.9,0.8,20.3,0.8,37.3v32.4H312.4z"/>
	<path class="st7" d="M359.1,146.8v-3l5.5-8c8.4-12.3,20.4-28.5,20.4-44.5c0-9.6-3.8-15.2-11.2-15.2c-5.8,0-9.1,3.3-10.5,4.3
		l-1.8-3.5c2.1-2.1,6.5-5.3,13.2-5.3c9.9,0,15.3,8,15.3,19.5c0,13.9-9.4,29-18.9,43.1l-5.3,7.8v0.2h25.9v4.5H359.1z"/>
</g>
</svg>
