<?xml version="1.0" encoding="utf-8"?>
<!-- Generator: Adobe Illustrator 22.1.0, SVG Export Plug-In . SVG Version: 6.00 Build 0)  -->
<svg version="1.1" id="Layer_1" xmlns="http://www.w3.org/2000/svg" xmlns:xlink="http://www.w3.org/1999/xlink" x="0px" y="0px"
	 viewBox="0 0 512.4 147.5" style="enable-background:new 0 0 512.4 147.5;" xml:space="preserve">
<style type="text/css">
	.st0{fill:#E5223F;}
	.st1{fill:url(#SVGID_1_);}
	.st2{fill:url(#SVGID_2_);}
	.st3{fill:url(#SVGID_3_);}
	.st4{fill:url(#SVGID_4_);}
	.st5{fill:url(#SVGID_5_);}
	.st6{fill:url(#SVGID_6_);}
	.st7{fill:#00598B;}
	.st8{fill:none;stroke:#00598B;stroke-miterlimit:10;}
	.st9{fill:url(#SVGID_7_);}
	.st10{fill:url(#SVGID_8_);}
	.st11{fill:url(#SVGID_9_);}
	.st12{fill:url(#SVGID_10_);}
	.st13{fill:url(#SVGID_11_);}
	.st14{fill:url(#SVGID_12_);}
</style>
<title>logo-string</title>
<g>
	<path class="st0" d="M15.3,63.8"/>
	<linearGradient id="SVGID_1_" gradientUnits="userSpaceOnUse" x1="77.4706" y1="50.0339" x2="108.142" y2="91.5796">
		<stop  offset="0" style="stop-color:#00D47E"/>
		<stop  offset="0.1418" style="stop-color:#02D484;stop-opacity:0.9957"/>
		<stop  offset="0.3372" style="stop-color:#08D696;stop-opacity:0.9899"/>
		<stop  offset="0.5638" style="stop-color:#11D8B3;stop-opacity:0.9831"/>
		<stop  offset="0.8119" style="stop-color:#1EDBDB;stop-opacity:0.9756"/>
		<stop  offset="1" style="stop-color:#2ADEFF;stop-opacity:0.97"/>
	</linearGradient>
	<path class="st1" d="M109.6,96.3L109.6,96.3C97.1,96.3,87,86.2,87,73.7V60.3l0,0c12.5,0,22.6,10.1,22.6,22.6V96.3z"/>
	<linearGradient id="SVGID_2_" gradientUnits="userSpaceOnUse" x1="69.9109" y1="90.8755" x2="118.0732" y2="27.9696">
		<stop  offset="0" style="stop-color:#00BC7E"/>
		<stop  offset="0.2178" style="stop-color:#00BC7F;stop-opacity:0.9998"/>
		<stop  offset="0.3933" style="stop-color:#01BD82;stop-opacity:0.9931"/>
		<stop  offset="0.5287" style="stop-color:#04BF8C;stop-opacity:0.9879"/>
		<stop  offset="0.6508" style="stop-color:#0AC49C;stop-opacity:0.9833"/>
		<stop  offset="0.7649" style="stop-color:#11CAB3;stop-opacity:0.979"/>
		<stop  offset="0.8736" style="stop-color:#1BD2D1;stop-opacity:0.9748"/>
		<stop  offset="0.9767" style="stop-color:#27DCF6;stop-opacity:0.9709"/>
		<stop  offset="1" style="stop-color:#2ADEFF;stop-opacity:0.97"/>
	</linearGradient>
	<path class="st2" d="M123,33.7L123,33.7c0,12.5-10.1,22.6-22.6,22.6H87l0,0c0-12.5,10.1-22.6,22.6-22.6H123z"/>
	<linearGradient id="SVGID_3_" gradientUnits="userSpaceOnUse" x1="87.7041" y1="68.6733" x2="46.8747" y2="-9.0343">
		<stop  offset="5.000000e-03" style="stop-color:#00BC7E"/>
		<stop  offset="0.1431" style="stop-color:#02BE85;stop-opacity:0.9958"/>
		<stop  offset="0.3511" style="stop-color:#09C39A;stop-opacity:0.9896"/>
		<stop  offset="0.603" style="stop-color:#14CCBC;stop-opacity:0.982"/>
		<stop  offset="0.887" style="stop-color:#23D9EA;stop-opacity:0.9734"/>
		<stop  offset="1" style="stop-color:#2ADEFF;stop-opacity:0.97"/>
	</linearGradient>
	<path class="st3" d="M60.5,20.3L60.5,20.3C72.9,20.3,83,30.4,83,42.9v13.4l0,0c-12.5,0-22.6-10.1-22.6-22.6V20.3z"/>
	<linearGradient id="SVGID_4_" gradientUnits="userSpaceOnUse" x1="36.153" y1="26.6754" x2="77.1117" y2="134.7111">
		<stop  offset="0" style="stop-color:#90145A"/>
		<stop  offset="0.1501" style="stop-color:#842C6E;stop-opacity:0.9955"/>
		<stop  offset="0.4681" style="stop-color:#646AA1;stop-opacity:0.986"/>
		<stop  offset="0.925" style="stop-color:#33CDF1;stop-opacity:0.9722"/>
		<stop  offset="1" style="stop-color:#2ADEFF;stop-opacity:0.97"/>
	</linearGradient>
	<path class="st4" d="M37.7,96.1c-8.7,4.6-3,34,17.9,33.8c15.1-0.1,27.3-12.2,27.3-27.3V60.3l0,0c-12.5,0-22.6,10.1-22.6,22.6v13.3
		c0,6.2-5.1,11.3-11.3,11.3l0,0C42.8,107.5,37.7,102.4,37.7,96.1"/>
	<linearGradient id="SVGID_5_" gradientUnits="userSpaceOnUse" x1="39.0279" y1="31.7698" x2="70.5617" y2="92.4577">
		<stop  offset="0" style="stop-color:#90145A"/>
		<stop  offset="0.1501" style="stop-color:#842C6E;stop-opacity:0.9955"/>
		<stop  offset="0.4681" style="stop-color:#646AA1;stop-opacity:0.986"/>
		<stop  offset="0.925" style="stop-color:#33CDF1;stop-opacity:0.9722"/>
		<stop  offset="1" style="stop-color:#2ADEFF;stop-opacity:0.97"/>
	</linearGradient>
	<path class="st5" d="M49.2,107.5c6.7-0.1,11.2-5.8,11.2-11.2l0-13.7c0-12.5,10.2-22.2,22.7-22.2h0v13.1
		C83,106.4,49.2,107.5,49.2,107.5z"/>
	<linearGradient id="SVGID_6_" gradientUnits="userSpaceOnUse" x1="7.927" y1="28.9914" x2="68.191" y2="182.6054">
		<stop  offset="0" style="stop-color:#90145A"/>
		<stop  offset="0.1501" style="stop-color:#842C6E;stop-opacity:0.9955"/>
		<stop  offset="0.4681" style="stop-color:#646AA1;stop-opacity:0.986"/>
		<stop  offset="0.925" style="stop-color:#33CDF1;stop-opacity:0.9722"/>
		<stop  offset="1" style="stop-color:#2ADEFF;stop-opacity:0.97"/>
	</linearGradient>
	<path class="st6" d="M55,129.7C36.6,127,37.9,96.2,37.9,96.2V49.6c0-12.5-10.1-22.6-22.6-22.6l0,0v75.6l0,0
		c0,15.1,12.5,27.3,27.3,27.2c1.4,0,8.2,0,12.2,0c0,0,1.4,0,1.9,0C56.8,129.9,56.3,129.9,55,129.7z"/>
</g>
<g>
	<path class="st7" d="M174.1,18.1V69H166V25.1h-8.9v15.2c0,12.4-0.6,22.7-6.7,27.3c-1.6,1.2-3.6,2-5.8,2l-1.7-6.8
		c1.1-0.2,2.3-0.8,3.2-1.5c2.9-2.9,3.7-9.1,3.7-20.1V18.1H174.1z"/>
	<path class="st7" d="M188.8,52.7c0.1,8.2,3.8,10.5,8.1,10.5c2.7,0,5-0.6,6.6-1.3l1.2,5.7c-2.3,1.1-5.9,1.7-9.2,1.7
		c-9.5,0-14.6-6.9-14.6-18.3c0-12.1,5.8-19.5,13.7-19.5c7.7,0,11.6,7,11.6,16.8c0,2.1-0.1,3.3-0.2,4.3H188.8z M198.8,47
		c0.1-5.9-1.9-9.4-4.8-9.4c-3.5,0-5.1,5.1-5.2,9.4H198.8z"/>
	<path class="st7" d="M220.1,32.2v14.7h9.1V32.2h8.1V69h-8.1V53.7h-9.1V69h-8.1V32.2H220.1z"/>
	<path class="st7" d="M270.5,32.2v30.7l3.2,0.2l-0.3,15.8h-6.1l-0.5-10h-18.3l-0.5,10h-6.1l-0.3-15.8l2.7-0.2c1.4-2.2,2.4-5,3.1-7.6
		c1-3.9,1.4-8.2,1.4-12.8V32.2H270.5z M256,42.6c0,4.3-0.3,8.7-1.2,12.8c-0.5,2.6-1.4,5.1-2.6,7.4h10.3V38.6H256V42.6z"/>
	<path class="st7" d="M286.2,32.2v10c0,6.6-0.3,12.6-0.7,17.3h0.2c1.4-4.3,3.2-8.9,4.7-12.5l5.8-14.9h7.8V69h-7.3v-9.9
		c0-7.6,0.3-11.8,0.6-17.1h-0.2c-1.3,4.2-2.5,7.7-4,11.5c-1.1,2.7-4.1,10.4-6.6,15.5h-7.8V32.2H286.2z"/>
	<path class="st7" d="M319.7,32.2v14.7h9.1V32.2h8.1V69h-8.1V53.7h-9.1V69h-8.1V32.2H319.7z"/>
	<path class="st7" d="M363.1,32.2v6.7h-10.9v30h-8V32.2H363.1z"/>
	<path class="st7" d="M407.8,67.7c-2.1,1-5.2,1.7-8.1,1.7c-3.6,0-7.6-1-11.1-4.9c-3.2-3.7-5.8-10.4-5.8-20.1
		c0-20.6,9.9-26.8,17.7-26.8c2.8,0,5.1,0.5,6.6,1.4l-1.1,2.9c-1.3-0.7-3-1.3-5.9-1.3c-6.1,0-14,5.4-14,22.6
		c0,17.8,6.7,23.2,13.8,23.2c2.6,0,4-0.5,4.5-0.8V46.4h-7.8v-2.8h11V67.7z"/>
	<path class="st7" d="M432.6,43.7h-13.4v22.4h15.4V69h-18.6V18.1h17.7V21h-14.4v19.8h13.4V43.7z"/>
	<path class="st7" d="M440.8,69V18.1h3.2l10.3,26.3c2.5,6.4,5.2,13.3,7.2,19.5h0.2c-0.5-9.7-0.5-14.8-0.5-23.2V18.1h3.1V69h-3.2
		L450,41.3c-2.3-5.7-4.4-11-6.6-18.5h-0.2c0.5,7.8,0.5,13.4,0.5,24.7V69H440.8z"/>
	<path class="st7" d="M471.6,69v-2l3.6-5.3c5.6-8.1,13.5-18.9,13.5-29.4c0-6.3-2.5-10-7.4-10c-3.8,0-6,2.2-6.9,2.9l-1.2-2.3
		c1.4-1.4,4.3-3.5,8.8-3.5c6.6,0,10.1,5.3,10.1,12.9c0,9.2-6.2,19.2-12.5,28.5l-3.5,5.1V66h17.1V69H471.6z"/>
</g>
<line class="st8" x1="140" y1="78.9" x2="496" y2="78.9"/>
<g>
	<path d="M148.2,102.7c-0.4,0.2-1,0.3-1.7,0.3c-1.9,0-3.8-1.5-3.8-6.2c0-5,2.3-6.4,4-6.4c0.7,0,1.2,0.1,1.5,0.3l-0.3,0.7
		c-0.3-0.1-0.6-0.3-1.3-0.3c-1.3,0-3,1.4-3,5.6c0,4.3,1.6,5.6,3.1,5.6c0.6,0,1.1-0.1,1.4-0.3L148.2,102.7z"/>
	<path d="M150.5,94.1v3.7c0,1.5,0,2.6-0.1,4.3h0c0.5-1.3,1-2.8,1.5-4l1.6-4.1h1v8.8h-0.8v-3.5c0-2,0-3,0.1-4.5h0
		c-0.3,1.2-0.8,2.4-1.2,3.4c-0.3,0.8-1.2,3-1.9,4.6h-1v-8.8H150.5z"/>
	<path d="M160.6,102.6c-0.3,0.2-0.8,0.4-1.4,0.4c-1.7,0-2.9-1.6-2.9-4.5c0-2.4,1.1-4.6,3.1-4.6c0.4,0,0.9,0.1,1.2,0.3l-0.3,0.7
		c-0.2-0.1-0.6-0.3-1.1-0.3c-1.6,0-2.2,2.1-2.2,3.9c0,2.4,0.9,3.7,2.3,3.7c0.4,0,0.8-0.1,1.1-0.3L160.6,102.6z"/>
	<path d="M166.3,94.1v0.7h-2v8.1h-0.8v-8.1h-2v-0.7H166.3z"/>
	<path d="M167.5,98.2c0,3.5,1.2,4.2,2.2,4.2c0.6,0,1-0.1,1.3-0.3l0.2,0.6c-0.4,0.3-1.1,0.4-1.7,0.4c-1.9,0-2.9-1.8-2.9-4.5
		c0-2.8,1-4.6,2.6-4.6c1.7,0,2.2,2.1,2.2,3.7c0,0.2,0,0.3,0,0.5H167.5z M170.7,97.5c0-2.2-0.9-2.9-1.5-2.9c-1,0-1.6,1.5-1.7,2.9
		H170.7z"/>
	<path d="M173.5,94.1h0.9l1.5,4.5c0.4,1.2,0.6,1.9,0.9,3h0c0.3-1.1,0.5-1.7,0.9-3l1.4-4.5h0.9l0.6,8.8h-0.8l-0.2-4.2
		c-0.1-1.4-0.1-2.1-0.1-3.7h-0.1c-0.3,1-0.6,2-1,3.2l-1.5,4.7h-0.5l-1.4-4.4c-0.4-1.4-0.7-2.3-1-3.5H174c0,1.1-0.1,2.3-0.1,3.8
		l-0.2,4.1h-0.8L173.5,94.1z"/>
	<path d="M186.2,100.9c0,0.6,0,1.4,0.1,2h-0.7l-0.1-1h-0.1c-0.3,0.7-0.9,1.1-1.7,1.1c-1.1,0-1.9-0.9-1.9-2.4c0-2.1,1.6-3.1,3.6-3.1
		v-0.3c0-1.5-0.2-2.5-1.5-2.5c-0.4,0-0.9,0.2-1.2,0.4l-0.2-0.6c0.3-0.3,1-0.5,1.6-0.5c1.2,0,2.1,0.7,2.1,2.8V100.9z M185.5,98.2
		c-0.7,0-2.8,0.1-2.8,2.4c0,1.3,0.6,1.8,1.2,1.8c0.8,0,1.3-0.6,1.5-1.7c0-0.2,0-0.4,0-0.6V98.2z"/>
	<path d="M195.9,94.1v8.1h0.7l-0.1,3h-0.6l-0.1-2.3H191l-0.1,2.3h-0.6l-0.1-3h0.5c0.4-0.6,0.7-1.3,0.9-1.9c0.3-1,0.5-2.2,0.5-3.5
		v-2.7H195.9z M192.9,96.4c0,1.5-0.1,2.8-0.5,4c-0.2,0.6-0.5,1.2-0.8,1.8h3.5v-7.4h-2.2V96.4z"/>
	<path d="M202.7,94.1v8.8h-0.8v-8.1h-2.3v3.4c0,2.6-0.1,4.1-1.3,4.7c-0.2,0.1-0.5,0.2-0.8,0.2l-0.2-0.6c0.3,0,0.5-0.1,0.7-0.3
		c0.6-0.5,0.7-1.8,0.7-3.9v-4.2H202.7z"/>
	<path d="M209,102.9h-0.8v-4h-0.6c-0.8,0-1.4,0.2-1.7,0.6c-0.6,0.6-0.6,1.6-0.9,2.7c-0.1,0.3-0.1,0.5-0.2,0.7H204
		c0.1-0.3,0.3-0.5,0.4-0.9c0.3-0.9,0.3-2.1,1-2.8c0.2-0.3,0.6-0.5,1.1-0.6v0c-1-0.2-1.9-0.9-1.9-2.2c0-0.8,0.3-1.4,0.8-1.8
		c0.5-0.4,1.3-0.7,2.1-0.7c0.6,0,1.1,0.1,1.5,0.2V102.9z M208.2,94.6c-0.2-0.1-0.4-0.1-0.7-0.1c-1.1,0-2.2,0.5-2.2,1.8
		c0,1.3,1.2,1.9,2.1,1.9c0.2,0,0.6,0,0.7,0V94.6z"/>
	<path d="M217.9,102.6c-0.3,0.2-0.8,0.4-1.4,0.4c-1.7,0-2.9-1.6-2.9-4.5c0-2.4,1.1-4.6,3.1-4.6c0.4,0,0.9,0.1,1.2,0.3l-0.3,0.7
		c-0.2-0.1-0.6-0.3-1.1-0.3c-1.6,0-2.2,2.1-2.2,3.9c0,2.4,0.9,3.7,2.3,3.7c0.4,0,0.8-0.1,1.1-0.3L217.9,102.6z"/>
	<path d="M221.2,103c-1.2,0-2.6-1.3-2.6-4.6s1.3-4.6,2.7-4.6c1.2,0,2.5,1.3,2.5,4.6S222.6,103,221.2,103L221.2,103z M221.3,102.3
		c1.5,0,1.8-2.4,1.8-3.9s-0.3-3.9-1.8-3.9c-1.5,0-1.8,2.4-1.8,3.9S219.8,102.3,221.3,102.3L221.3,102.3z"/>
	<path d="M226.1,98h0.3c0.9,0,2.1-0.7,2.1-1.8c0-1.1-0.7-1.5-1.5-1.5c-0.6,0-1.1,0.2-1.6,0.5l-0.2-0.5c0.6-0.4,1.3-0.6,1.9-0.6
		c1.1,0,2.2,0.7,2.2,2.2c0,1.1-0.8,1.9-1.8,2.1v0c1.2,0.2,2.1,0.9,2.1,2.3c0,1.7-1.5,2.5-2.9,2.5c-0.6,0-1.3-0.2-1.9-0.5l0.3-0.6
		c0.4,0.3,1,0.5,1.6,0.5c1.2,0,2.1-0.8,2.1-1.8c0-1.4-1.3-1.9-2.4-1.9h-0.4V98z"/>
	<path d="M235.8,94.1v8.1h0.7l-0.1,3h-0.6l-0.1-2.3H231l-0.1,2.3h-0.6l-0.1-3h0.5c0.4-0.6,0.7-1.3,0.9-1.9c0.3-1,0.5-2.2,0.5-3.5
		v-2.7H235.8z M232.8,96.4c0,1.5-0.1,2.8-0.5,4c-0.2,0.6-0.5,1.2-0.8,1.8h3.5v-7.4h-2.2V96.4z"/>
	<path d="M242,100.9c0,0.6,0,1.4,0.1,2h-0.7l-0.1-1h-0.1c-0.3,0.7-0.9,1.1-1.7,1.1c-1.1,0-1.9-0.9-1.9-2.4c0-2.1,1.6-3.1,3.6-3.1
		v-0.3c0-1.5-0.2-2.5-1.5-2.5c-0.4,0-0.9,0.2-1.2,0.4l-0.2-0.6c0.3-0.3,1-0.5,1.6-0.5c1.2,0,2.1,0.7,2.1,2.8V100.9z M241.2,98.2
		c-0.7,0-2.8,0.1-2.8,2.4c0,1.3,0.6,1.8,1.2,1.8c0.8,0,1.3-0.6,1.5-1.7c0-0.2,0-0.4,0-0.6V98.2z"/>
	<path d="M244.9,94.1v4h3.1v-4h0.8v8.8h-0.8v-4.1h-3.1v4.1h-0.8v-8.8H244.9z"/>
	<path d="M251.8,94.1v3.7c0,1.5,0,2.6-0.1,4.3h0c0.5-1.3,1-2.8,1.5-4l1.6-4.1h1v8.8H255v-3.5c0-2,0-3,0.1-4.5h0
		c-0.3,1.2-0.8,2.4-1.2,3.4c-0.3,0.8-1.2,3-1.9,4.6h-1v-8.8H251.8z"/>
	<path d="M262.1,102.9h-0.8v-4h-0.6c-0.8,0-1.4,0.2-1.7,0.6c-0.6,0.6-0.6,1.6-0.9,2.7c-0.1,0.3-0.1,0.5-0.2,0.7h-0.9
		c0.1-0.3,0.3-0.5,0.4-0.9c0.3-0.9,0.3-2.1,1-2.8c0.2-0.3,0.6-0.5,1.1-0.6v0c-1-0.2-1.9-0.9-1.9-2.2c0-0.8,0.3-1.4,0.8-1.8
		c0.5-0.4,1.3-0.7,2.1-0.7c0.6,0,1.1,0.1,1.5,0.2V102.9z M261.3,94.6c-0.2-0.1-0.4-0.1-0.7-0.1c-1.1,0-2.2,0.5-2.2,1.8
		c0,1.3,1.2,1.9,2.1,1.9c0.2,0,0.6,0,0.7,0V94.6z"/>
	<path d="M271.4,94.1v8.8h-0.8v-8.1h-2.3v3.4c0,2.6-0.1,4.1-1.3,4.7c-0.2,0.1-0.5,0.2-0.8,0.2l-0.2-0.6c0.3,0,0.5-0.1,0.7-0.3
		c0.6-0.5,0.7-1.8,0.7-3.9v-4.2H271.4z"/>
	<path d="M273.9,98.2c0,3.5,1.2,4.2,2.2,4.2c0.6,0,1-0.1,1.3-0.3l0.2,0.6c-0.4,0.3-1.1,0.4-1.7,0.4c-1.9,0-2.9-1.8-2.9-4.5
		c0-2.8,1-4.6,2.6-4.6c1.7,0,2.2,2.1,2.2,3.7c0,0.2,0,0.3,0,0.5H273.9z M277.1,97.5c0-2.2-0.9-2.9-1.5-2.9c-1,0-1.6,1.5-1.7,2.9
		H277.1z"/>
	<path d="M280.4,94.1v4h3.1v-4h0.8v8.8h-0.8v-4.1h-3.1v4.1h-0.8v-8.8H280.4z"/>
	<path d="M291,94.1v8.1h0.7l-0.1,3H291l-0.1-2.3h-4.7l-0.1,2.3h-0.6l-0.1-3h0.5c0.4-0.6,0.7-1.3,0.9-1.9c0.3-1,0.5-2.2,0.5-3.5v-2.7
		H291z M288.1,96.4c0,1.5-0.1,2.8-0.5,4c-0.2,0.6-0.5,1.2-0.8,1.8h3.5v-7.4h-2.2V96.4z"/>
	<path d="M294.1,94.1v3.7c0,1.5,0,2.6-0.1,4.3h0c0.5-1.3,1-2.8,1.5-4l1.6-4.1h1v8.8h-0.8v-3.5c0-2,0-3,0.1-4.5h0
		c-0.3,1.2-0.8,2.4-1.2,3.4c-0.3,0.8-1.2,3-1.9,4.6h-1v-8.8H294.1z"/>
	<path d="M301.1,94.1v4h3.1v-4h0.8v8.8h-0.8v-4.1h-3.1v4.1h-0.8v-8.8H301.1z"/>
	<path d="M310.8,94.1v0.7h-2.8v8.1h-0.8v-8.8H310.8z"/>
	<path d="M314.9,97.9v0.7h-4.2v-0.7H314.9z"/>
	<path d="M320.5,102.6c-0.3,0.2-0.8,0.4-1.4,0.4c-1.7,0-2.9-1.6-2.9-4.5c0-2.4,1.1-4.6,3.1-4.6c0.4,0,0.9,0.1,1.2,0.3l-0.3,0.7
		c-0.2-0.1-0.6-0.3-1.1-0.3c-1.6,0-2.2,2.1-2.2,3.9c0,2.4,0.9,3.7,2.3,3.7c0.4,0,0.8-0.1,1.1-0.3L320.5,102.6z"/>
	<path d="M326.2,94.1v0.7h-2v8.1h-0.8v-8.1h-2v-0.7H326.2z"/>
	<path d="M327.2,96.8c0-1.5-0.1-2.2-0.1-2.7h0.8l0,1.2h0c0.6-1.1,1.3-1.3,1.9-1.3c1.3,0,2.4,1.3,2.4,4.5c0,3.4-1.3,4.6-2.6,4.6
		c-0.9,0-1.4-0.6-1.6-1.1h0v4.5h-0.8V96.8z M328,99.6c0,0.2,0,0.5,0,0.7c0.3,1.7,1.2,2,1.6,2c1.4,0,1.8-1.8,1.8-3.9
		c0-1.9-0.5-3.9-1.8-3.9c-0.8,0-1.5,1.1-1.6,2.1c0,0.2,0,0.5,0,0.7V99.6z"/>
	<path d="M337.9,100.9c0,0.6,0,1.4,0.1,2h-0.7l-0.1-1h-0.1c-0.3,0.7-0.9,1.1-1.7,1.1c-1.1,0-1.9-0.9-1.9-2.4c0-2.1,1.6-3.1,3.6-3.1
		v-0.3c0-1.5-0.2-2.5-1.5-2.5c-0.4,0-0.9,0.2-1.2,0.4l-0.2-0.6c0.3-0.3,1-0.5,1.6-0.5c1.2,0,2.1,0.7,2.1,2.8V100.9z M337.1,98.2
		c-0.7,0-2.8,0.1-2.8,2.4c0,1.3,0.6,1.8,1.2,1.8c0.8,0,1.3-0.6,1.5-1.7c0-0.2,0-0.4,0-0.6V98.2z"/>
	<path d="M340.9,94.1v4h3.1v-4h0.8v8.8H344v-4.1h-3.1v4.1h-0.8v-8.8H340.9z"/>
	<path d="M347.7,94.1v3.7c0,1.5,0,2.6-0.1,4.3h0c0.5-1.3,1-2.8,1.5-4l1.6-4.1h1v8.8h-0.8v-3.5c0-2,0-3,0.1-4.5h0
		c-0.3,1.2-0.8,2.4-1.2,3.4c-0.3,0.8-1.2,3-1.9,4.6h-1v-8.8H347.7z"/>
	<path d="M354.6,94.1v8.1h3v-8.1h0.8v8.1h0.7l-0.1,3h-0.6l-0.1-2.3h-4.5v-8.8H354.6z"/>
	<path d="M147,124.7c-0.3,0.2-0.8,0.4-1.4,0.4c-1.7,0-2.9-1.6-2.9-4.5c0-2.4,1.1-4.6,3.1-4.6c0.4,0,0.9,0.1,1.2,0.3l-0.3,0.7
		c-0.2-0.1-0.6-0.3-1.1-0.3c-1.6,0-2.2,2.1-2.2,3.9c0,2.4,0.9,3.7,2.3,3.7c0.4,0,0.8-0.1,1.1-0.3L147,124.7z"/>
	<path d="M151.2,118.8c0-1.5-0.1-2.2-0.1-2.7h0.8l0,1.2h0c0.6-1.1,1.3-1.3,1.9-1.3c1.3,0,2.4,1.3,2.4,4.5c0,3.4-1.3,4.6-2.6,4.6
		c-0.9,0-1.4-0.6-1.6-1.1h0v4.5h-0.8V118.8z M152,121.7c0,0.2,0,0.5,0,0.7c0.3,1.7,1.2,2,1.6,2c1.4,0,1.8-1.8,1.8-3.9
		c0-1.9-0.5-3.9-1.8-3.9c-0.8,0-1.5,1.1-1.6,2.1c0,0.2,0,0.5,0,0.7V121.7z"/>
	<path d="M161.9,123c0,0.6,0,1.4,0.1,2h-0.7l-0.1-1h-0.1c-0.3,0.7-0.9,1.1-1.7,1.1c-1.1,0-1.9-0.9-1.9-2.4c0-2.1,1.6-3.1,3.6-3.1
		v-0.3c0-1.5-0.2-2.5-1.5-2.5c-0.4,0-0.9,0.2-1.2,0.4l-0.2-0.6c0.3-0.3,1-0.5,1.6-0.5c1.2,0,2.1,0.7,2.1,2.8V123z M161.1,120.2
		c-0.7,0-2.8,0.1-2.8,2.4c0,1.3,0.6,1.8,1.2,1.8c0.8,0,1.3-0.6,1.5-1.7c0-0.2,0-0.4,0-0.6V120.2z"/>
	<path d="M168,124.7c-0.3,0.2-0.8,0.4-1.4,0.4c-1.7,0-2.9-1.6-2.9-4.5c0-2.4,1.1-4.6,3.1-4.6c0.4,0,0.9,0.1,1.2,0.3l-0.3,0.7
		c-0.2-0.1-0.6-0.3-1.1-0.3c-1.6,0-2.2,2.1-2.2,3.9c0,2.4,0.9,3.7,2.3,3.7c0.4,0,0.8-0.1,1.1-0.3L168,124.7z"/>
	<path d="M170.1,116.1v8.1h2.7v-8.1h0.8v8.1h2.7v-8.1h0.8v8.8h-7.8v-8.8H170.1z"/>
	<path d="M180.1,116.1v3.7c0,1.5,0,2.6-0.1,4.3h0c0.5-1.3,1-2.8,1.5-4l1.6-4.1h1v8.8h-0.8v-3.5c0-2,0-3,0.1-4.5h0
		c-0.3,1.2-0.8,2.4-1.2,3.4c-0.3,0.8-1.2,3-1.9,4.6h-1v-8.8H180.1z"/>
	<path d="M186.3,118.8c0-1.5-0.1-2.2-0.1-2.7h0.8l0,1.2h0c0.6-1.1,1.3-1.3,1.9-1.3c1.3,0,2.4,1.3,2.4,4.5c0,3.4-1.3,4.6-2.6,4.6
		c-0.9,0-1.4-0.6-1.6-1.1h0v4.5h-0.8V118.8z M187.1,121.7c0,0.2,0,0.5,0,0.7c0.3,1.7,1.2,2,1.6,2c1.4,0,1.8-1.8,1.8-3.9
		c0-1.9-0.5-3.9-1.8-3.9c-0.8,0-1.5,1.1-1.6,2.1c0,0.2,0,0.5,0,0.7V121.7z"/>
	<path d="M193.4,120.2c0,3.5,1.2,4.2,2.2,4.2c0.6,0,1-0.1,1.3-0.3l0.2,0.6c-0.4,0.3-1.1,0.4-1.7,0.4c-1.9,0-2.9-1.8-2.9-4.5
		c0-2.8,1-4.6,2.6-4.6c1.7,0,2.2,2.1,2.2,3.7c0,0.2,0,0.3,0,0.5H193.4z M196.6,119.6c0-2.2-0.9-2.9-1.5-2.9c-1,0-1.6,1.5-1.7,2.9
		H196.6z"/>
	<path d="M199.9,116.1v4h3.1v-4h0.8v8.8H203v-4.1h-3.1v4.1h-0.8v-8.8H199.9z"/>
	<path d="M206.7,116.1v4h3.1v-4h0.8v8.8h-0.8v-4.1h-3.1v4.1H206v-8.8H206.7z"/>
	<path d="M213.6,116.1v3.3c0.1,0,0.4-0.1,0.8-0.1c1.7,0,3,1,3,2.7c0,0.9-0.3,1.6-0.9,2.1c-0.6,0.6-1.5,0.8-2.3,0.8
		c-0.5,0-1-0.1-1.5-0.1v-8.8H213.6z M213.6,124.3c0.3,0.1,0.5,0.1,0.7,0.1c1.3,0,2.3-0.8,2.3-2.2c0-1.4-1-2.1-2.4-2.1
		c-0.3,0-0.4,0-0.6,0.1V124.3z M219.2,116.1v8.8h-0.7v-8.8H219.2z"/>
	<path d="M221.6,116.1h0.9l1.5,4.5c0.4,1.2,0.6,1.9,0.9,3h0c0.3-1.1,0.5-1.7,0.9-3l1.4-4.5h0.9l0.6,8.8H228l-0.2-4.2
		c-0.1-1.4-0.1-2.1-0.1-3.7h-0.1c-0.3,1-0.6,2-1,3.2l-1.5,4.7h-0.5l-1.4-4.4c-0.4-1.4-0.7-2.3-1-3.5h-0.1c0,1.1-0.1,2.3-0.1,3.8
		l-0.2,4.1h-0.8L221.6,116.1z"/>
	<path d="M236.7,112.2v3.8c1.6,0.1,2.9,1.5,2.9,4.5c0,3-1.3,4.4-2.9,4.5v3.4H236v-3.4c-1.6-0.1-2.9-1.5-2.9-4.5c0-3,1.3-4.3,2.9-4.5
		v-3.8H236.7z M236,116.7c-1.6,0.3-2.1,2.2-2.1,3.9c0,1.6,0.4,3.6,2.1,3.9V116.7z M236.7,124.4c1.7-0.3,2.1-2.2,2.1-3.9
		c0-1.7-0.4-3.6-2.1-3.9V124.4z"/>
	<path d="M241.2,116.1l1.4,5.4c0.2,0.8,0.3,1.4,0.4,2h0c0.1-0.5,0.3-1.3,0.5-2l1.2-5.4h0.8l-1.2,4.9c-0.6,2.6-1.2,5-2.3,6.4
		c-0.5,0.7-1,1.1-1.3,1.3l-0.4-0.7c0.4-0.3,0.9-0.7,1.3-1.3c0.4-0.6,0.7-1.3,0.8-1.8c0.1-0.3,0.1-0.3,0.1-0.5c0-0.1,0-0.2,0-0.3
		l-2.1-8.1H241.2z"/>
	<path d="M247.8,116.1v4h3.1v-4h0.8v8.8h-0.8v-4.1h-3.1v4.1H247v-8.8H247.8z"/>
	<path d="M254.6,116.1v4h0.2l2.8-4h1l-3.1,4.1c1.4,0.1,2.1,1.2,2.5,2.5c0.2,0.8,0.4,1.5,0.7,2.2h-0.8c-0.2-0.6-0.4-1.3-0.6-2
		c-0.4-1.4-1-2.2-2.5-2.2h-0.1v4.2h-0.8v-8.8H254.6z"/>
	<path d="M260.8,116.1v8.1h3v-8.1h0.8v8.1h0.7l-0.1,3h-0.6l-0.1-2.3H260v-8.8H260.8z"/>
	<path d="M267.7,116.1v3.7c0,1.5,0,2.6-0.1,4.3h0c0.5-1.3,1-2.8,1.5-4l1.6-4.1h1v8.8h-0.8v-3.5c0-2,0-3,0.1-4.5h0
		c-0.3,1.2-0.8,2.4-1.2,3.4c-0.3,0.8-1.2,3-1.9,4.6h-1v-8.8H267.7z"/>
	<path d="M276,125.1c-1.2,0-2.6-1.3-2.6-4.6s1.3-4.6,2.7-4.6c1.2,0,2.5,1.3,2.5,4.6S277.3,125.1,276,125.1L276,125.1z M276.1,124.4
		c1.5,0,1.8-2.4,1.8-3.9s-0.3-3.9-1.8-3.9c-1.5,0-1.8,2.4-1.8,3.9S274.5,124.4,276.1,124.4L276.1,124.4z"/>
	<path d="M281.2,116.1v4h3.1v-4h0.8v8.8h-0.8v-4.1h-3.1v4.1h-0.8v-8.8H281.2z"/>
	<path d="M291.1,123c0,0.6,0,1.4,0.1,2h-0.7l-0.1-1h-0.1c-0.3,0.7-0.9,1.1-1.7,1.1c-1.1,0-1.9-0.9-1.9-2.4c0-2.1,1.6-3.1,3.6-3.1
		v-0.3c0-1.5-0.2-2.5-1.5-2.5c-0.4,0-0.9,0.2-1.2,0.4l-0.2-0.6c0.3-0.3,1-0.5,1.6-0.5c1.2,0,2.1,0.7,2.1,2.8V123z M290.3,120.2
		c-0.7,0-2.8,0.1-2.8,2.4c0,1.3,0.6,1.8,1.2,1.8c0.8,0,1.3-0.6,1.5-1.7c0-0.2,0-0.4,0-0.6V120.2z"/>
	<path d="M297.5,116.1v8.8h-0.8v-8.1h-2.3v3.4c0,2.6-0.1,4.1-1.3,4.7c-0.2,0.1-0.5,0.2-0.8,0.2l-0.2-0.6c0.3,0,0.5-0.1,0.7-0.3
		c0.6-0.5,0.7-1.8,0.7-3.9v-4.2H297.5z"/>
	<path d="M301.8,125.1c-1.2,0-2.6-1.3-2.6-4.6s1.3-4.6,2.7-4.6c1.2,0,2.5,1.3,2.5,4.6S303.2,125.1,301.8,125.1L301.8,125.1z
		 M301.9,124.4c1.5,0,1.8-2.4,1.8-3.9s-0.3-3.9-1.8-3.9c-1.5,0-1.8,2.4-1.8,3.9S300.3,124.4,301.9,124.4L301.9,124.4z"/>
	<path d="M306.5,116.1h0.9l1.5,4.5c0.4,1.2,0.6,1.9,0.9,3h0c0.3-1.1,0.5-1.7,0.9-3l1.4-4.5h0.9l0.6,8.8h-0.8l-0.2-4.2
		c-0.1-1.4-0.1-2.1-0.1-3.7h-0.1c-0.3,1-0.6,2-1,3.2l-1.5,4.7h-0.5l-1.4-4.4c-0.4-1.4-0.7-2.3-1-3.5H307c0,1.1-0.1,2.3-0.1,3.8
		l-0.2,4.1h-0.8L306.5,116.1z"/>
	<path d="M321.3,112.2c-1,1.6-1.9,4.2-1.9,7.5c0,3.3,0.9,5.8,1.9,7.5h-0.7c-0.9-1.4-1.9-3.8-1.9-7.5c0-3.6,1-6.1,1.9-7.5H321.3z"/>
	<path d="M325.4,124.9l-2.9-12.4h0.8l1.4,6.1c0.3,1.4,0.8,3.4,1,5h0.1c0.2-1.7,0.6-3.5,1-5.1l1.4-6.1h0.8l-2.9,12.4H325.4z"/>
	<path d="M330.1,120.2c0,3.5,1.2,4.2,2.2,4.2c0.6,0,1-0.1,1.3-0.3l0.2,0.6c-0.4,0.3-1.1,0.4-1.7,0.4c-1.9,0-2.9-1.8-2.9-4.5
		c0-2.8,1-4.6,2.6-4.6c1.7,0,2.2,2.1,2.2,3.7c0,0.2,0,0.3,0,0.5H330.1z M333.3,119.6c0-2.2-0.9-2.9-1.5-2.9c-1,0-1.6,1.5-1.7,2.9
		H333.3z"/>
	<path d="M335.7,118.2c0-0.7-0.1-1.5-0.1-2h0.8l0,1.4h0c0.2-0.8,1-1.6,1.9-1.6c0.1,0,0.1,0,0.2,0v0.9c0,0-0.1,0-0.1,0
		c-1.1,0-1.8,1.1-1.9,2.2c0,0.3,0,0.5,0,0.8v5.1h-0.8V118.2z"/>
	<path d="M339.1,125.1c-0.4,0-0.6-0.3-0.6-0.7s0.3-0.8,0.6-0.8c0.4,0,0.6,0.3,0.6,0.8S339.5,125.1,339.1,125.1L339.1,125.1z"/>
	<path d="M342.2,117.9c-0.4,0-0.6-0.3-0.6-0.7c0-0.4,0.3-0.8,0.6-0.8c0.4,0,0.6,0.3,0.6,0.8C342.9,117.6,342.7,117.9,342.2,117.9
		L342.2,117.9z M342.2,125.1c-0.4,0-0.6-0.3-0.6-0.7s0.3-0.8,0.6-0.8c0.4,0,0.6,0.3,0.6,0.8S342.7,125.1,342.2,125.1L342.2,125.1z"
		/>
	<path d="M349.8,125.1c-1.4,0-2.7-1.7-2.7-6.1s1.3-6.1,2.9-6.1c1.4,0,2.7,1.7,2.7,6.1S351.5,125.1,349.8,125.1L349.8,125.1z
		 M350,124.4c1.4,0,1.9-2.5,1.9-5.4s-0.6-5.4-2-5.4s-2,2.5-2,5.4S348.6,124.4,350,124.4L350,124.4z"/>
	<path d="M354.8,125.1c-0.4,0-0.6-0.3-0.6-0.7s0.3-0.8,0.6-0.8c0.4,0,0.6,0.3,0.6,0.8S355.2,125.1,354.8,125.1L354.8,125.1z"/>
	<path d="M357.5,124.4c0.2,0,0.5,0,0.8-0.1c0.7-0.2,1.3-0.6,1.8-1.1c0.8-0.9,1.3-2.1,1.5-4h0c-0.5,0.6-1.2,1.2-2.1,1.2
		c-1.5,0-2.5-1.4-2.5-3.5c0-2.3,1.1-4,2.7-4c1.9,0,2.8,2.2,2.8,4.7c0,2.1-0.4,4-1.3,5.4c-0.7,1-1.7,1.7-2.6,2
		c-0.4,0.1-0.7,0.1-0.9,0.1V124.4z M359.6,113.6c-0.8,0-1.8,0.8-1.8,3.2c0,2.1,0.8,2.9,1.9,2.9c0.7,0,1.4-0.5,1.8-1.3
		c0.1-0.2,0.1-0.3,0.1-0.4C361.6,114.8,360.8,113.6,359.6,113.6L359.6,113.6z"/>
	<path d="M364.5,125.1c-0.4,0-0.6-0.3-0.6-0.7s0.3-0.8,0.6-0.8c0.4,0,0.6,0.3,0.6,0.8S365,125.1,364.5,125.1L364.5,125.1z"/>
	<path d="M369.6,112.9c1.7,0,2.3,1.6,2.3,2.7c0,1.2-0.6,2.2-1.6,2.9v0.1c1.1,0.8,1.9,1.9,1.9,3.3c0,1.6-1,3.2-2.7,3.2
		c-2,0-2.7-1.8-2.7-2.9c0-1.8,1.1-2.9,2.1-3.6l0,0c-1-0.7-1.6-1.7-1.6-2.8C367.1,114,368.3,112.9,369.6,112.9L369.6,112.9z
		 M369.4,124.4c0.9,0,1.9-0.6,1.9-2.4c0-1.5-0.8-2.3-1.9-3.1c-1.2,0.7-1.9,1.9-1.9,3C367.5,123.5,368.3,124.4,369.4,124.4
		L369.4,124.4z M369.5,113.6c-0.8,0-1.5,0.8-1.5,2.1c0,1.5,0.9,2.1,1.7,2.6c0.9-0.7,1.4-1.5,1.4-2.5
		C371,114.3,370.4,113.6,369.5,113.6L369.5,113.6z"/>
	<path d="M373.3,127.1c1-1.6,1.9-4.2,1.9-7.5c0-3.3-0.9-5.8-1.9-7.5h0.7c0.9,1.4,1.9,3.8,1.9,7.5c0,3.6-1,6.1-1.9,7.5H373.3z"/>
</g>
<g>
	<path class="st0" d="M15.3-196.2"/>
	<linearGradient id="SVGID_7_" gradientUnits="userSpaceOnUse" x1="77.4706" y1="-209.9661" x2="108.142" y2="-168.4204">
		<stop  offset="0" style="stop-color:#00D47E"/>
		<stop  offset="0.1418" style="stop-color:#02D484;stop-opacity:0.9957"/>
		<stop  offset="0.3372" style="stop-color:#08D696;stop-opacity:0.9899"/>
		<stop  offset="0.5638" style="stop-color:#11D8B3;stop-opacity:0.9831"/>
		<stop  offset="0.8119" style="stop-color:#1EDBDB;stop-opacity:0.9756"/>
		<stop  offset="1" style="stop-color:#2ADEFF;stop-opacity:0.97"/>
	</linearGradient>
	<path class="st9" d="M109.6-163.7L109.6-163.7c-12.5,0-22.6-10.1-22.6-22.6v-13.4l0,0c12.5,0,22.6,10.1,22.6,22.6V-163.7z"/>
	<linearGradient id="SVGID_8_" gradientUnits="userSpaceOnUse" x1="69.9109" y1="-169.1245" x2="118.0732" y2="-232.0304">
		<stop  offset="0" style="stop-color:#00BC7E"/>
		<stop  offset="0.2178" style="stop-color:#00BC7F;stop-opacity:0.9998"/>
		<stop  offset="0.3933" style="stop-color:#01BD82;stop-opacity:0.9931"/>
		<stop  offset="0.5287" style="stop-color:#04BF8C;stop-opacity:0.9879"/>
		<stop  offset="0.6508" style="stop-color:#0AC49C;stop-opacity:0.9833"/>
		<stop  offset="0.7649" style="stop-color:#11CAB3;stop-opacity:0.979"/>
		<stop  offset="0.8736" style="stop-color:#1BD2D1;stop-opacity:0.9748"/>
		<stop  offset="0.9767" style="stop-color:#27DCF6;stop-opacity:0.9709"/>
		<stop  offset="1" style="stop-color:#2ADEFF;stop-opacity:0.97"/>
	</linearGradient>
	<path class="st10" d="M123-226.3L123-226.3c0,12.5-10.1,22.6-22.6,22.6H87l0,0c0-12.5,10.1-22.6,22.6-22.6H123z"/>
	<linearGradient id="SVGID_9_" gradientUnits="userSpaceOnUse" x1="87.7041" y1="-191.3267" x2="46.8747" y2="-269.0343">
		<stop  offset="5.000000e-03" style="stop-color:#00BC7E"/>
		<stop  offset="0.1431" style="stop-color:#02BE85;stop-opacity:0.9958"/>
		<stop  offset="0.3511" style="stop-color:#09C39A;stop-opacity:0.9896"/>
		<stop  offset="0.603" style="stop-color:#14CCBC;stop-opacity:0.982"/>
		<stop  offset="0.887" style="stop-color:#23D9EA;stop-opacity:0.9734"/>
		<stop  offset="1" style="stop-color:#2ADEFF;stop-opacity:0.97"/>
	</linearGradient>
	<path class="st11" d="M60.5-239.7L60.5-239.7c12.5,0,22.6,10.1,22.6,22.6v13.4l0,0c-12.5,0-22.6-10.1-22.6-22.6V-239.7z"/>
	<linearGradient id="SVGID_10_" gradientUnits="userSpaceOnUse" x1="36.153" y1="-233.3246" x2="77.1117" y2="-125.2889">
		<stop  offset="0" style="stop-color:#90145A"/>
		<stop  offset="0.1501" style="stop-color:#842C6E;stop-opacity:0.9955"/>
		<stop  offset="0.4681" style="stop-color:#646AA1;stop-opacity:0.986"/>
		<stop  offset="0.925" style="stop-color:#33CDF1;stop-opacity:0.9722"/>
		<stop  offset="1" style="stop-color:#2ADEFF;stop-opacity:0.97"/>
	</linearGradient>
	<path class="st12" d="M37.7-163.9c-8.7,4.6-3,34,17.9,33.8c15.1-0.1,27.3-12.2,27.3-27.3v-42.3l0,0c-12.5,0-22.6,10.1-22.6,22.6
		v13.3c0,6.2-5.1,11.3-11.3,11.3l0,0C42.8-152.5,37.7-157.6,37.7-163.9"/>
	<linearGradient id="SVGID_11_" gradientUnits="userSpaceOnUse" x1="39.0279" y1="-228.2302" x2="70.5617" y2="-167.5423">
		<stop  offset="0" style="stop-color:#90145A"/>
		<stop  offset="0.1501" style="stop-color:#842C6E;stop-opacity:0.9955"/>
		<stop  offset="0.4681" style="stop-color:#646AA1;stop-opacity:0.986"/>
		<stop  offset="0.925" style="stop-color:#33CDF1;stop-opacity:0.9722"/>
		<stop  offset="1" style="stop-color:#2ADEFF;stop-opacity:0.97"/>
	</linearGradient>
	<path class="st13" d="M49.2-152.5c6.7-0.1,11.2-5.8,11.2-11.2l0-13.7c0-12.5,10.2-22.2,22.7-22.2h0v13.1
		C83-153.6,49.2-152.5,49.2-152.5z"/>
	<linearGradient id="SVGID_12_" gradientUnits="userSpaceOnUse" x1="7.927" y1="-231.0086" x2="68.191" y2="-77.3946">
		<stop  offset="0" style="stop-color:#90145A"/>
		<stop  offset="0.1501" style="stop-color:#842C6E;stop-opacity:0.9955"/>
		<stop  offset="0.4681" style="stop-color:#646AA1;stop-opacity:0.986"/>
		<stop  offset="0.925" style="stop-color:#33CDF1;stop-opacity:0.9722"/>
		<stop  offset="1" style="stop-color:#2ADEFF;stop-opacity:0.97"/>
	</linearGradient>
	<path class="st14" d="M55-130.3c-18.3-2.7-17.1-33.5-17.1-33.5v-46.5c0-12.5-10.1-22.6-22.6-22.6l0,0v75.6l0,0
		c0,15.1,12.5,27.3,27.3,27.2c1.4,0,8.2,0,12.2,0c0,0,1.4,0,1.9,0C56.8-130.1,56.3-130.1,55-130.3z"/>
</g>
<text transform="matrix(1 0 0 1 143.4595 -191.0397)"><tspan x="0" y="0" class="st7" style="font-family:'MyriadPro-SemiboldCond'; font-size:75.4595px;">Лендинг</tspan><tspan x="220.6" y="0" class="st7" style="font-family:'MyriadPro-Regular'; font-size:75.4595px;"> </tspan><tspan x="236.6" y="0" class="st7" style="font-family:'MyriadPro-LightCond'; font-size:75.4595px;">GEN2</tspan></text>
<line class="st8" x1="140" y1="-181.1" x2="496" y2="-181.1"/>
<text transform="matrix(1 0 0 1 141.9995 -157.108)"><tspan x="0" y="0" style="font-family:'MyriadPro-LightCond'; font-size:18.3744px;">Система для создания лендинг-страниц</tspan><tspan x="0" y="22" style="font-family:'MyriadPro-LightCond'; font-size:18.3744px;">с расширенным функционалом (Ver.: 0.9.8)</tspan></text>
</svg>
