<svg id="OBJECTS" xmlns="http://www.w3.org/2000/svg" viewBox="0 0 500 300"><defs><style>.cls-1,.cls-2{fill:none;stroke-miterlimit:10;}.cls-1{stroke:#b3ffb9;stroke-width:2.39px;}.cls-2{stroke:#fff;stroke-width:7.04px;}.cls-3{fill:#a0ff12;}</style></defs><title>1</title><path class="cls-1" d="M210.55,107.38v9.44h-8.26a1,1,0,0,1-1.18-1.18v-1.18h-3.54a1,1,0,0,1-1.18-1.18v-2.36a1,1,0,0,1,1.18-1.18h3.54v-1.18a1,1,0,0,1,1.18-1.18Zm0,18.88v9.44h-8.26a1,1,0,0,1-1.18-1.18v-1.18h-3.54a1,1,0,0,1-1.18-1.18V129.8a1,1,0,0,1,1.18-1.18h3.54v-1.18a1,1,0,0,1,1.18-1.18Zm0,18.88v9.44h-8.26a1,1,0,0,1-1.18-1.18v-1.18h-3.54a1,1,0,0,1-1.18-1.18v-2.36a1,1,0,0,1,1.18-1.18h3.54v-1.18a1,1,0,0,1,1.18-1.18Zm0,18.88v9.44h-8.26a1,1,0,0,1-1.18-1.18V171.1h-3.54a1,1,0,0,1-1.18-1.18v-2.36a1,1,0,0,1,1.18-1.18h3.54V165.2a1,1,0,0,1,1.18-1.18Zm0,18.88v9.44h-8.26a1,1,0,0,1-1.18-1.18V190h-3.54a1,1,0,0,1-1.18-1.18v-2.36a1,1,0,0,1,1.18-1.18h3.54v-1.18a1,1,0,0,1,1.18-1.18Zm80.24-87.32V204.14a7.05,7.05,0,0,1-7.08,7.08H222.35a7.07,7.07,0,0,1-7.08-7.08V95.58a7.05,7.05,0,0,1,7.08-7.08h61.36a7,7,0,0,1,7.08,7.08Zm18.88,15.34v2.36a1,1,0,0,1-1.18,1.18H305v1.18a1,1,0,0,1-1.18,1.18h-8.26v-9.44h8.26a1,1,0,0,1,1.18,1.18v1.18h3.54A1,1,0,0,1,309.67,110.92Zm0,18.88v2.36a1,1,0,0,1-1.18,1.18H305v1.18a1,1,0,0,1-1.18,1.18h-8.26v-9.44h8.26a1,1,0,0,1,1.18,1.18v1.18h3.54A1,1,0,0,1,309.67,129.8Zm0,18.88V151a1,1,0,0,1-1.18,1.18H305v1.18a1,1,0,0,1-1.18,1.18h-8.26v-9.44h8.26a1,1,0,0,1,1.18,1.18v1.18h3.54A1,1,0,0,1,309.67,148.68Zm0,18.88v2.36a1,1,0,0,1-1.18,1.18H305v1.18a1,1,0,0,1-1.18,1.18h-8.26V164h8.26A1,1,0,0,1,305,165.2v1.18h3.54A1,1,0,0,1,309.67,167.56Zm0,18.88v2.36a1,1,0,0,1-1.18,1.18H305v1.18a1,1,0,0,1-1.18,1.18h-8.26V182.9h8.26a1,1,0,0,1,1.18,1.18v1.18h3.54A1,1,0,0,1,309.67,186.44Z"/><rect class="cls-2" x="-243.38" y="-223.23" width="2757.47" height="719.42"/><circle class="cls-1" cx="250" cy="150" r="106.73"/><circle class="cls-3" cx="250.99" cy="256.12" r="10.3"/></svg>