<svg id="OBJECTS" xmlns="http://www.w3.org/2000/svg" viewBox="0 0 500 300"><defs><style>.cls-1,.cls-2{fill:none;stroke-miterlimit:10;}.cls-1{stroke:#b3ffb9;stroke-width:2.39px;}.cls-2{stroke:#fff;stroke-width:7.04px;}.cls-3{fill:#a0ff12;}</style></defs><title>1</title><path class="cls-1" d="M291.93,150.83v42.48a7.07,7.07,0,0,1-7.08,7.08h-70.8a7.05,7.05,0,0,1-7.08-7.08V150.83a7,7,0,0,1,7.08-7.08h2.36V129.59a33,33,0,0,1,66.08,0v14.16h2.36a7.05,7.05,0,0,1,7.08,7.08Zm-61.36-7.08h37.76V129.59a18.88,18.88,0,0,0-37.76,0Z"/><rect class="cls-2" x="-807.27" y="-223.23" width="2757.47" height="719.42"/><circle class="cls-1" cx="250" cy="150" r="106.73"/><circle class="cls-3" cx="250.99" cy="256.12" r="10.3"/></svg>