<svg id="OBJECTS" xmlns="http://www.w3.org/2000/svg" viewBox="0 0 500 300"><defs><style>.cls-1,.cls-2{fill:none;stroke-miterlimit:10;}.cls-1{stroke:#b3ffb9;stroke-width:2.39px;}.cls-2{stroke:#fff;stroke-width:7.04px;}.cls-3{fill:#a0ff12;}</style></defs><title>1</title><path class="cls-1" d="M317.22,165.48v24a7.17,7.17,0,0,1-7.2,7.2H286a7.17,7.17,0,0,1-7.2-7.2v-24a7.17,7.17,0,0,1,7.2-7.2h7.2V143.87H254.8v14.41H262a7.17,7.17,0,0,1,7.21,7.2v24a7.17,7.17,0,0,1-7.21,7.2H238a7.17,7.17,0,0,1-7.21-7.2v-24a7.17,7.17,0,0,1,7.21-7.2h7.2V143.87H206.79v14.41H214a7.17,7.17,0,0,1,7.2,7.2v24a7.17,7.17,0,0,1-7.2,7.2H190a7.17,7.17,0,0,1-7.2-7.2v-24a7.17,7.17,0,0,1,7.2-7.2h7.2V143.87a9.73,9.73,0,0,1,9.61-9.6H245.2V119.86H238a7.17,7.17,0,0,1-7.21-7.2v-24a7.17,7.17,0,0,1,7.21-7.2h24a7.17,7.17,0,0,1,7.21,7.2v24a7.17,7.17,0,0,1-7.21,7.2h-7.2v14.41h38.41a9.73,9.73,0,0,1,9.61,9.6v14.41H310a7.17,7.17,0,0,1,7.2,7.2Z"/><rect class="cls-2" x="-1377.16" y="-223.23" width="2757.47" height="719.42"/><circle class="cls-1" cx="250" cy="150" r="106.73"/><circle class="cls-3" cx="250.99" cy="256.12" r="10.3"/></svg>