<svg id="OBJECTS" xmlns="http://www.w3.org/2000/svg" viewBox="0 0 500 300"><defs><style>.cls-1,.cls-2{fill:none;stroke-miterlimit:10;}.cls-1{stroke:#b3ffb9;stroke-width:2.39px;}.cls-2{stroke:#fff;stroke-width:7.04px;}.cls-3{fill:#a0ff12;}</style></defs><title>1</title><circle class="cls-1" cx="250" cy="150" r="106.73"/><path class="cls-1" d="M285.29,119.81a2.76,2.76,0,0,1,.52,3.24L246,208.38a3.23,3.23,0,0,1-3.09,1.84,7,7,0,0,1-1-.14,3.19,3.19,0,0,1-1.88-1.41,2.76,2.76,0,0,1-.33-2.21l14.53-59.59-29.94,7.45a4,4,0,0,1-.89.07,3.35,3.35,0,0,1-2.28-.81,2.73,2.73,0,0,1-1-2.87l14.82-60.85a3.15,3.15,0,0,1,1.18-1.69,3.31,3.31,0,0,1,2.07-.67h24.19a3.3,3.3,0,0,1,2.36.92,3,3,0,0,1,.95,2.18,3.09,3.09,0,0,1-.36,1.33l-12.62,34.14,29.21-7.22a4,4,0,0,1,.88-.15A3.45,3.45,0,0,1,285.29,119.81Z"/><rect class="cls-2" x="-1941.05" y="-223.23" width="2757.47" height="719.42"/><circle class="cls-3" cx="250.99" cy="256.12" r="10.3"/></svg>