<svg id="OBJECTS" xmlns="http://www.w3.org/2000/svg" viewBox="0 0 299.99 299.99"><defs><style>.cls-1{fill:#e2ffd9;}.cls-1,.cls-2{stroke:#2eff3e;}.cls-1,.cls-2,.cls-3{stroke-miterlimit:10;}.cls-2{fill:ivory;}.cls-3{fill:none;stroke:#fff;stroke-width:7.04px;}.cls-4{fill:#325a00;}</style></defs><title>1</title><polygon class="cls-1" points="255.6 298.89 0.26 298.89 -0.44 267.91 0.26 238.94 255.6 238.94 255.6 298.89"/><polygon class="cls-2" points="299.59 298.89 56.34 298.89 69.64 267.91 56.34 238.94 299.59 238.94 299.59 298.89"/><polygon class="cls-2" points="299.59 298.89 116.9 298.89 130.21 267.91 116.9 238.94 299.59 238.94 299.59 298.89"/><polygon class="cls-2" points="299.59 298.89 177.84 298.89 191.14 267.91 177.84 238.94 299.59 238.94 299.59 298.89"/><polygon class="cls-2" points="299.59 298.89 238.03 298.89 251.34 267.91 238.03 238.94 299.59 238.94 299.59 298.89"/><rect class="cls-3" x="-231.1" y="-199.08" width="2757.47" height="719.42"/><path class="cls-4" d="M195.86,86.19a17.48,17.48,0,0,1,4.45,10.74v75.48A6.27,6.27,0,0,1,194,178.7H106a6.28,6.28,0,0,1-6.29-6.29V67.58A6.28,6.28,0,0,1,106,61.29h58.7a15.05,15.05,0,0,1,5.77,1.32,15.22,15.22,0,0,1,5,3.14Zm-3.94,84.12V103.22H164.67a6.27,6.27,0,0,1-6.29-6.29V69.68H108.07V170.31Zm-67.08-56.6a2,2,0,0,1,.59-1.51,2,2,0,0,1,1.5-.59h46.13a2,2,0,0,1,1.5.59,2,2,0,0,1,.59,1.51v4.19a2,2,0,0,1-2.09,2.1H126.93a2,2,0,0,1-2.09-2.1Zm48.22,14.67a2,2,0,0,1,2.09,2.1v4.19a2,2,0,0,1-2.09,2.1H126.93a2,2,0,0,1-2.09-2.1v-4.19a2,2,0,0,1,2.09-2.1Zm0,16.77a2,2,0,0,1,2.09,2.1v4.19a2,2,0,0,1-2.09,2.1H126.93a2,2,0,0,1-2.09-2.1v-4.19a2,2,0,0,1,2.09-2.1Zm-6.29-74.94V94.84H191.4A7.31,7.31,0,0,0,190,92.15l-20.51-20.5A7,7,0,0,0,166.77,70.21Z"/></svg>