<svg id="OBJECTS" xmlns="http://www.w3.org/2000/svg" viewBox="0 0 299.99 299.99"><defs><style>.cls-1{fill:none;stroke:#fff;stroke-width:7.04px;}.cls-1,.cls-3,.cls-4,.cls-5{stroke-miterlimit:10;}.cls-2{fill:#325a00;}.cls-3{fill:#e2ffd9;}.cls-3,.cls-4,.cls-5{stroke:#2eff3e;}.cls-4{fill:#b0ffb8;}.cls-5{fill:ivory;}</style></defs><title>1</title><rect class="cls-1" x="-555.11" y="-199.08" width="2757.47" height="719.42"/><path class="cls-2" d="M117.38,83.62A10.35,10.35,0,1,0,107,73.28,10.35,10.35,0,0,0,117.38,83.62Z"/><path class="cls-2" d="M137.63,130.86h-.94v-1.54a5.42,5.42,0,0,0,2.33-2.47c0-10.67-.18-32.33-.22-32.5-1.28-5.39-4.74-8.8-9.78-9.68l-.1,0h0c-2.15,0-19.57,0-21,0a17,17,0,0,0-2.42.21c-5.1.86-8.6,4.29-9.89,9.7,0,.17-.22,21.83-.22,32.5.7,1.19,1.44,2.32,2.91,2.68a4.05,4.05,0,0,0,5.28-3.72,17.76,17.76,0,0,0,0-1.93V99.52h1.88v70.67a15.25,15.25,0,0,0,.23,3c.41,2,2,3.06,3.73,3.86h2.76c3.21-1.12,4.25-3.45,4.23-6.72-.09-13,0-25.95,0-38.91v-1.7h1.89v1.67c0,12.92.06,25.84,0,38.77,0,3.32,1,5.7,4.19,6.89h2.76c3.2-1.16,4.14-3.58,4.13-6.81q0-15.15,0-30.31V99.27h1.49v24.6a17.71,17.71,0,0,0,0,1.93,4,4,0,0,0,3.08,3.77v1.29H133a3.08,3.08,0,0,0-2.91,3.23v21.37a3.07,3.07,0,0,0,2.91,3.22h4.66a3.07,3.07,0,0,0,2.91-3.22V134.09A3.08,3.08,0,0,0,137.63,130.86ZM117.29,85.79h2.52l-1.44,3.73h-2l-1.45-3.73Zm.09,24.46-2.66-2.16,1.69-16.9h1.94l1.69,16.9Z"/><path class="cls-2" d="M181.43,83.62a10.35,10.35,0,1,0-10.34-10.34A10.35,10.35,0,0,0,181.43,83.62Z"/><path class="cls-2" d="M201.69,130.86h-.94v-1.54a5.49,5.49,0,0,0,2.34-2.47c0-10.67-.19-32.33-.23-32.5-1.28-5.39-4.74-8.8-9.78-9.68l-.1,0h0c-2.16,0-19.57,0-21,0a17.3,17.3,0,0,0-2.43.21c-5.1.86-8.59,4.29-9.88,9.7,0,.17-.23,21.83-.23,32.5.71,1.19,1.44,2.32,2.92,2.68a4.05,4.05,0,0,0,5.28-3.72,17.76,17.76,0,0,0,0-1.93V99.52h1.87v1.82q0,34.44,0,68.85a16,16,0,0,0,.23,3c.41,2,2,3.06,3.73,3.86h2.77c3.2-1.12,4.24-3.45,4.22-6.72-.09-13,0-25.95,0-38.91v-1.7h1.88v1.67c0,12.92.07,25.84,0,38.77,0,3.32,1,5.7,4.19,6.89h2.76c3.2-1.16,4.13-3.58,4.13-6.81q0-15.15,0-30.31V99.27h1.49v24.6c0,.65,0,1.29,0,1.93a4,4,0,0,0,3.09,3.77v1.29H197a3.08,3.08,0,0,0-2.92,3.23v21.37a3.08,3.08,0,0,0,2.92,3.22h4.65a3.07,3.07,0,0,0,2.91-3.22V134.09A3.08,3.08,0,0,0,201.69,130.86ZM181.35,85.79h2.52l-1.44,3.73h-2L179,85.79Zm.08,24.46-2.65-2.16,1.69-16.9h1.94l1.68,16.9Z"/><polygon class="cls-3" points="255.6 298.89 0.26 298.89 -0.44 267.91 0.26 238.94 255.6 238.94 255.6 298.89"/><polygon class="cls-4" points="299.59 298.89 56.34 298.89 69.64 267.91 56.34 238.94 299.59 238.94 299.59 298.89"/><polygon class="cls-5" points="299.59 298.89 116.9 298.89 130.21 267.91 116.9 238.94 299.59 238.94 299.59 298.89"/><polygon class="cls-5" points="299.59 298.89 177.84 298.89 191.14 267.91 177.84 238.94 299.59 238.94 299.59 298.89"/><polygon class="cls-5" points="299.59 298.89 238.03 298.89 251.34 267.91 238.03 238.94 299.59 238.94 299.59 298.89"/></svg>