<svg id="OBJECTS" xmlns="http://www.w3.org/2000/svg" viewBox="0 0 299.99 299.99"><defs><style>.cls-1{fill:none;stroke:#fff;stroke-width:7.04px;}.cls-1,.cls-3,.cls-4,.cls-5,.cls-6{stroke-miterlimit:10;}.cls-2{fill:#325a00;}.cls-3{fill:#e2ffd9;}.cls-3,.cls-4,.cls-5,.cls-6{stroke:#2eff3e;}.cls-4{fill:#b0ffb8;}.cls-5{fill:#4dff5c;}.cls-6{fill:ivory;}</style></defs><title>1</title><rect class="cls-1" x="-879.12" y="-199.08" width="2757.47" height="719.42"/><path class="cls-2" d="M115.42,83.6a10.35,10.35,0,1,0-10.35-10.35A10.35,10.35,0,0,0,115.42,83.6Z"/><path class="cls-2" d="M137,108.87c-.06-10.35-.17-14.42-.2-14.55-1.28-5.38-4.74-8.79-9.78-9.68H127c-2.15,0-19.57,0-21,0a15.94,15.94,0,0,0-2.44.21c-5.09.85-8.59,4.28-9.87,9.7,0,.17-.23,21.83-.23,32.5.85,1.45,1.75,2.81,4,2.79a4.32,4.32,0,0,0,3.13-1.37c1.29-1.4,1.13-2.89,1.13-4.4V99.5h1.86v1.82q0,34.43,0,68.85a15.88,15.88,0,0,0,.23,3c.39,2,1.84,3,3.5,3.76l2.87.15c3.3-1.1,4.37-3.45,4.35-6.77-.09-13,0-25.94,0-38.91v-1.7h1.88v1.67c0,12.93.07,25.85,0,38.77,0,3.31.95,5.69,4.15,6.88h2.8c3.2-1.15,4.14-3.57,4.14-6.8q0-15.15,0-30.31V99.24h1.49v17.21l0,.7a2.28,2.28,0,0,0,2.28,2.27h8.47a2.81,2.81,0,0,0,2.82-2.81v-1.24a2.81,2.81,0,0,0-2.82-2.81h-.39a2.16,2.16,0,0,1-2.16-2.15Zm-21.7-23.1h2.52l-1.44,3.73h-2L113,85.77Zm.08,24.45-2.66-2.15,1.69-16.9h1.94l1.69,16.9Z"/><path class="cls-2" d="M184.57,83.6a10.35,10.35,0,1,1,10.35-10.35A10.35,10.35,0,0,1,184.57,83.6Z"/><path class="cls-2" d="M162.94,110.41a2.16,2.16,0,0,1-2.16,2.15h-.39a2.81,2.81,0,0,0-2.82,2.81v1.24a2.81,2.81,0,0,0,2.82,2.81h8.47a2.3,2.3,0,0,0,2.29-2.27V99.24h1.49v40.69q0,15.15,0,30.31c0,3.23.94,5.65,4.14,6.8h2.8c3.2-1.19,4.18-3.57,4.15-6.88-.11-12.92,0-25.84,0-38.77v-1.67h1.88v1.7c0,13,.05,25.94,0,38.91,0,3.32,1.05,5.67,4.35,6.77l2.87-.15c1.66-.78,3.11-1.8,3.5-3.76a15.88,15.88,0,0,0,.23-3q0-34.42,0-68.85V99.5h1.87v24.6c0,1.51-.17,3,1.12,4.4a4.32,4.32,0,0,0,3.13,1.37c2.23,0,3.13-1.34,4-2.79,0-10.67-.18-32.33-.22-32.5-1.29-5.42-4.79-8.85-9.88-9.7a15.92,15.92,0,0,0-2.43-.21c-1.43,0-18.85,0-21,0h-.1c-5,.89-8.5,4.3-9.78,9.68,0,.13-.14,4.2-.19,14.55ZM187,85.77l-1.45,3.73h-2l-1.44-3.73H187Zm-5.1,22.3,1.69-16.9h1.94l1.69,16.9-2.66,2.15Z"/><path class="cls-2" d="M154.17,100.7h-7.92a5.61,5.61,0,0,0-5.6,5.59v13.06a5.62,5.62,0,0,0,5.6,5.6h7.92a5.62,5.62,0,0,0,5.6-5.6V106.29A5.61,5.61,0,0,0,154.17,100.7Zm1.58,20.08h-10.3a1.19,1.19,0,0,1,0-2.38h10.3a1.19,1.19,0,0,1,0,2.38Zm0-4.57h-10.3a1.2,1.2,0,0,1,0-2.39h10.3a1.2,1.2,0,0,1,0,2.39Zm0-4.58h-10.3a1.19,1.19,0,0,1,0-2.38h10.3a1.19,1.19,0,0,1,0,2.38Zm0-4.57h-10.3a1.19,1.19,0,0,1,0-2.38h10.3a1.19,1.19,0,0,1,0,2.38Z"/><polygon class="cls-3" points="255.6 298.89 0.26 298.89 -0.44 267.91 0.26 238.94 255.6 238.94 255.6 298.89"/><polygon class="cls-4" points="299.59 298.89 56.34 298.89 69.64 267.91 56.34 238.94 299.59 238.94 299.59 298.89"/><polygon class="cls-5" points="299.59 298.89 116.9 298.89 130.21 267.91 116.9 238.94 299.59 238.94 299.59 298.89"/><polygon class="cls-6" points="299.59 298.89 177.84 298.89 191.14 267.91 177.84 238.94 299.59 238.94 299.59 298.89"/><polygon class="cls-6" points="299.59 298.89 238.03 298.89 251.34 267.91 238.03 238.94 299.59 238.94 299.59 298.89"/></svg>