<svg id="OBJECTS" xmlns="http://www.w3.org/2000/svg" viewBox="0 0 299.99 299.99"><defs><style>.cls-1{fill:none;stroke:#fff;stroke-width:7.04px;}.cls-1,.cls-3,.cls-4,.cls-5,.cls-6,.cls-7{stroke-miterlimit:10;}.cls-2{fill:#325a00;}.cls-3{fill:#e2ffd9;}.cls-3,.cls-4,.cls-5,.cls-6,.cls-7{stroke:#2eff3e;}.cls-4{fill:#b0ffb8;}.cls-5{fill:#4dff5c;}.cls-6{fill:#32bb00;}.cls-7{fill:ivory;}</style></defs><title>1</title><rect class="cls-1" x="-1203.12" y="-199.08" width="2757.47" height="719.42"/><path class="cls-2" d="M118.6,154.67v-.62h.73v27.79a6.63,6.63,0,0,0,.09,1.18,2.18,2.18,0,0,0,1.47,1.52H122a2.41,2.41,0,0,0,1.66-2.64c0-5.1,0-10.2,0-15.3v-.67h.74v.66c0,5.08,0,10.16,0,15.24a2.47,2.47,0,0,0,1.64,2.71h1.09a2.45,2.45,0,0,0,1.62-2.67q0-13.53,0-27.07v-.73h.71v.64c0,3.06,0,6.11,0,9.16a4.77,4.77,0,0,0,0,.76,1.48,1.48,0,0,0,1.69,1.37,1.5,1.5,0,0,0,1.47-1.57c0-2.53,0-5.06,0-7.58,0-1.21,0-2.43,0-3.64a4.81,4.81,0,0,0-4.89-5l-2.69,0v.42l-.58,1.17-.08.23.55,9.46-1,1.09h0l-1-1.09.55-9.46-.08-.23-.58-1.17v-.42h-2.54a4.74,4.74,0,0,0-4.85,3.9,1,1,0,0,1-.08.19V164.9a1.88,1.88,0,0,0,1.14,1,1.6,1.6,0,0,0,2.08-1.46,6.43,6.43,0,0,0,0-.76Q118.6,159.2,118.6,154.67Z"/><path class="cls-2" d="M123.62,147.41a3.73,3.73,0,0,0,3.79-2.24,3.62,3.62,0,0,0-1.11-4.29,9.78,9.78,0,0,0-1.61-.83h-1.41c-.16.07-.31.15-.48.21a3.71,3.71,0,0,0-2.41,4.22A3.76,3.76,0,0,0,123.62,147.41Z"/><path class="cls-2" d="M144.61,154.67v-.62h.73v27.79a6.63,6.63,0,0,0,.09,1.18,2.2,2.2,0,0,0,1.47,1.52H148a2.41,2.41,0,0,0,1.66-2.64c0-5.1,0-10.2,0-15.3v-.67h.74v.66c0,5.08,0,10.16,0,15.24a2.47,2.47,0,0,0,1.64,2.71h1.09a2.44,2.44,0,0,0,1.62-2.67q0-13.53,0-27.07v-.73h.71v9.8a4.77,4.77,0,0,0,.05.76,1.59,1.59,0,0,0,3.16-.2c0-2.53,0-5.06,0-7.58,0-1.21,0-2.43,0-3.64a4.81,4.81,0,0,0-4.89-5l-2.69,0v.42l-.57,1.17-.1.23.56,9.46-1,1.09h0l-1-1.09.56-9.46-.09-.23-.58-1.17v-.42H146.3a4.73,4.73,0,0,0-4.84,3.9c0,.06-.06.12-.09.19V164.9a1.88,1.88,0,0,0,1.14,1,1.6,1.6,0,0,0,2.08-1.46,6.43,6.43,0,0,0,0-.76Z"/><path class="cls-2" d="M149.63,147.41a3.73,3.73,0,0,0,3.79-2.24,3.62,3.62,0,0,0-1.11-4.29,9.78,9.78,0,0,0-1.61-.83h-1.41c-.16.07-.31.15-.48.21a3.71,3.71,0,0,0-2.41,4.22A3.76,3.76,0,0,0,149.63,147.41Z"/><path class="cls-2" d="M170.62,154.67v-.62h.73v.72q0,13.53,0,27.07a5.81,5.81,0,0,0,.09,1.18,2.17,2.17,0,0,0,1.46,1.52H174a2.41,2.41,0,0,0,1.67-2.64c0-5.1,0-10.2,0-15.3v-.67h.75v.66c0,5.08,0,10.16,0,15.24a2.46,2.46,0,0,0,1.64,2.71h1.09a2.44,2.44,0,0,0,1.62-2.67q0-13.53,0-27.07v-.73h.71v.64c0,3.06,0,6.11,0,9.16a6.34,6.34,0,0,0,0,.76,1.59,1.59,0,0,0,3.17-.2c0-2.53,0-5.06,0-7.58,0-1.21,0-2.43,0-3.64a4.81,4.81,0,0,0-4.89-5l-2.69,0v.42l-.57,1.17-.09.23.55,9.46-1,1.09h0l-1-1.09.56-9.46-.09-.23-.58-1.17v-.42h-2.54a4.74,4.74,0,0,0-4.85,3.9,1,1,0,0,1-.08.19V164.9a1.88,1.88,0,0,0,1.14,1,1.6,1.6,0,0,0,2.08-1.46,6.43,6.43,0,0,0,0-.76Z"/><path class="cls-2" d="M175.64,147.41a3.73,3.73,0,0,0,3.79-2.24,3.62,3.62,0,0,0-1.11-4.29,9.78,9.78,0,0,0-1.61-.83H175.3c-.16.07-.31.15-.48.21a3.71,3.71,0,0,0-2.41,4.22A3.76,3.76,0,0,0,175.64,147.41Z"/><path class="cls-2" d="M141,80v-1h1.23v46.55a10.1,10.1,0,0,0,.15,2,3.67,3.67,0,0,0,2.46,2.55h1.82c2.11-.73,2.8-2.27,2.78-4.43,0-8.54,0-17.08,0-25.63V98.82h1.24v1.1c0,8.52,0,17,0,25.54,0,2.19.63,3.76,2.76,4.54h1.82c2.11-.76,2.73-2.36,2.72-4.48,0-15.11,0-30.23,0-45.34V78.94h1.18V80q0,7.68,0,15.35a8.93,8.93,0,0,0,.07,1.27,2.66,2.66,0,0,0,5.3-.33c0-4.24,0-8.48,0-12.72,0-2,0-4.06,0-6.09a8,8,0,0,0-8.19-8.33c-1.5,0-3,0-4.51,0v.7l-1,2-.15.4L151.56,88l-1.63,1.83,0,0,0,0L148.25,88l.92-15.84-.15-.4-1-2v-.71c-1.42,0-2.84,0-4.26,0a7.91,7.91,0,0,0-8.11,6.52,1.57,1.57,0,0,1-.15.32v21.1a3.18,3.18,0,0,0,1.92,1.76,2.68,2.68,0,0,0,3.48-2.45c0-.43,0-.85,0-1.28Z"/><path class="cls-2" d="M149.38,67.78A6.23,6.23,0,0,0,155.73,64a6,6,0,0,0-1.85-7.18,15.34,15.34,0,0,0-2.7-1.4h-2.37a7.17,7.17,0,0,1-.8.35,6.23,6.23,0,0,0-4,7.08A6.3,6.3,0,0,0,149.38,67.78Z"/><path class="cls-2" d="M193.31,155.84A2.33,2.33,0,0,1,191,153.5V136.3H109v17.2a2.34,2.34,0,1,1-4.67,0V134a2.33,2.33,0,0,1,2.33-2.33h86.64a2.33,2.33,0,0,1,2.34,2.33V153.5A2.34,2.34,0,0,1,193.31,155.84Z"/><path class="cls-2" d="M178.35,117h0a1.45,1.45,0,0,0,.35,0l.1,0,.23-.07.11-.06.19-.13a.34.34,0,0,0,.12-.09l.07,0,.09-.11.07-.07,5-6.4a1.68,1.68,0,1,0-2.65-2.07l-3.8,4.88-1.77-1.81a1.68,1.68,0,1,0-2.41,2.34l3.11,3.2.09.08s.05.06.09.08l.05,0,.1.06.18.1.1,0a.83.83,0,0,0,.21.06l.09,0Z"/><path class="cls-2" d="M180.84,104.07a1.41,1.41,0,1,0-1.41,1.41A1.41,1.41,0,0,0,180.84,104.07Z"/><path class="cls-2" d="M169.07,112.69a1.42,1.42,0,1,0,1.41-1.41A1.41,1.41,0,0,0,169.07,112.69Z"/><path class="cls-2" d="M187.62,114.09a1.41,1.41,0,1,0-1.41-1.41A1.41,1.41,0,0,0,187.62,114.09Z"/><path class="cls-2" d="M189.49,101.05a15.3,15.3,0,1,0,5.42,11.68A15.55,15.55,0,0,0,189.49,101.05Zm-10.2,23.31a11.64,11.64,0,1,1,11.77-11.63A11.79,11.79,0,0,1,179.29,124.36Z"/><path class="cls-2" d="M179.43,122.71A1.41,1.41,0,1,0,178,121.3,1.41,1.41,0,0,0,179.43,122.71Z"/><polygon class="cls-3" points="255.6 298.89 0.26 298.89 -0.44 267.91 0.26 238.94 255.6 238.94 255.6 298.89"/><polygon class="cls-4" points="299.59 298.89 56.34 298.89 69.64 267.91 56.34 238.94 299.59 238.94 299.59 298.89"/><polygon class="cls-5" points="299.59 298.89 116.9 298.89 130.21 267.91 116.9 238.94 299.59 238.94 299.59 298.89"/><polygon class="cls-6" points="299.59 298.89 177.84 298.89 191.14 267.91 177.84 238.94 299.59 238.94 299.59 298.89"/><polygon class="cls-7" points="299.59 298.89 238.03 298.89 251.34 267.91 238.03 238.94 299.59 238.94 299.59 298.89"/></svg>