<svg id="OBJECTS" xmlns="http://www.w3.org/2000/svg" viewBox="0 0 299.99 299.99"><defs><style>.cls-1{fill:none;stroke:#fff;stroke-width:7.04px;}.cls-1,.cls-3,.cls-4,.cls-5,.cls-6,.cls-7{stroke-miterlimit:10;}.cls-2,.cls-7{fill:#325a00;}.cls-3{fill:#e2ffd9;}.cls-3,.cls-4,.cls-5,.cls-6,.cls-7{stroke:#2eff3e;}.cls-4{fill:#b0ffb8;}.cls-5{fill:#4dff5c;}.cls-6{fill:#32bb00;}</style></defs><title>1</title><rect class="cls-1" x="-1527.13" y="-199.08" width="2757.47" height="719.42"/><path class="cls-2" d="M95.24,170.61c8.19,0,14.83-2.66,14.83-5.93v5.93c0,3.27-6.64,5.93-14.83,5.93s-14.83-2.66-14.83-5.93v-5.93C80.41,168,87.05,170.61,95.24,170.61Z"/><path class="cls-2" d="M210.3,94.14V92.38h-2.11v2.05q0,38.79,0,77.58a17.42,17.42,0,0,1-.25,3.39c-.46,2.32-2.23,3.46-4.21,4.35h-3.11c-3.61-1.25-4.79-3.88-4.76-7.57.1-14.61,0-29.23,0-43.84v-1.92h-2.12v1.89c0,14.56-.07,29.12,0,43.68,0,3.74-1.07,6.44-4.72,7.76H186c-3.61-1.3-4.67-4-4.66-7.66.07-25.85,0-51.7,0-77.55V92.42c-.35-.82-.79-5.2-1.08-6.52-1,.56-1.67.92-1.68.91l-1.61.9L154.06,100.5a18.44,18.44,0,0,1-2,.93,4.55,4.55,0,0,1-3.92-8.18c6.32-3.56,12.66-7.08,19-10.61,3-1.69,6-3.4,9.09-5.06A14.76,14.76,0,0,1,185,75.69l6.9-.06v1.21l1.65,3.34.26.69L192.18,108,195,111.1l0,0,0,0,2.79-3.14-1.58-27.09.26-.69,1.64-3.34V75.63q3.65,0,7.3,0c7.23.07,12.19,4.14,13.87,11.17a2.92,2.92,0,0,0,.25.54v36.08c-.79,1.34-1.62,2.61-3.28,3a4.57,4.57,0,0,1-6-4.19c-.07-.73,0-1.45,0-2.18Z"/><path class="cls-2" d="M193.92,73.33a10.61,10.61,0,0,1-10.85-6.42,10.29,10.29,0,0,1,3.16-12.28,26.78,26.78,0,0,1,4.61-2.39h4c.45.2.9.45,1.37.61a10.64,10.64,0,0,1,6.92,12.09A10.76,10.76,0,0,1,193.92,73.33Z"/><path class="cls-2" d="M160.56,148.37c8.19,0,14.83-2.65,14.83-5.93v5.93c0,3.28-6.64,5.93-14.83,5.93s-14.83-2.65-14.83-5.93v-5.93C145.73,145.72,152.38,148.37,160.56,148.37Z"/><path class="cls-2" d="M160.56,156.09c8.19,0,14.83-2.65,14.83-5.93v5.93c0,3.28-6.64,5.93-14.83,5.93s-14.83-2.65-14.83-5.93v-5.93C145.73,153.44,152.38,156.09,160.56,156.09Z"/><path class="cls-2" d="M160.56,163.81c8.19,0,14.83-2.65,14.83-5.93v5.93c0,3.28-6.64,5.94-14.83,5.94s-14.83-2.66-14.83-5.94v-5.93C145.73,161.16,152.38,163.81,160.56,163.81Z"/><path class="cls-2" d="M160.56,171.53c8.19,0,14.83-2.65,14.83-5.93v5.93c0,3.28-6.64,5.93-14.83,5.93s-14.83-2.65-14.83-5.93V165.6C145.73,168.88,152.38,171.53,160.56,171.53Z"/><path class="cls-2" d="M145.73,134.77v5.93c0,3.27,6.65,5.93,14.83,5.93s14.83-2.66,14.83-5.93v-5.93c0-3.28-6.64-5.93-14.83-5.93S145.73,131.49,145.73,134.77Zm1.49,0c0-1.82,5.2-4.45,13.34-4.45s13.35,2.63,13.35,4.45-5.2,4.45-13.35,4.45S147.22,136.59,147.22,134.76Z"/><path class="cls-2" d="M159.43,134.09c1.72-.28,2.43-.46,2.43-.74s-.42-.48-1.74-.48a13.75,13.75,0,0,0-2.9.3l-.58-1a14.14,14.14,0,0,1,2.92-.29v-.76h2V132c2.15.19,3.4.77,3.4,1.53s-1.47,1.27-3.62,1.57c-1.5.22-2.14.43-2.14.75s.78.54,1.94.54a14.86,14.86,0,0,0,3.34-.38l.61,1a18.53,18.53,0,0,1-3.43.37v.81h-2v-.87c-2.31-.18-3.58-.83-3.58-1.6S157,134.45,159.43,134.09Z"/><path class="cls-2" d="M127.79,156.09c8.19,0,14.83-2.66,14.83-5.93v5.93c0,3.27-6.64,5.93-14.83,5.93S113,159.36,113,156.09v-5.93C113,153.43,119.61,156.09,127.79,156.09Z"/><path class="cls-2" d="M127.79,163.81c8.19,0,14.83-2.66,14.83-5.93v5.93c0,3.27-6.64,5.93-14.83,5.93S113,167.08,113,163.81v-5.93C113,161.15,119.61,163.81,127.79,163.81Z"/><path class="cls-2" d="M127.79,171.53c8.19,0,14.83-2.66,14.83-5.93v5.93c0,3.28-6.64,5.93-14.83,5.93S113,174.81,113,171.53V165.6C113,168.87,119.61,171.53,127.79,171.53Z"/><path class="cls-2" d="M113,142.49v5.92c0,3.28,6.65,5.93,14.83,5.93s14.83-2.65,14.83-5.93v-5.92c0-3.28-6.64-5.94-14.83-5.94S113,139.21,113,142.49Zm1.49,0c0-1.81,5.19-4.45,13.34-4.45s13.35,2.64,13.35,4.45-5.2,4.45-13.35,4.45S114.45,144.29,114.45,142.48Z"/><path class="cls-2" d="M126.66,141.8c1.71-.28,2.42-.45,2.42-.73s-.42-.49-1.73-.49a14.72,14.72,0,0,0-2.9.29l-.59-1a16,16,0,0,1,2.93-.28v-.76h2v.81c2.16.19,3.41.78,3.41,1.54s-1.47,1.26-3.63,1.57c-1.49.22-2.13.43-2.13.75s.78.53,1.94.53a15.07,15.07,0,0,0,3.34-.37l.6,1a16.75,16.75,0,0,1-3.42.37v.82h-2V145c-2.31-.17-3.59-.83-3.59-1.6S124.26,142.16,126.66,141.8Z"/><path class="cls-2" d="M80.41,157v5.93c0,3.28,6.64,5.93,14.83,5.93s14.83-2.65,14.83-5.93V157c0-3.28-6.64-5.93-14.83-5.93S80.41,153.73,80.41,157Zm1.49,0c0-1.81,5.19-4.45,13.34-4.45s13.35,2.64,13.35,4.45-5.2,4.45-13.35,4.45S81.9,158.82,81.9,157Z"/><path class="cls-2" d="M94.11,156.32c1.72-.27,2.42-.45,2.42-.73s-.42-.49-1.73-.49a14.49,14.49,0,0,0-2.9.3l-.59-1a16,16,0,0,1,2.93-.28v-.76h2v.82c2.16.19,3.41.78,3.41,1.53S98.15,157,96,157.31c-1.49.21-2.13.42-2.13.75s.78.53,1.93.53a15,15,0,0,0,3.35-.38l.6,1a17.38,17.38,0,0,1-3.42.38v.81h-2v-.88c-2.31-.17-3.58-.82-3.58-1.59S91.71,156.69,94.11,156.32Z"/><polygon class="cls-3" points="255.6 298.89 0.26 298.89 -0.44 267.91 0.26 238.94 255.6 238.94 255.6 298.89"/><polygon class="cls-4" points="299.59 298.89 56.34 298.89 69.64 267.91 56.34 238.94 299.59 238.94 299.59 298.89"/><polygon class="cls-5" points="299.59 298.89 116.9 298.89 130.21 267.91 116.9 238.94 299.59 238.94 299.59 298.89"/><polygon class="cls-6" points="299.59 298.89 177.84 298.89 191.14 267.91 177.84 238.94 299.59 238.94 299.59 298.89"/><polygon class="cls-7" points="299.59 298.89 238.03 298.89 251.34 267.91 238.03 238.94 299.59 238.94 299.59 298.89"/></svg>