<?xml version="1.0" encoding="utf-8"?>
<!-- Generator: Adobe Illustrator 22.1.0, SVG Export Plug-In . SVG Version: 6.00 Build 0)  -->
<svg version="1.1" id="OBJECTS" xmlns="http://www.w3.org/2000/svg" xmlns:xlink="http://www.w3.org/1999/xlink" x="0px" y="0px"
	 viewBox="0 0 300 300" style="enable-background:new 0 0 300 300;" xml:space="preserve">
<style type="text/css">
	.st0{fill:#004073;}
</style>
<title>1</title>
<path class="st0" d="M222.4,99.6c4,4.4,6.3,10.1,6.6,16v112.5c0,5.2-4.2,9.4-9.3,9.4c0,0-0.1,0-0.1,0H88.4c-5.2,0-9.4-4.2-9.4-9.3
	c0,0,0,0,0,0V71.9c0-5.2,4.2-9.4,9.3-9.4c0,0,0,0,0,0h87.5c3,0.1,5.9,0.7,8.6,2c2.8,1.1,5.3,2.6,7.5,4.7L222.4,99.6z M216.5,225V125
	h-40.6c-5.2,0-9.4-4.2-9.4-9.3c0,0,0,0,0-0.1V75h-75v150H216.5z M116.5,140.6c0-0.8,0.3-1.7,0.9-2.3c0.6-0.6,1.4-0.9,2.2-0.9h68.8
	c0.8,0,1.6,0.3,2.2,0.9c0.6,0.6,0.9,1.4,0.9,2.3v6.2c0.1,1.6-1.2,3-2.8,3.1c-0.1,0-0.2,0-0.3,0h-68.8c-1.6,0.1-3-1.2-3.1-2.8
	c0-0.1,0-0.2,0-0.3L116.5,140.6z M188.4,162.5c1.6-0.1,3,1.2,3.1,2.8c0,0.1,0,0.2,0,0.3v6.2c0.1,1.6-1.2,3-2.8,3.1
	c-0.1,0-0.2,0-0.3,0h-68.8c-1.6,0.1-3-1.2-3.1-2.8c0-0.1,0-0.2,0-0.3v-6.2c-0.1-1.6,1.2-3,2.8-3.1c0.1,0,0.2,0,0.3,0H188.4z
	 M188.4,187.5c1.6-0.1,3,1.2,3.1,2.8c0,0.1,0,0.2,0,0.3v6.2c0.1,1.6-1.2,3-2.8,3.1c-0.1,0-0.2,0-0.3,0h-68.8c-1.6,0.1-3-1.2-3.1-2.8
	c0-0.1,0-0.2,0-0.3v-6.2c-0.1-1.6,1.2-3,2.8-3.1c0.1,0,0.2,0,0.3,0H188.4z M179,75.8v36.7h36.7c-0.4-1.5-1.1-2.8-2.1-4l-30.6-30.6
	C181.9,76.9,180.5,76.2,179,75.8z"/>
</svg>
