<?xml version="1.0" encoding="utf-8"?>
<!-- Generator: Adobe Illustrator 22.1.0, SVG Export Plug-In . SVG Version: 6.00 Build 0)  -->
<svg version="1.1" id="OBJECTS" xmlns="http://www.w3.org/2000/svg" xmlns:xlink="http://www.w3.org/1999/xlink" x="0px" y="0px"
	 viewBox="0 0 300 300" style="enable-background:new 0 0 300 300;" xml:space="preserve">
<style type="text/css">
	.st0{fill:#004073;}
</style>
<title>1</title>
<path class="st0" d="M101.3,93.1c9.4,0,17-7.7,17-17.1c0-9.4-7.7-17-17.1-17c-9.4,0-17,7.7-17,17C84.3,85.5,91.9,93.2,101.3,93.1
	C101.3,93.1,101.3,93.1,101.3,93.1z"/>
<path class="st0" d="M134.7,170.9h-1.5v-2.5c1.7-0.9,3-2.3,3.8-4.1c0-17.6-0.3-53.2-0.4-53.5c-2.1-8.9-7.8-14.5-16.1-15.9h-0.2l0,0
	c-3.5,0-32.2,0-34.6,0c-1.3,0-2.7,0.1-4,0.3c-8.4,1.4-14.2,7.1-16.3,16c0,0.3-0.4,35.9-0.4,53.5c1.2,2,2.4,3.8,4.8,4.4
	c3.5,1.1,7.3-0.8,8.4-4.3c0.2-0.6,0.3-1.2,0.3-1.8c0.1-1.1,0.1-2.1,0-3.2v-40.5h3.1v116.3c0,1.7,0.1,3.3,0.4,4.9
	c0.7,3.3,3.3,5,6.1,6.4h4.5c5.3-1.8,7-5.7,7-11.1c-0.1-21.4,0-42.7,0-64V169h3.1v2.7c0,21.3,0.1,42.5,0,63.8c0,5.5,1.6,9.4,6.9,11.3
	h4.5c5.3-1.9,6.8-5.9,6.8-11.2c0-16.6,0-33.2,0-49.9v-66.9h2.5v40.5c-0.1,1.1-0.1,2.1,0,3.2c0.1,3,2.2,5.5,5.1,6.2v2.1H127
	c-2.8,0.2-4.9,2.5-4.8,5.3v35.2c-0.1,2.8,2,5.2,4.8,5.3h7.7c2.8-0.1,4.9-2.5,4.8-5.3v-35.2C139.6,173.4,137.5,171,134.7,170.9
	C134.7,170.9,134.7,170.9,134.7,170.9z M101.2,96.7h4.1l-2.4,6.1h-3.3l-2.4-6.1H101.2z M101.3,137l-4.4-3.6l2.8-27.8h3.2l2.8,27.8
	L101.3,137z"/>
<path class="st0" d="M206.7,93.1c9.4,0,17-7.6,17-17s-7.6-17-17-17c-9.4,0-17,7.6-17,17c0,0,0,0,0,0
	C189.7,85.5,197.3,93.1,206.7,93.1z"/>
<path class="st0" d="M240.1,170.9h-1.5v-2.5c1.7-0.9,3-2.3,3.9-4.1c0-17.6-0.3-53.2-0.4-53.5c-2.1-8.9-7.8-14.5-16.1-15.9h-0.2l0,0
	c-3.6,0-32.2,0-34.6,0c-1.3,0-2.7,0.1-4,0.3c-8.4,1.4-14.1,7.1-16.3,16c0,0.3-0.4,35.9-0.4,53.5c1.2,2,2.4,3.8,4.8,4.4
	c3.5,1.1,7.3-0.8,8.4-4.3c0.2-0.6,0.3-1.2,0.3-1.8c0.1-1.1,0.1-2.1,0-3.2v-40.5h3.1v3c0,37.8,0,75.5,0,113.3c0,1.7,0.1,3.3,0.4,4.9
	c0.7,3.3,3.3,5,6.1,6.4h4.6c5.3-1.8,7-5.7,6.9-11.1c-0.1-21.4,0-42.7,0-64V169h3.1v2.7c0,21.3,0.1,42.5,0,63.8
	c0,5.5,1.6,9.4,6.9,11.3h4.5c5.3-1.9,6.8-5.9,6.8-11.2c0-16.6,0-33.2,0-49.9v-66.9h2.5v40.5c0,1.1,0,2.1,0,3.2
	c0.1,3,2.2,5.5,5.1,6.2v2.1h-1.6c-2.8,0.1-4.9,2.5-4.8,5.3v35.2c-0.1,2.8,2,5.2,4.8,5.3h7.7c2.8-0.1,4.9-2.5,4.8-5.3v-35.2
	C244.9,173.4,242.8,171.1,240.1,170.9z M206.6,96.7h4.1l-2.4,6.1h-3.3l-2.4-6.1H206.6z M206.7,137l-4.4-3.6l2.8-27.8h3.2l2.8,27.8
	L206.7,137z"/>
</svg>
