<?xml version="1.0" encoding="utf-8"?>
<!-- Generator: Adobe Illustrator 22.1.0, SVG Export Plug-In . SVG Version: 6.00 Build 0)  -->
<svg version="1.1" id="OBJECTS" xmlns="http://www.w3.org/2000/svg" xmlns:xlink="http://www.w3.org/1999/xlink" x="0px" y="0px"
	 viewBox="0 0 300 300" style="enable-background:new 0 0 300 300;" xml:space="preserve">
<style type="text/css">
	.st0{fill:#004073;}
</style>
<title>1</title>
<path class="st0" d="M101.8,103.9c8.8,0,16-7.2,16-16c0-8.8-7.2-16-16-16c-8.8,0-16,7.2-16,16l0,0C85.8,96.7,92.9,103.9,101.8,103.9
	z"/>
<path class="st0" d="M135.1,143c-0.1-16-0.3-22.3-0.3-22.5c-2-8.3-7.3-13.6-15.1-15h0c-3.3,0-30.3,0-32.5,0c-1.3,0-2.5,0.1-3.8,0.3
	c-7.9,1.3-13.3,6.6-15.3,15c0,0.3-0.4,33.8-0.4,50.2c1.3,2.2,2.7,4.3,6.2,4.3c1.8,0,3.6-0.8,4.8-2.1c2-2.2,1.7-4.5,1.7-6.8v-38h2.9
	v2.8c0,35.5,0,71,0,106.4c0,1.6,0.1,3.1,0.4,4.6c0.6,3.1,2.8,4.6,5.4,5.8l4.4,0.2c5.1-1.7,6.8-5.3,6.7-10.5c-0.1-20.1,0-40.1,0-60.2
	v-2.6h2.9v2.6c0,20,0.1,40,0,59.9c0,5.1,1.5,8.8,6.4,10.6h4.3c4.9-1.8,6.4-5.5,6.4-10.5c0-15.6,0-31.2,0-46.9v-62.9h2.3v26.6v1.1
	c0,1.9,1.6,3.5,3.5,3.5h13.1c2.4,0,4.4-1.9,4.4-4.3c0,0,0,0,0,0V153c0-2.4-1.9-4.3-4.3-4.3c0,0,0,0,0,0h-0.6c-1.8,0-3.3-1.5-3.3-3.3
	L135.1,143z M101.6,107.2h3.9l-2.2,5.8h-3.1l-2.1-5.8L101.6,107.2z M101.7,145l-4.1-3.3l2.6-26.1h3l2.6,26.1L101.7,145z"/>
<path class="st0" d="M208.7,103.9c-8.8,0-16-7.2-16-16s7.2-16,16-16c8.8,0,16,7.2,16,16S217.5,103.9,208.7,103.9L208.7,103.9z"/>
<path class="st0" d="M175.2,145.3c0,1.8-1.5,3.3-3.3,3.3h-0.6c-2.4,0-4.4,1.9-4.4,4.3c0,0,0,0,0,0v1.9c0,2.4,1.9,4.3,4.3,4.3
	c0,0,0,0,0,0h13.1c1.9,0,3.5-1.6,3.5-3.5v-27.7h2.3V191c0,15.6,0,31.2,0,46.9c0,5,1.5,8.7,6.4,10.5h4.3c4.9-1.8,6.5-5.5,6.4-10.6
	c-0.2-20,0-40,0-59.9v-2.6h2.9v2.6c0,20.1,0.1,40.1,0,60.2c0,5.1,1.6,8.8,6.7,10.5l4.4-0.2c2.6-1.2,4.8-2.8,5.4-5.8
	c0.3-1.5,0.4-3.1,0.4-4.6c0-35.5,0-71,0-106.4v-2.8h2.9v38c0,2.3-0.3,4.6,1.7,6.8c1.3,1.3,3,2.1,4.8,2.1c3.4,0,4.8-2.1,6.2-4.3
	c0-16.5-0.3-50-0.3-50.2c-2-8.4-7.4-13.7-15.3-15c-1.2-0.2-2.5-0.3-3.8-0.3c-2.2,0-29.1,0-32.5,0h-0.2c-7.7,1.4-13.1,6.6-15.1,15
	c0,0.2-0.2,6.5-0.3,22.5L175.2,145.3z M212.4,107.2l-2.2,5.8h-3.1l-2.2-5.8H212.4z M204.6,141.7l2.6-26.1h3l2.6,26.1l-4.1,3.3
	L204.6,141.7z"/>
<path class="st0" d="M161.7,130.3h-12.2c-4.8,0-8.6,3.9-8.7,8.6v20.2c0,4.8,3.9,8.6,8.7,8.7h12.2c4.8,0,8.6-3.9,8.7-8.7V139
	C170.3,134.2,166.5,130.3,161.7,130.3z M164.1,161.4h-15.9c-1,0-1.8-0.8-1.8-1.8c0-1,0.8-1.8,1.8-1.8h15.9c1,0,1.8,0.8,1.8,1.8
	C166,160.6,165.1,161.4,164.1,161.4z M164.1,154.3h-15.9c-1-0.1-1.8-1-1.7-2c0.1-0.9,0.8-1.6,1.7-1.7h15.9c1,0.1,1.8,1,1.7,2
	C165.7,153.5,165,154.2,164.1,154.3z M164.1,147.2h-15.9c-1,0-1.8-0.8-1.8-1.8c0-1,0.8-1.8,1.8-1.8h15.9c1,0,1.8,0.8,1.8,1.8
	C166,146.4,165.1,147.2,164.1,147.2z M164.1,140.2h-15.9c-1,0-1.8-0.8-1.8-1.8c0-1,0.8-1.8,1.8-1.8h15.9c1,0,1.8,0.8,1.8,1.8
	C166,139.3,165.1,140.2,164.1,140.2z"/>
</svg>
