<?xml version="1.0" encoding="utf-8"?>
<!-- Generator: Adobe Illustrator 22.1.0, SVG Export Plug-In . SVG Version: 6.00 Build 0)  -->
<svg version="1.1" id="OBJECTS" xmlns="http://www.w3.org/2000/svg" xmlns:xlink="http://www.w3.org/1999/xlink" x="0px" y="0px"
	 viewBox="0 0 300 300" style="enable-background:new 0 0 300 300;" xml:space="preserve">
<style type="text/css">
	.st0{fill:#004073;}
</style>
<title>1</title>
<path class="st0" d="M105.5,202.4v-0.9h1.1v42c0,0.6,0,1.2,0.1,1.8c0.3,1.1,1.1,2,2.2,2.3h1.7c1.7-0.5,2.8-2.2,2.5-4
	c0-7.7,0-15.4,0-23.1v-1h1.1v1c0,7.7,0,15.4,0,23c-0.3,1.8,0.8,3.5,2.5,4.1h1.6c1.7-0.6,2.7-2.3,2.4-4c0-13.6,0-27.3,0-40.9v-1.1
	h1.1v1c0,4.6,0,9.2,0,13.8c0,0.4,0,0.8,0,1.1c0.1,1.2,1.1,2.2,2.4,2.1c0.1,0,0.1,0,0.2,0c1.3,0,2.2-1.1,2.2-2.3c0,0,0,0,0-0.1
	c0-3.8,0-7.6,0-11.5c0-1.8,0-3.7,0-5.5c0.2-4-3-7.4-7-7.6c-0.1,0-0.3,0-0.4,0h-4.1v0.6l-0.9,1.8l-0.1,0.3l0.8,14.3l-1.5,1.6l0,0
	l-1.5-1.6l0.8-14.3l-0.1-0.3l-0.9-1.8v-0.6h-3.8c-3.6-0.1-6.7,2.4-7.3,5.9c0,0.1-0.1,0.2-0.1,0.3v19c0.3,0.7,1,1.3,1.7,1.5
	c1.3,0.4,2.6-0.3,3-1.6c0.1-0.2,0.1-0.4,0.1-0.6c0-0.4,0-0.8,0-1.1C105.5,211.5,105.5,207,105.5,202.4z"/>
<path class="st0" d="M113.1,191.4c2.4,0.2,4.8-1.1,5.7-3.4c1-2.3,0.3-5-1.7-6.5c-0.8-0.5-1.6-0.9-2.4-1.3h-2.1
	c-0.2,0.1-0.5,0.2-0.7,0.3c-2.6,0.9-4.2,3.6-3.6,6.4C108.8,189.4,110.7,191.2,113.1,191.4z"/>
<path class="st0" d="M144.9,202.4v-0.9h1.1v42c0,0.6,0,1.2,0.1,1.8c0.3,1.1,1.1,2,2.2,2.3h1.7c1.7-0.5,2.8-2.2,2.5-4
	c0-7.7,0-15.4,0-23.1v-1h1.1v1c0,7.7,0,15.4,0,23c-0.3,1.8,0.8,3.5,2.5,4.1h1.6c1.7-0.6,2.7-2.3,2.4-4c0-13.6,0-27.3,0-40.9v-1.1
	h1.1v14.8c0,0.4,0,0.8,0.1,1.1c0.2,1.3,1.4,2.2,2.7,2c1.1-0.2,2-1.1,2-2.3c0-3.8,0-7.6,0-11.5c0-1.8,0-3.7,0-5.5c0.2-4-3-7.4-7-7.6
	c-0.1,0-0.3,0-0.4,0h-4.1v0.6l-0.9,1.8l-0.2,0.3l0.8,14.3l-1.5,1.6l0,0l-1.5-1.6l0.8-14.3l-0.1-0.3l-0.9-1.8v-0.6h-3.9
	c-3.6-0.1-6.7,2.4-7.3,5.9c0,0.1-0.1,0.2-0.1,0.3v19c0.3,0.7,1,1.3,1.7,1.5c1.3,0.4,2.6-0.3,3-1.6c0.1-0.2,0.1-0.4,0.1-0.6
	c0-0.4,0-0.8,0-1.1L144.9,202.4z"/>
<path class="st0" d="M152.4,191.4c2.4,0.2,4.8-1.1,5.7-3.4c1-2.3,0.3-5-1.7-6.5c-0.8-0.5-1.6-0.9-2.4-1.3h-2.1
	c-0.2,0.1-0.5,0.2-0.7,0.3c-2.6,0.9-4.2,3.6-3.6,6.4C148.1,189.4,150,191.2,152.4,191.4z"/>
<path class="st0" d="M184.2,202.4v-0.9h1.1v1.1c0,13.6,0,27.3,0,40.9c0,0.6,0,1.2,0.1,1.8c0.3,1.1,1.1,2,2.2,2.3h1.7
	c1.7-0.5,2.8-2.2,2.5-4c0-7.7,0-15.4,0-23.1v-1h1.1v1c0,7.7,0,15.4,0,23c-0.3,1.8,0.8,3.5,2.5,4.1h1.6c1.7-0.6,2.7-2.3,2.4-4
	c0-13.6,0-27.3,0-40.9v-1.1h1.1v1c0,4.6,0,9.2,0,13.8c0,0.4,0,0.8,0,1.1c0.1,1.3,1.3,2.3,2.7,2.1c1.2-0.1,2.2-1.2,2.1-2.4
	c0-3.8,0-7.6,0-11.5c0-1.8,0-3.7,0-5.5c0.2-4-3-7.4-7-7.6c-0.1,0-0.3,0-0.4,0h-4.1v0.6l-0.9,1.8l-0.1,0.3l0.8,14.3l-1.5,1.6l0,0
	l-1.5-1.6l0.8-14.3l-0.1-0.3l-0.9-1.8v-0.6h-3.8c-3.6-0.1-6.7,2.4-7.3,5.9c0,0.1-0.1,0.2-0.1,0.3v19c0.3,0.7,1,1.3,1.7,1.5
	c1.3,0.4,2.6-0.3,3-1.6c0.1-0.2,0.1-0.4,0.1-0.6c0-0.4,0-0.8,0-1.1L184.2,202.4z"/>
<path class="st0" d="M191.8,191.4c2.4,0.2,4.8-1.1,5.7-3.4c1-2.3,0.3-5-1.7-6.5c-0.8-0.5-1.6-0.9-2.4-1.3h-2.1
	c-0.2,0.1-0.5,0.2-0.7,0.3c-2.6,0.9-4.2,3.6-3.6,6.4C187.4,189.4,189.4,191.2,191.8,191.4z"/>
<path class="st0" d="M139.4,89.5V88h1.9v70.4c0,1,0.1,2,0.2,3c0.5,1.8,1.9,3.3,3.7,3.9h2.8c3.2-1.1,4.2-3.4,4.2-6.7
	c0-12.9,0-25.8,0-38.7V118h1.9v1.7c0,12.9,0,25.7,0,38.6c0,3.3,1,5.7,4.2,6.9h2.8c3.2-1.1,4.1-3.6,4.1-6.8c0-22.8,0-45.7,0-68.5
	v-1.9h1.8v1.6c0,7.7,0,15.5,0,23.2c0,0.6,0,1.3,0.1,1.9c0.3,2.2,2.3,3.8,4.5,3.5c2-0.2,3.5-2,3.5-4c0-6.4,0-12.8,0-19.2
	c0-3,0-6.1,0-9.2c0.3-6.7-4.9-12.3-11.6-12.6c-0.3,0-0.5,0-0.8,0c-2.3,0-4.5,0-6.8,0v1.1l-1.5,3l-0.2,0.6l1.3,23.8l-2.5,2.8l0,0l0,0
	l-2.5-2.8l1.4-23.9l-0.2-0.6l-1.5-3V73c-2.1,0-4.3,0-6.4,0c-6-0.2-11.2,4-12.3,9.9c-0.1,0.2-0.1,0.3-0.2,0.5v31.9
	c0.5,1.3,1.6,2.2,2.9,2.7c2.1,0.7,4.4-0.5,5.1-2.7c0.1-0.3,0.2-0.7,0.2-1.1c0-0.7,0-1.3,0-1.9L139.4,89.5z"/>
<path class="st0" d="M152.1,71.1c4.1,0.4,8-1.9,9.6-5.7c1.7-3.8,0.5-8.3-2.8-10.9c-1.3-0.8-2.7-1.5-4.1-2.1h-3.6
	c-0.4,0.2-0.8,0.4-1.2,0.5c-4.4,1.6-7,6.1-6,10.7C144.8,67.6,148.1,70.6,152.1,71.1z"/>
<path class="st0" d="M218.5,204.2c-1.9,0-3.5-1.6-3.5-3.5v-26H91v26c0.1,1.9-1.3,3.6-3.3,3.8c-1.9,0.1-3.6-1.3-3.8-3.3
	c0-0.2,0-0.3,0-0.5v-29.5c0-1.9,1.6-3.5,3.5-3.5l0,0h131c1.9,0,3.5,1.6,3.5,3.5c0,0,0,0,0,0v29.5C222,202.6,220.4,204.2,218.5,204.2
	z"/>
<path class="st0" d="M195.9,145.5L195.9,145.5c0.2,0,0.4,0,0.5,0h0.2l0.3-0.1l0.2-0.1l0.3-0.2c0.1,0,0.1-0.1,0.2-0.1h0.1l0.1-0.2
	l0.1-0.1l7.6-9.7c0.9-1.1,0.7-2.7-0.4-3.6c-1.1-0.9-2.7-0.7-3.6,0.4l0,0l-5.7,7.4l-2.7-2.7c-1-1-2.6-1.1-3.6-0.1
	c-1,1-1.1,2.6-0.1,3.6c0,0,0.1,0.1,0.1,0.1l4.7,4.8l0.1,0.1c0,0,0.1,0.1,0.1,0.1h0.1l0.2,0.1l0.3,0.2h0.2c0.1,0,0.2,0.1,0.3,0.1h0.1
	L195.9,145.5z"/>
<path class="st0" d="M199.6,125.9c0-1.2-1-2.1-2.1-2.1c-1.2,0-2.1,1-2.1,2.1c0,1.2,1,2.1,2.1,2.1
	C198.7,128.1,199.6,127.1,199.6,125.9L199.6,125.9z"/>
<path class="st0" d="M181.8,139c0,1.2,0.9,2.2,2.1,2.2c1.2,0,2.2-0.9,2.2-2.1c0-1.2-0.9-2.2-2.1-2.2c0,0,0,0,0,0
	C182.8,136.8,181.8,137.8,181.8,139L181.8,139z"/>
<path class="st0" d="M209.9,141.1c1.2,0,2.1-1,2.1-2.1c0-1.2-1-2.1-2.1-2.1c-1.2,0-2.1,1-2.1,2.1S208.7,141.1,209.9,141.1
	L209.9,141.1z"/>
<path class="st0" d="M212.7,121.4c-9.8-8.2-24.3-7-32.6,2.7c-8.2,9.8-7,24.3,2.7,32.6c9.8,8.2,24.3,7,32.6-2.7
	c3.5-4.2,5.5-9.5,5.5-14.9C220.8,132.2,217.9,125.8,212.7,121.4z M197.3,156.6c-9.7-0.1-17.5-8.1-17.4-17.8
	c0.1-9.7,8.1-17.5,17.8-17.4c9.6,0.1,17.4,8,17.4,17.6C214.9,148.8,207,156.6,197.3,156.6L197.3,156.6z"/>
<path class="st0" d="M197.5,154.1c1.2,0,2.1-1,2.1-2.2c0-1.2-1-2.1-2.2-2.1c-1.2,0-2.1,1-2.1,2.1
	C195.3,153.2,196.3,154.1,197.5,154.1C197.5,154.1,197.5,154.1,197.5,154.1z"/>
</svg>
