<?xml version="1.0" encoding="utf-8"?>
<!-- Generator: Adobe Illustrator 22.1.0, SVG Export Plug-In . SVG Version: 6.00 Build 0)  -->
<svg version="1.1" id="OBJECTS" xmlns="http://www.w3.org/2000/svg" xmlns:xlink="http://www.w3.org/1999/xlink" x="0px" y="0px"
	 viewBox="0 0 300 300" style="enable-background:new 0 0 300 300;" xml:space="preserve">
<style type="text/css">
	.st0{fill:#004073;}
</style>
<title>1</title>
<path class="st0" d="M80.7,227.1c10.4,0,18.8-3.4,18.8-7.5v7.5c0,4.1-8.4,7.5-18.8,7.5s-18.8-3.4-18.8-7.5v-7.5
	C61.9,223.8,70.3,227.1,80.7,227.1z"/>
<path class="st0" d="M226.3,130.3v-2.2h-2.7v2.6c0,32.7,0,65.5,0,98.2c0,1.4-0.1,2.9-0.3,4.3c-0.6,2.9-2.8,4.4-5.3,5.5h-3.9
	c-4.6-1.6-6.1-4.9-6-9.6c0.1-18.5,0-37,0-55.5v-2.4h-2.7v2.4c0,18.4-0.1,36.9,0,55.3c0,4.7-1.4,8.1-6,9.8h-3.8
	c-4.6-1.6-5.9-5.1-5.9-9.7c0.1-32.7,0-65.4,0-98.1v-2.7c-0.4-1-1-6.6-1.4-8.3c-1.3,0.7-2.1,1.2-2.1,1.2l-2,1.1l-29,16.2
	c-0.8,0.4-1.7,0.8-2.5,1.2c-3,1.1-6.3-0.3-7.4-3.3c-1-2.6,0-5.6,2.5-7c8-4.5,16-9,24-13.4c3.8-2.1,7.6-4.3,11.5-6.4
	c3.4-1.9,7.2-2.8,11.1-2.4l8.7-0.1v1.5l2.1,4.2l0.3,0.9l-2.1,34.3l3.6,3.9l0,0l0,0l3.5-4l-2-34.3l0.3-0.9l2.1-4.2v-1.5
	c3.1,0,6.2,0,9.2,0c9.1,0.1,15.4,5.2,17.6,14.1c0.1,0.2,0.2,0.5,0.3,0.7v45.7c-1,1.7-2.1,3.3-4.2,3.8c-3,1-6.3-0.6-7.3-3.7
	c-0.2-0.5-0.3-1.1-0.3-1.6c-0.1-0.9,0-1.8,0-2.8L226.3,130.3z"/>
<path class="st0" d="M205.6,104c-5.9,0.6-11.4-2.7-13.7-8.1c-2.4-5.5-0.7-11.9,4-15.5c1.8-1.2,3.8-2.2,5.8-3h5.1
	c0.6,0.3,1.1,0.6,1.7,0.8c6.3,2.2,10,8.7,8.8,15.3C216,99,211.3,103.3,205.6,104z"/>
<path class="st0" d="M163.4,199c10.4,0,18.8-3.4,18.8-7.5v7.5c0,4.2-8.4,7.5-18.8,7.5c-10.4,0-18.8-3.4-18.8-7.5v-7.5
	C144.6,195.6,153,199,163.4,199z"/>
<path class="st0" d="M163.4,208.7c10.4,0,18.8-3.4,18.8-7.5v7.5c0,4.2-8.4,7.5-18.8,7.5c-10.4,0-18.8-3.4-18.8-7.5v-7.5
	C144.6,205.4,153,208.7,163.4,208.7z"/>
<path class="st0" d="M163.4,218.5c10.4,0,18.8-3.4,18.8-7.5v7.5c0,4.2-8.4,7.5-18.8,7.5c-10.4,0-18.8-3.4-18.8-7.5V211
	C144.6,215.2,153,218.5,163.4,218.5z"/>
<path class="st0" d="M163.4,228.3c10.4,0,18.8-3.4,18.8-7.5v7.5c0,4.2-8.4,7.5-18.8,7.5c-10.4,0-18.8-3.4-18.8-7.5v-7.5
	C144.6,224.9,153,228.3,163.4,228.3z"/>
<path class="st0" d="M144.6,181.8v7.5c0,4.1,8.4,7.5,18.8,7.5c10.4,0,18.8-3.4,18.8-7.5v-7.5c0-4.2-8.4-7.5-18.8-7.5
	C153,174.3,144.6,177.6,144.6,181.8z M146.5,181.8c0-2.3,6.6-5.6,16.9-5.6c10.3,0,16.9,3.3,16.9,5.6s-6.6,5.6-16.9,5.6
	C153.1,187.4,146.5,184.1,146.5,181.8L146.5,181.8z"/>
<path class="st0" d="M161.9,180.9c2.2-0.4,3.1-0.6,3.1-0.9c0-0.4-0.5-0.6-2.2-0.6c-1.2,0-2.5,0.1-3.7,0.4l-0.7-1.3
	c1.2-0.3,2.5-0.4,3.7-0.4v-1h2.5v1.1c2.7,0.2,4.3,1,4.3,1.9s-1.9,1.6-4.6,2c-1.9,0.3-2.7,0.5-2.7,0.9c0,0.4,1,0.7,2.5,0.7
	c1.4,0,2.8-0.2,4.2-0.5l0.8,1.3c-1.4,0.3-2.9,0.4-4.3,0.5v1h-2.5V185c-2.9-0.2-4.5-1.1-4.5-2S158.9,181.4,161.9,180.9z"/>
<path class="st0" d="M121.9,208.7c10.4,0,18.8-3.4,18.8-7.5v7.5c0,4.1-8.4,7.5-18.8,7.5s-18.7-3.4-18.7-7.5v-7.5
	C103.2,205.4,111.5,208.7,121.9,208.7z"/>
<path class="st0" d="M121.9,218.5c10.4,0,18.8-3.4,18.8-7.5v7.5c0,4.1-8.4,7.5-18.8,7.5s-18.7-3.4-18.7-7.5V211
	C103.2,215.1,111.5,218.5,121.9,218.5z"/>
<path class="st0" d="M121.9,228.3c10.4,0,18.8-3.4,18.8-7.5v7.5c0,4.2-8.4,7.5-18.8,7.5s-18.7-3.4-18.7-7.5v-7.5
	C103.2,224.9,111.5,228.3,121.9,228.3z"/>
<path class="st0" d="M103.2,191.5v7.5c0,4.2,8.4,7.5,18.8,7.5c10.4,0,18.8-3.4,18.8-7.5v-7.5c0-4.2-8.4-7.5-18.8-7.5
	S103.2,187.4,103.2,191.5z M105.1,191.5c0-2.3,6.6-5.6,16.9-5.6c10.3,0,16.9,3.3,16.9,5.6c0,2.3-6.6,5.6-16.9,5.6
	S105,193.8,105.1,191.5L105.1,191.5z"/>
<path class="st0" d="M120.5,190.7c2.2-0.4,3.1-0.6,3.1-0.9c0-0.4-0.5-0.6-2.2-0.6c-1.2,0-2.5,0.1-3.7,0.4l-0.7-1.3
	c1.2-0.2,2.5-0.4,3.7-0.4v-1h2.5v1c2.7,0.2,4.3,1,4.3,1.9c0,1-1.9,1.6-4.6,2c-1.9,0.3-2.7,0.5-2.7,0.9c0,0.4,1,0.7,2.5,0.7
	c1.4,0,2.8-0.2,4.2-0.5l0.8,1.3c-1.4,0.3-2.9,0.5-4.3,0.5v1h-2.5v-1.1c-2.9-0.2-4.5-1.1-4.5-2S117.4,191.1,120.5,190.7z"/>
<path class="st0" d="M61.9,209.9v7.5c0,4.2,8.4,7.5,18.8,7.5s18.8-3.4,18.8-7.5v-7.5c0-4.2-8.4-7.5-18.8-7.5S61.9,205.7,61.9,209.9z
	 M63.8,209.9c0-2.3,6.6-5.6,16.9-5.6s16.9,3.3,16.9,5.6s-6.6,5.6-16.9,5.6S63.8,212.2,63.8,209.9z"/>
<path class="st0" d="M79.3,209c2.2-0.3,3.1-0.6,3.1-0.9s-0.5-0.6-2.2-0.6c-1.2,0-2.5,0.1-3.7,0.4l-0.7-1.3c1.2-0.2,2.5-0.4,3.7-0.4
	v-1H82v1c2.7,0.2,4.3,1,4.3,1.9c0,0.9-1.9,1.6-4.6,2c-1.9,0.3-2.7,0.5-2.7,0.9c0,0.4,1,0.7,2.4,0.7c1.4,0,2.8-0.2,4.2-0.5l0.8,1.3
	c-1.4,0.3-2.9,0.5-4.3,0.5v1h-2.5v-1.1c-2.9-0.2-4.5-1-4.5-2S76.2,209.5,79.3,209z"/>
</svg>
