<svg id="OBJECTS" xmlns="http://www.w3.org/2000/svg" viewBox="0 0 500 300"><defs><style>.cls-1{fill:none;stroke:#fff;stroke-miterlimit:10;stroke-width:7.04px;}.cls-2{fill:#325a00;}.cls-3{fill:#32bb00;}.cls-4{fill:#e2ffd9;}</style></defs><title>1</title><rect class="cls-1" x="-1992.42" y="-201.32" width="2757.47" height="719.42"/><path class="cls-2" d="M293.83,51.39l2.46-5.84a120.64,120.64,0,0,1,64.54,158.37L355,201.45A114.45,114.45,0,0,0,293.83,51.39Z"/><path class="cls-2" d="M126.94,134.6A130.21,130.21,0,0,1,226.07,31.13L228.32,41a120.09,120.09,0,0,0-91.46,95.45Z"/><path class="cls-2" d="M125.68,174.54l3.3-.66a123.31,123.31,0,0,0,145.24,96.8l.66,3.3a126.71,126.71,0,0,1-149.2-99.44Z"/><path class="cls-3" d="M288.13,252.14a109.16,109.16,0,0,0,52-41.49l13.17,8.79a124.87,124.87,0,0,1-59.54,47.49Z"/><path class="cls-3" d="M196.4,52a133.24,133.24,0,0,1,70.4-15.11l-1.05,16.78a116.42,116.42,0,0,0-61.52,13.21Z"/><path class="cls-3" d="M167.31,242l7.88-9.19a118.7,118.7,0,0,0,87.52,28.25l1,12.06A130.77,130.77,0,0,1,167.31,242Z"/><circle class="cls-4" cx="249.07" cy="156.46" r="95.45"/><path d="M236.51,153.23a15.22,15.22,0,0,0-11.68,5.64h-5.9a10.1,10.1,0,0,1-6.08-1.78,6,6,0,0,1-2.46-5.22q0-15.56,5.46-15.55a8.3,8.3,0,0,1,1.91.93,30.19,30.19,0,0,0,4.3,1.87,15.48,15.48,0,0,0,5.24.94,17.58,17.58,0,0,0,5.86-1,21.53,21.53,0,0,0-.22,2.91A19.36,19.36,0,0,0,236.51,153.23Zm-1.24-36.16a11.27,11.27,0,1,1-8-3.3A10.84,10.84,0,0,1,235.27,117.07Zm48.41,64.22a11,11,0,0,1-3.21,8.35,11.91,11.91,0,0,1-8.55,3.06h-38.5a11.87,11.87,0,0,1-8.54-3.06,11,11,0,0,1-3.22-8.35c0-1.55.05-3.07.16-4.56a46.37,46.37,0,0,1,.61-4.8,37.58,37.58,0,0,1,1.17-4.78,22,22,0,0,1,1.9-4.29,15.17,15.17,0,0,1,2.73-3.57,11.52,11.52,0,0,1,3.76-2.36,13.36,13.36,0,0,1,4.91-.88,5.21,5.21,0,0,1,1.9.95l3.21,2.11a19.71,19.71,0,0,0,16.61,2.12,19,19,0,0,0,4.71-2.12l3.22-2.11a5.27,5.27,0,0,1,1.89-.95,13.36,13.36,0,0,1,4.91.88,11.68,11.68,0,0,1,3.77,2.36,15.17,15.17,0,0,1,2.73,3.57,22.59,22.59,0,0,1,1.89,4.29,37.58,37.58,0,0,1,1.17,4.78,46.54,46.54,0,0,1,.62,4.8Q283.68,179,283.68,181.29ZM264.63,130a16.9,16.9,0,1,1-12-5A16.31,16.31,0,0,1,264.63,130ZM286,117.07a11.29,11.29,0,1,1-8-3.3A10.86,10.86,0,0,1,286,117.07Zm8.94,34.8a6.05,6.05,0,0,1-2.47,5.22,10.08,10.08,0,0,1-6.08,1.78h-5.9a15.22,15.22,0,0,0-11.67-5.64A19.35,19.35,0,0,0,272.4,142a21.53,21.53,0,0,0-.22-2.91,17.62,17.62,0,0,0,5.86,1,15.43,15.43,0,0,0,5.24-.94,29.21,29.21,0,0,0,4.3-1.87,8.27,8.27,0,0,1,1.92-.93Q295,136.32,295,151.87Z"/></svg>