<svg id="OBJECTS" xmlns="http://www.w3.org/2000/svg" viewBox="0 0 500 300"><defs><style>.cls-1{fill:none;stroke:#fff;stroke-miterlimit:10;stroke-width:7.04px;}.cls-2{fill:#325a00;}.cls-3{fill:#32bb00;}.cls-4{fill:#e2ffd9;}</style></defs><title>source</title><rect class="cls-1" x="-820.42" y="-201.32" width="2757.47" height="719.42"/><path class="cls-2" d="M163,229.05l-4.56,4.4a120.67,120.67,0,0,1,3-171l4.4,4.57a114.47,114.47,0,0,0-2.82,162Z"/><path class="cls-2" d="M349.2,218.21a130.16,130.16,0,0,1-131.85,56.12l1.81-9.92a120.07,120.07,0,0,0,121.63-51.78Z"/><path class="cls-2" d="M366.06,182l-3.29-.69A123.32,123.32,0,0,0,267.34,35.16l.69-3.29a126.66,126.66,0,0,1,98,150.12Z"/><path class="cls-3" d="M247.25,46.73a109.09,109.09,0,0,0-64.16,17.68l-8.65-13.27A125,125,0,0,1,247.86,30.9Z"/><path class="cls-3" d="M252.85,266.79A133.33,133.33,0,0,1,182.18,253l7.58-15A116.42,116.42,0,0,0,251.51,250Z"/><path class="cls-3" d="M354.34,103.58l-10.86,5.35a118.66,118.66,0,0,0-69.35-60.4L277.94,37a130.77,130.77,0,0,1,76.4,66.54Z"/><circle class="cls-4" cx="245.52" cy="150.07" r="95.45"/><path d="M285.52,128.67v56.41a5.72,5.72,0,0,1-5.65,5.64H217.82a5.7,5.7,0,0,1-5.64-5.64V128.67a5.7,5.7,0,0,1,5.64-5.64h5.64V118.8a7.07,7.07,0,0,1,7-7.06h2.82a7.07,7.07,0,0,1,7,7.06V123h16.93V118.8a7.07,7.07,0,0,1,7.05-7.06h2.82a7.07,7.07,0,0,1,7.05,7.06V123h5.64a5.72,5.72,0,0,1,5.65,5.64Zm-67.7,56.41h62.05V140H217.82Zm16.92-53.59V118.8a1.4,1.4,0,0,0-.39-1,1.42,1.42,0,0,0-1-.4h-2.82a1.38,1.38,0,0,0-1,.4,1.36,1.36,0,0,0-.4,1v12.69a1.37,1.37,0,0,0,1.41,1.41h2.82a1.35,1.35,0,0,0,1.41-1.41Zm34.86,22.74L247,176.8a1.5,1.5,0,0,1-1,.39,1.47,1.47,0,0,1-1-.39l-12.69-12.7a1.44,1.44,0,0,1-.4-1,1.3,1.3,0,0,1,.4-1l2-2a1.3,1.3,0,0,1,1-.39,1.5,1.5,0,0,1,1,.39l9.69,9.7,19.57-19.57a1.53,1.53,0,0,1,1-.4,1.35,1.35,0,0,1,1,.4l2,2a1.3,1.3,0,0,1,.4,1A1.44,1.44,0,0,1,269.6,154.23Zm-1-22.74V118.8a1.36,1.36,0,0,0-.4-1,1.38,1.38,0,0,0-1-.4h-2.82a1.38,1.38,0,0,0-1,.4,1.36,1.36,0,0,0-.4,1v12.69a1.37,1.37,0,0,0,1.41,1.41h2.82a1.37,1.37,0,0,0,1.41-1.41Z"/></svg>