<svg id="OBJECTS" xmlns="http://www.w3.org/2000/svg" viewBox="0 0 500 300"><defs><style>.cls-1{fill:none;stroke:#fff;stroke-miterlimit:10;stroke-width:7.04px;}.cls-2{fill:#325a00;}.cls-3{fill:#32bb00;}.cls-4{fill:#e2ffd9;}</style></defs><title>source</title><rect class="cls-1" x="-243.38" y="-201.32" width="2757.47" height="719.42"/><path class="cls-2" d="M137.28,118.48l-6.09-1.74A120.65,120.65,0,0,1,280.56,33.46l-1.74,6.09a114.48,114.48,0,0,0-141.54,78.93Z"/><path class="cls-2" d="M240.14,274A130.17,130.17,0,0,1,125.4,188.19l9.49-3.42A120.13,120.13,0,0,0,240.74,264Z"/><path class="cls-2" d="M279.93,270.44l-1.05-3.2a123.3,123.3,0,0,0,78.45-155.91l3.2-1a126.69,126.69,0,0,1-80.6,160.16Z"/><path class="cls-3" d="M337.25,99.77a109.18,109.18,0,0,0-47.51-46.61L296.87,39a125,125,0,0,1,54.37,53.34Z"/><path class="cls-3" d="M149.75,215.11a133.36,133.36,0,0,1-23.54-68.05l16.78-1a116.57,116.57,0,0,0,20.58,59.46Z"/><path class="cls-3" d="M341.85,220.93l-10.08-6.71a118.64,118.64,0,0,0,17.42-90.3L361,121.45a130.81,130.81,0,0,1-19.19,99.48Z"/><circle class="cls-4" cx="247.01" cy="150.16" r="95.45"/><path d="M280.82,128.5a4.27,4.27,0,0,1,4.26,4.27v54a4.12,4.12,0,0,1-1.25,3,4.07,4.07,0,0,1-3,1.24H238.2a4.23,4.23,0,0,1-4.26-4.26V174H209.79a4.25,4.25,0,0,1-4.27-4.26V139.87a11.82,11.82,0,0,1,3-7.28l18.12-18.11a11.82,11.82,0,0,1,7.28-3H252.4a4.25,4.25,0,0,1,4.27,4.26v14.56a11.31,11.31,0,0,1,5.68-1.78ZM237,149.64l14-14V117.14h-17v18.47a4.25,4.25,0,0,1-4.27,4.26H211.21v28.41h22.73V156.92a10.25,10.25,0,0,1,.88-3.91A10.5,10.5,0,0,1,237,149.64Zm-8.7-28.73L215,134.19h13.27Zm51.15,64.42V134.19h-17v18.46a4.27,4.27,0,0,1-4.26,4.27H239.62v28.41ZM256.67,138l-13.28,13.27h13.28Z"/></svg>