<svg id="OBJECTS" xmlns="http://www.w3.org/2000/svg" viewBox="0 0 500 300"><defs><style>.cls-1{fill:none;stroke:#fff;stroke-miterlimit:10;stroke-width:7.04px;}.cls-2{fill:#325a00;}.cls-3{fill:#32bb00;}.cls-4{fill:#e2ffd9;}</style></defs><title>source</title><rect class="cls-1" x="-1404.42" y="-201.32" width="2757.47" height="719.42"/><path class="cls-2" d="M217.1,45l-1.87-6.05a120.64,120.64,0,0,1,151.22,79.88l-6.06,1.85A114.47,114.47,0,0,0,217.1,45Z"/><path class="cls-2" d="M142.7,216a130.18,130.18,0,0,1,9.47-143l8,6.1A120.09,120.09,0,0,0,151.47,211Z"/><path class="cls-2" d="M167.4,247.37l2.1-2.62A123.3,123.3,0,0,0,343,225.59l2.63,2.1A126.67,126.67,0,0,1,167.4,247.37Z"/><path class="cls-3" d="M341.74,202.45a109.2,109.2,0,0,0,13.2-65.23l15.74-1.73a124.82,124.82,0,0,1-15.1,74.65Z"/><path class="cls-3" d="M142.87,108.07A133.24,133.24,0,0,1,187.1,51.25l10,13.54a116.36,116.36,0,0,0-38.65,49.65Z"/><path class="cls-3" d="M242.65,272.32l.13-12.1A118.68,118.68,0,0,0,328,225.62l8.53,8.59a130.77,130.77,0,0,1-93.87,38.11Z"/><circle class="cls-4" cx="250.32" cy="154.23" r="95.45"/><path d="M286.05,111v80.45a3.14,3.14,0,0,1-3.09,3.09H221.08a3.14,3.14,0,0,1-3.1-3.09V111a3.14,3.14,0,0,1,3.1-3.09H283a3.14,3.14,0,0,1,3.09,3.09ZM261.3,188.36h18.56V114.11H224.17v74.25h18.56V177.53a1.55,1.55,0,0,1,1.55-1.54h15.47a1.55,1.55,0,0,1,1.55,1.54Zm-24.75-66.52v3.1a1.5,1.5,0,0,1-.46,1.08,1.48,1.48,0,0,1-1.09.46h-3.1a1.57,1.57,0,0,1-1.54-1.54v-3.1a1.48,1.48,0,0,1,.46-1.09,1.5,1.5,0,0,1,1.08-.46H235a1.57,1.57,0,0,1,1.55,1.55Zm0,12.38v3.09a1.52,1.52,0,0,1-.46,1.09,1.48,1.48,0,0,1-1.09.46h-3.1a1.46,1.46,0,0,1-1.08-.46,1.48,1.48,0,0,1-.46-1.09v-3.09a1.48,1.48,0,0,1,.46-1.09,1.46,1.46,0,0,1,1.08-.46H235a1.48,1.48,0,0,1,1.09.46A1.52,1.52,0,0,1,236.55,134.22Zm0,12.37v3.1a1.57,1.57,0,0,1-1.55,1.54h-3.1a1.46,1.46,0,0,1-1.08-.46,1.44,1.44,0,0,1-.46-1.08v-3.1a1.44,1.44,0,0,1,.46-1.08,1.46,1.46,0,0,1,1.08-.46H235a1.57,1.57,0,0,1,1.55,1.54Zm0,12.38v3.09a1.52,1.52,0,0,1-.46,1.09,1.48,1.48,0,0,1-1.09.46h-3.1a1.46,1.46,0,0,1-1.08-.46,1.48,1.48,0,0,1-.46-1.09V159a1.48,1.48,0,0,1,.46-1.09,1.5,1.5,0,0,1,1.08-.46H235a1.57,1.57,0,0,1,1.55,1.55Zm0,12.37v3.1A1.57,1.57,0,0,1,235,176h-3.1a1.5,1.5,0,0,1-1.08-.46,1.48,1.48,0,0,1-.46-1.09v-3.1a1.57,1.57,0,0,1,1.54-1.54H235a1.48,1.48,0,0,1,1.09.46A1.5,1.5,0,0,1,236.55,171.34Zm12.37-49.5v3.1a1.57,1.57,0,0,1-1.55,1.54h-3.09a1.48,1.48,0,0,1-1.09-.46,1.5,1.5,0,0,1-.46-1.08v-3.1a1.57,1.57,0,0,1,1.55-1.55h3.09a1.5,1.5,0,0,1,1.09.46A1.48,1.48,0,0,1,248.92,121.84Zm0,12.38v3.09a1.48,1.48,0,0,1-.46,1.09,1.47,1.47,0,0,1-1.09.46h-3.09a1.48,1.48,0,0,1-1.09-.46,1.52,1.52,0,0,1-.46-1.09v-3.09a1.52,1.52,0,0,1,.46-1.09,1.48,1.48,0,0,1,1.09-.46h3.09a1.47,1.47,0,0,1,1.09.46A1.48,1.48,0,0,1,248.92,134.22Zm0,12.37v3.1a1.44,1.44,0,0,1-.46,1.08,1.47,1.47,0,0,1-1.09.46h-3.09a1.57,1.57,0,0,1-1.55-1.54v-3.1a1.57,1.57,0,0,1,1.55-1.54h3.09a1.47,1.47,0,0,1,1.09.46A1.44,1.44,0,0,1,248.92,146.59Zm0,12.38v3.09a1.48,1.48,0,0,1-.46,1.09,1.47,1.47,0,0,1-1.09.46h-3.09a1.48,1.48,0,0,1-1.09-.46,1.52,1.52,0,0,1-.46-1.09V159a1.57,1.57,0,0,1,1.55-1.55h3.09a1.5,1.5,0,0,1,1.09.46A1.48,1.48,0,0,1,248.92,159Zm12.38-37.13v3.1a1.5,1.5,0,0,1-.46,1.08,1.48,1.48,0,0,1-1.09.46h-3.09a1.57,1.57,0,0,1-1.55-1.54v-3.1a1.48,1.48,0,0,1,.46-1.09,1.5,1.5,0,0,1,1.09-.46h3.09a1.57,1.57,0,0,1,1.55,1.55Zm0,12.38v3.09a1.52,1.52,0,0,1-.46,1.09,1.48,1.48,0,0,1-1.09.46h-3.09a1.47,1.47,0,0,1-1.09-.46,1.48,1.48,0,0,1-.46-1.09v-3.09a1.48,1.48,0,0,1,.46-1.09,1.47,1.47,0,0,1,1.09-.46h3.09a1.48,1.48,0,0,1,1.09.46A1.52,1.52,0,0,1,261.3,134.22Zm0,12.37v3.1a1.57,1.57,0,0,1-1.55,1.54h-3.09a1.47,1.47,0,0,1-1.09-.46,1.44,1.44,0,0,1-.46-1.08v-3.1a1.44,1.44,0,0,1,.46-1.08,1.47,1.47,0,0,1,1.09-.46h3.09a1.57,1.57,0,0,1,1.55,1.54Zm0,12.38v3.09a1.52,1.52,0,0,1-.46,1.09,1.48,1.48,0,0,1-1.09.46h-3.09a1.47,1.47,0,0,1-1.09-.46,1.48,1.48,0,0,1-.46-1.09V159a1.48,1.48,0,0,1,.46-1.09,1.5,1.5,0,0,1,1.09-.46h3.09A1.57,1.57,0,0,1,261.3,159Zm12.37-37.13v3.1a1.46,1.46,0,0,1-.46,1.08,1.44,1.44,0,0,1-1.08.46H269a1.55,1.55,0,0,1-1.54-1.54v-3.1a1.55,1.55,0,0,1,1.54-1.55h3.1a1.57,1.57,0,0,1,1.54,1.55Zm0,12.38v3.09a1.48,1.48,0,0,1-.46,1.09,1.44,1.44,0,0,1-1.08.46H269a1.48,1.48,0,0,1-1.09-.46,1.51,1.51,0,0,1-.45-1.09v-3.09a1.51,1.51,0,0,1,.45-1.09,1.48,1.48,0,0,1,1.09-.46h3.1a1.44,1.44,0,0,1,1.08.46A1.48,1.48,0,0,1,273.67,134.22Zm0,12.37v3.1a1.57,1.57,0,0,1-1.54,1.54H269a1.55,1.55,0,0,1-1.54-1.54v-3.1a1.55,1.55,0,0,1,1.54-1.54h3.1a1.57,1.57,0,0,1,1.54,1.54Zm0,12.38v3.09a1.48,1.48,0,0,1-.46,1.09,1.44,1.44,0,0,1-1.08.46H269a1.48,1.48,0,0,1-1.09-.46,1.51,1.51,0,0,1-.45-1.09V159a1.55,1.55,0,0,1,1.54-1.55h3.1a1.57,1.57,0,0,1,1.54,1.55Zm0,12.37v3.1a1.57,1.57,0,0,1-1.54,1.55H269a1.55,1.55,0,0,1-1.54-1.55v-3.1A1.55,1.55,0,0,1,269,169.8h3.1a1.44,1.44,0,0,1,1.08.46A1.46,1.46,0,0,1,273.67,171.34Z"/></svg>