<svg id="OBJECTS" xmlns="http://www.w3.org/2000/svg" viewBox="0 0 299.99 299.99"><defs><style>.cls-1{fill:#ecfff0;}.cls-2{fill:#030;}.cls-3{fill:none;stroke:#fff;stroke-miterlimit:10;stroke-width:7.04px;}.cls-4{fill:#e2ffd9;}.cls-5{fill:#b0ffb8;}.cls-6{fill:#4dff5c;}.cls-7{fill:#32bb00;}.cls-8{fill:#325a00;}</style></defs><title>1</title><circle class="cls-1" cx="150.93" cy="148.28" r="90"/><path class="cls-2" d="M195.55,170.8a1.9,1.9,0,0,1,.57,1.39v6.52a1.95,1.95,0,0,1-2,2H114.58a1.95,1.95,0,0,1-2-2V120a1.95,1.95,0,0,1,2-2h6.52a1.95,1.95,0,0,1,2,2v50.23h71.1A1.89,1.89,0,0,1,195.55,170.8Zm-26.83-47.54A3.92,3.92,0,0,0,166,130l5.38,5.38-11.74,11.91-9.13-9.14a1.81,1.81,0,0,0-1.31-.49,2.45,2.45,0,0,0-1.47.49l-19.41,19.25a1.77,1.77,0,0,0-.48,1.3,2.4,2.4,0,0,0,.48,1.47l4.73,4.73a1.55,1.55,0,0,0,1.31.65,2,2,0,0,0,1.47-.65l13.37-13.37,9,9.13a2.39,2.39,0,0,0,1.47.49,1.73,1.73,0,0,0,1.3-.49l17.94-17.78,5.39,5.39a3.94,3.94,0,0,0,5.54,0,3.8,3.8,0,0,0,1.14-2.78V127.18a3.89,3.89,0,0,0-3.91-3.92Z"/><rect class="cls-3" x="-231.1" y="-199.08" width="2757.47" height="719.42"/><polygon class="cls-4" points="276.8 300.53 136.75 300.53 136.36 297.04 136.75 293.78 276.8 293.78 276.8 300.53"/><polygon class="cls-5" points="300.93 300.53 167.5 300.53 174.8 297.04 167.5 293.78 300.93 293.78 300.93 300.53"/><polygon class="cls-6" points="300.93 300.53 200.72 300.53 208.02 297.04 200.72 293.78 300.93 293.78 300.93 300.53"/><polygon class="cls-7" points="300.93 300.53 234.15 300.53 241.44 297.04 234.15 293.78 300.93 293.78 300.93 300.53"/><polygon class="cls-8" points="300.93 300.53 267.16 300.53 274.46 297.04 267.16 293.78 300.93 293.78 300.93 300.53"/><polygon class="cls-4" points="23.8 293.78 163.86 293.78 164.24 297.27 163.86 300.53 23.8 300.53 23.8 293.78"/><polygon class="cls-5" points="-0.32 293.78 133.1 293.78 125.81 297.27 133.1 300.53 -0.32 300.53 -0.32 293.78"/><polygon class="cls-6" points="-0.32 293.78 99.88 293.78 92.58 297.27 99.88 300.53 -0.32 300.53 -0.32 293.78"/><polygon class="cls-7" points="-0.32 293.78 66.46 293.78 59.16 297.27 66.46 300.53 -0.32 300.53 -0.32 293.78"/><polygon class="cls-8" points="-0.32 293.78 33.44 293.78 26.15 297.27 33.44 300.53 -0.32 300.53 -0.32 293.78"/></svg>