<svg id="OBJECTS" xmlns="http://www.w3.org/2000/svg" viewBox="0 0 299.99 299.99"><defs><style>.cls-1{fill:#ecfff0;}.cls-2{fill:#030;}.cls-3{fill:none;stroke:#fff;stroke-miterlimit:10;stroke-width:7.04px;}.cls-4{fill:#e2ffd9;}.cls-5{fill:#b0ffb8;}.cls-6{fill:#4dff5c;}.cls-7{fill:#32bb00;}.cls-8{fill:#325a00;}</style></defs><title>1</title><circle class="cls-1" cx="150.93" cy="148.28" r="90"/><path class="cls-2" d="M181.76,175.67a7.2,7.2,0,0,1-7.22,7.23H131.17a7.19,7.19,0,0,1-7.22-7.23v-53a7.19,7.19,0,0,1,7.22-7.23h12.05a9.64,9.64,0,0,1,19.27,0h12a7.2,7.2,0,0,1,7.22,7.23ZM167.31,126a.86.86,0,0,0-.3-.6.88.88,0,0,0-.6-.31H139.3a.88.88,0,0,0-.6.31.86.86,0,0,0-.3.6v3a1.06,1.06,0,0,0,.9.9h27.11a1.06,1.06,0,0,0,.9-.9Zm-17-13.1a3.65,3.65,0,1,0,2.56-1A3.48,3.48,0,0,0,150.29,112.89Z"/><rect class="cls-3" x="-558.14" y="-199.08" width="2757.47" height="719.42"/><polygon class="cls-4" points="276.8 300.53 136.75 300.53 136.36 297.04 136.75 293.78 276.8 293.78 276.8 300.53"/><polygon class="cls-5" points="300.93 300.53 167.5 300.53 174.8 297.04 167.5 293.78 300.93 293.78 300.93 300.53"/><polygon class="cls-6" points="300.93 300.53 200.72 300.53 208.02 297.04 200.72 293.78 300.93 293.78 300.93 300.53"/><polygon class="cls-7" points="300.93 300.53 234.15 300.53 241.44 297.04 234.15 293.78 300.93 293.78 300.93 300.53"/><polygon class="cls-8" points="300.93 300.53 267.16 300.53 274.46 297.04 267.16 293.78 300.93 293.78 300.93 300.53"/><polygon class="cls-4" points="23.8 293.78 163.86 293.78 164.24 297.27 163.86 300.53 23.8 300.53 23.8 293.78"/><polygon class="cls-5" points="-0.32 293.78 133.1 293.78 125.81 297.27 133.1 300.53 -0.32 300.53 -0.32 293.78"/><polygon class="cls-6" points="-0.32 293.78 99.88 293.78 92.58 297.27 99.88 300.53 -0.32 300.53 -0.32 293.78"/><polygon class="cls-7" points="-0.32 293.78 66.46 293.78 59.16 297.27 66.46 300.53 -0.32 300.53 -0.32 293.78"/><polygon class="cls-8" points="-0.32 293.78 33.44 293.78 26.15 297.27 33.44 300.53 -0.32 300.53 -0.32 293.78"/></svg>