<svg id="OBJECTS" xmlns="http://www.w3.org/2000/svg" viewBox="0 0 299.99 299.99"><defs><style>.cls-1{fill:#ecfff0;}.cls-2{fill:#030;}.cls-3{fill:#fff;}.cls-4{fill:none;stroke:#fff;stroke-miterlimit:10;stroke-width:7.04px;}.cls-5{fill:#e2ffd9;}.cls-6{fill:#b0ffb8;}.cls-7{fill:#4dff5c;}.cls-8{fill:#32bb00;}.cls-9{fill:#325a00;}</style></defs><title>1</title><circle class="cls-1" cx="150.93" cy="148.28" r="90"/><path class="cls-2" d="M186.78,126.62a7.73,7.73,0,0,1,5.47,2.13,6.8,6.8,0,0,1,2.28,5.16v38.88a6.8,6.8,0,0,1-2.28,5.16,7.73,7.73,0,0,1-5.47,2.13H126.49a9.6,9.6,0,0,1-9.72-9.72v-48.6a9.6,9.6,0,0,1,9.72-9.72h55.89a7.27,7.27,0,0,1,7.29,7.29,2.37,2.37,0,0,1-.69,1.75,2.34,2.34,0,0,1-1.74.68H128.92a2.34,2.34,0,0,0-2.43,2.43,2.33,2.33,0,0,0,2.43,2.43ZM180,158.21a4.92,4.92,0,1,0-3.42-1.44A4.67,4.67,0,0,0,180,158.21Z"/><path class="cls-3" d="M157.55,156h-6.09v2.12h10.65a.77.77,0,0,1,.56.23.74.74,0,0,1,.24.56v2.65a.74.74,0,0,1-.24.56.73.73,0,0,1-.56.23H151.46v3.45a.79.79,0,0,1-.23.56.81.81,0,0,1-.57.23h-3.9a.77.77,0,0,1-.56-.23.76.76,0,0,1-.24-.56v-3.45h-3.44a.73.73,0,0,1-.56-.23.77.77,0,0,1-.23-.56v-2.65a.79.79,0,0,1,.79-.79H146V156h-3.44a.77.77,0,0,1-.56-.23.79.79,0,0,1-.23-.56v-3a.77.77,0,0,1,.23-.56.74.74,0,0,1,.56-.24H146v-13.7a.76.76,0,0,1,.24-.56.77.77,0,0,1,.56-.23h10.79a9.49,9.49,0,0,1,6.91,2.61,9.14,9.14,0,0,1,2.68,6.85,9.18,9.18,0,0,1-9.59,9.6Zm-6.09-14.49v9.92h5.09a5,5,0,0,0,3.71-1.35,5,5,0,0,0,1.32-3.64,4.87,4.87,0,0,0-1.32-3.61,4.93,4.93,0,0,0-3.64-1.32Z"/><rect class="cls-4" x="-879.17" y="-199.08" width="2757.47" height="719.42"/><polygon class="cls-5" points="276.8 300.53 136.75 300.53 136.36 297.04 136.75 293.78 276.8 293.78 276.8 300.53"/><polygon class="cls-6" points="300.93 300.53 167.5 300.53 174.8 297.04 167.5 293.78 300.93 293.78 300.93 300.53"/><polygon class="cls-7" points="300.93 300.53 200.72 300.53 208.02 297.04 200.72 293.78 300.93 293.78 300.93 300.53"/><polygon class="cls-8" points="300.93 300.53 234.15 300.53 241.44 297.04 234.15 293.78 300.93 293.78 300.93 300.53"/><polygon class="cls-9" points="300.93 300.53 267.16 300.53 274.46 297.04 267.16 293.78 300.93 293.78 300.93 300.53"/><polygon class="cls-5" points="23.8 293.78 163.86 293.78 164.24 297.27 163.86 300.53 23.8 300.53 23.8 293.78"/><polygon class="cls-6" points="-0.32 293.78 133.1 293.78 125.81 297.27 133.1 300.53 -0.32 300.53 -0.32 293.78"/><polygon class="cls-7" points="-0.32 293.78 99.88 293.78 92.58 297.27 99.88 300.53 -0.32 300.53 -0.32 293.78"/><polygon class="cls-8" points="-0.32 293.78 66.46 293.78 59.16 297.27 66.46 300.53 -0.32 300.53 -0.32 293.78"/><polygon class="cls-9" points="-0.32 293.78 33.44 293.78 26.15 297.27 33.44 300.53 -0.32 300.53 -0.32 293.78"/></svg>