<svg id="OBJECTS" xmlns="http://www.w3.org/2000/svg" viewBox="0 0 299.99 299.99"><defs><style>.cls-1{fill:#ecfff0;}.cls-2{fill:#030;}.cls-3{fill:none;stroke:#fff;stroke-miterlimit:10;stroke-width:7.04px;}.cls-4{fill:#e2ffd9;}.cls-5{fill:#b0ffb8;}.cls-6{fill:#4dff5c;}.cls-7{fill:#32bb00;}.cls-8{fill:#325a00;}</style></defs><title>1</title><circle class="cls-1" cx="150.93" cy="148.28" r="90"/><path class="cls-2" d="M176.2,172.5a1.86,1.86,0,0,1-.51,1.17,34.76,34.76,0,0,1-23.46,9A33.8,33.8,0,0,1,134.75,178,35.62,35.62,0,0,1,122,165.22a33.45,33.45,0,0,1-4.74-17.34,34.41,34.41,0,0,1,4.44-17.19,35.29,35.29,0,0,1,28.63-17.92,2,2,0,0,1,1.31.51,1.61,1.61,0,0,1,.58,1.24v33.22l23.46,23.45A1.57,1.57,0,0,1,176.2,172.5Zm-17-29.42h33.21a1.59,1.59,0,0,0,1.24-.59,1.91,1.91,0,0,0,.51-1.31A34,34,0,0,0,189.24,125a35.19,35.19,0,0,0-12-11.94,34,34,0,0,0-16.17-5,1.93,1.93,0,0,0-1.31.51,1.59,1.59,0,0,0-.58,1.24Zm39.84,7.57a2,2,0,0,1,.51,1.31A34.79,34.79,0,0,1,197,163.33a34.21,34.21,0,0,1-6.34,10,2.11,2.11,0,0,1-1.31.65,1.57,1.57,0,0,1-1.31-.51l-23.45-23.45h33.21A1.58,1.58,0,0,1,199.07,150.65Z"/><rect class="cls-3" x="-1203.1" y="-199.08" width="2757.47" height="719.42"/><polygon class="cls-4" points="276.8 300.53 136.75 300.53 136.36 297.04 136.75 293.78 276.8 293.78 276.8 300.53"/><polygon class="cls-5" points="300.93 300.53 167.5 300.53 174.8 297.04 167.5 293.78 300.93 293.78 300.93 300.53"/><polygon class="cls-6" points="300.93 300.53 200.72 300.53 208.02 297.04 200.72 293.78 300.93 293.78 300.93 300.53"/><polygon class="cls-7" points="300.93 300.53 234.15 300.53 241.44 297.04 234.15 293.78 300.93 293.78 300.93 300.53"/><polygon class="cls-8" points="300.93 300.53 267.16 300.53 274.46 297.04 267.16 293.78 300.93 293.78 300.93 300.53"/><polygon class="cls-4" points="23.8 293.78 163.86 293.78 164.24 297.27 163.86 300.53 23.8 300.53 23.8 293.78"/><polygon class="cls-5" points="-0.32 293.78 133.1 293.78 125.81 297.27 133.1 300.53 -0.32 300.53 -0.32 293.78"/><polygon class="cls-6" points="-0.32 293.78 99.88 293.78 92.58 297.27 99.88 300.53 -0.32 300.53 -0.32 293.78"/><polygon class="cls-7" points="-0.32 293.78 66.46 293.78 59.16 297.27 66.46 300.53 -0.32 300.53 -0.32 293.78"/><polygon class="cls-8" points="-0.32 293.78 33.44 293.78 26.15 297.27 33.44 300.53 -0.32 300.53 -0.32 293.78"/></svg>