<svg id="OBJECTS" xmlns="http://www.w3.org/2000/svg" viewBox="0 0 299.99 299.99"><defs><style>.cls-1{fill:#ecfff0;}.cls-2{fill:#030;}.cls-3{fill:none;stroke:#fff;stroke-miterlimit:10;stroke-width:7.04px;}.cls-4{fill:#e2ffd9;}.cls-5{fill:#b0ffb8;}.cls-6{fill:#4dff5c;}.cls-7{fill:#32bb00;}.cls-8{fill:#325a00;}</style></defs><title>1</title><circle class="cls-1" cx="150.93" cy="148.28" r="90"/><path class="cls-2" d="M168,152.84a18.17,18.17,0,0,1,9.32,2.81,19.59,19.59,0,0,1,6.73,7,18.71,18.71,0,0,1,2.45,9.4v6.07a6.91,6.91,0,0,1-6.94,6.94H128.64a6.91,6.91,0,0,1-6.94-6.94v-6.07a18.72,18.72,0,0,1,2.46-9.4,19.65,19.65,0,0,1,6.72-7,18.17,18.17,0,0,1,9.33-2.81l6.94,27.61,4.62-19.66-4.62-8.1H161l-4.63,8.1L161,180.45Zm-13.88-4.78a18.42,18.42,0,0,1-9.33-2.45,18,18,0,0,1-6.72-6.73,18.9,18.9,0,0,1,0-18.65,18.06,18.06,0,0,1,6.72-6.72,18.9,18.9,0,0,1,18.65,0,18,18,0,0,1,6.73,6.72,19,19,0,0,1,0,18.65,18,18,0,0,1-6.73,6.73A18.41,18.41,0,0,1,154.09,148.06Z"/><rect class="cls-3" x="-1527.13" y="-199.08" width="2757.47" height="719.42"/><polygon class="cls-4" points="276.8 300.53 136.75 300.53 136.36 297.04 136.75 293.78 276.8 293.78 276.8 300.53"/><polygon class="cls-5" points="300.93 300.53 167.5 300.53 174.8 297.04 167.5 293.78 300.93 293.78 300.93 300.53"/><polygon class="cls-6" points="300.93 300.53 200.72 300.53 208.02 297.04 200.72 293.78 300.93 293.78 300.93 300.53"/><polygon class="cls-7" points="300.93 300.53 234.15 300.53 241.44 297.04 234.15 293.78 300.93 293.78 300.93 300.53"/><polygon class="cls-8" points="300.93 300.53 267.16 300.53 274.46 297.04 267.16 293.78 300.93 293.78 300.93 300.53"/><polygon class="cls-4" points="23.8 293.78 163.86 293.78 164.24 297.27 163.86 300.53 23.8 300.53 23.8 293.78"/><polygon class="cls-5" points="-0.32 293.78 133.1 293.78 125.81 297.27 133.1 300.53 -0.32 300.53 -0.32 293.78"/><polygon class="cls-6" points="-0.32 293.78 99.88 293.78 92.58 297.27 99.88 300.53 -0.32 300.53 -0.32 293.78"/><polygon class="cls-7" points="-0.32 293.78 66.46 293.78 59.16 297.27 66.46 300.53 -0.32 300.53 -0.32 293.78"/><polygon class="cls-8" points="-0.32 293.78 33.44 293.78 26.15 297.27 33.44 300.53 -0.32 300.53 -0.32 293.78"/></svg>