<?xml version="1.0" encoding="utf-8"?>
<!-- Generator: Adobe Illustrator 22.1.0, SVG Export Plug-In . SVG Version: 6.00 Build 0)  -->
<svg version="1.1" id="OBJECTS" xmlns="http://www.w3.org/2000/svg" xmlns:xlink="http://www.w3.org/1999/xlink" x="0px" y="0px"
	 viewBox="0 0 300 300" style="enable-background:new 0 0 300 300;" xml:space="preserve">
<style type="text/css">
	.st0{fill:#004073;}
</style>
<title>1</title>
<path class="st0" d="M236.9,192.3c0.7,0.7,1.2,1.7,1.1,2.8v13.1c0.1,2.2-1.6,3.9-3.8,4c-0.1,0-0.1,0-0.2,0H74.7
	c-2.2,0.1-3.9-1.6-4-3.8c0-0.1,0-0.1,0-0.2V90.6c-0.1-2.2,1.6-3.9,3.8-4c0.1,0,0.1,0,0.2,0h13.1c2.2-0.1,3.9,1.6,4,3.8
	c0,0.1,0,0.1,0,0.2v100.6h142.4C235.2,191.2,236.1,191.6,236.9,192.3z M183.1,97.1c-4.3,0-7.8,3.5-7.8,7.9c0,2.1,0.9,4.2,2.4,5.6
	l10.8,10.8l-23.5,23.9l-18.3-18.3c-0.7-0.7-1.7-1-2.6-1c-1.1,0-2.1,0.3-2.9,1l-38.9,38.6c-0.7,0.7-1,1.6-1,2.6c0,1.1,0.3,2.1,1,2.9
	l9.5,9.5c0.6,0.8,1.6,1.3,2.6,1.3c1.1,0,2.2-0.5,2.9-1.3l26.8-26.8l18,18.3c0.8,0.6,1.9,1,2.9,1c1,0.1,1.9-0.3,2.6-1l35.9-35.6
	l10.8,10.8c3.1,3,8,3,11.1,0c1.5-1.5,2.3-3.5,2.3-5.6v-36.7c0-4.3-3.4-7.8-7.7-7.9c0,0-0.1,0-0.1,0H183.1z"/>
</svg>
