<?xml version="1.0" encoding="utf-8"?>
<!-- Generator: Adobe Illustrator 22.1.0, SVG Export Plug-In . SVG Version: 6.00 Build 0)  -->
<svg version="1.1" id="OBJECTS" xmlns="http://www.w3.org/2000/svg" xmlns:xlink="http://www.w3.org/1999/xlink" x="0px" y="0px"
	 viewBox="0 0 300 300" style="enable-background:new 0 0 300 300;" xml:space="preserve">
<style type="text/css">
	.st0{fill:#004073;}
</style>
<title>1</title>
<path class="st0" d="M222,219.1c0,9.5-7.6,17.3-17.2,17.3c0,0-0.1,0-0.1,0H101c-9.5,0-17.2-7.6-17.3-17.1c0-0.1,0-0.1,0-0.2V92.3
	C83.7,82.8,91.3,75,100.8,75c0.1,0,0.1,0,0.2,0h28.8c0.4-12.7,11.1-22.7,23.8-22.3c12.2,0.4,21.9,10.2,22.3,22.3h28.7
	c9.5,0,17.2,7.7,17.3,17.2c0,0,0,0.1,0,0.1L222,219.1z M187.4,100.2c0-0.6-0.3-1.1-0.7-1.4c-0.4-0.4-0.9-0.7-1.4-0.7h-64.9
	c-0.6,0-1.1,0.3-1.4,0.7c-0.4,0.4-0.7,0.9-0.7,1.4v7.2c0.2,1.1,1,2,2.2,2.2h64.9c1.1-0.2,2-1,2.2-2.2L187.4,100.2z M146.8,68.9
	c-3.5,3.3-3.6,8.8-0.3,12.3c3.3,3.5,8.8,3.6,12.3,0.3c3.5-3.3,3.6-8.8,0.3-12.3c-1.6-1.7-3.9-2.7-6.2-2.7
	C150.6,66.4,148.4,67.3,146.8,68.9L146.8,68.9z"/>
</svg>
