<?xml version="1.0" encoding="utf-8"?>
<!-- Generator: Adobe Illustrator 22.1.0, SVG Export Plug-In . SVG Version: 6.00 Build 0)  -->
<svg version="1.1" id="OBJECTS" xmlns="http://www.w3.org/2000/svg" xmlns:xlink="http://www.w3.org/1999/xlink" x="0px" y="0px"
	 viewBox="0 0 300 300" style="enable-background:new 0 0 300 300;" xml:space="preserve">
<style type="text/css">
	.st0{fill:#004073;}
	.st1{fill:#FFFFFF;}
	.st2{fill:none;stroke:#FFFFFF;stroke-width:7.04;stroke-miterlimit:10;}
</style>
<title>1</title>
<path class="st0" d="M220,105.9c4.2-0.1,8.3,1.5,11.3,4.4c3,2.7,4.8,6.6,4.7,10.7v80.3c0,4.1-1.7,8-4.7,10.7
	c-3,2.9-7.1,4.5-11.3,4.4H95.4c-11,0.1-19.9-8.6-20.1-19.6c0-0.2,0-0.3,0-0.5V95.8c-0.1-11,8.6-19.9,19.6-20.1c0.2,0,0.3,0,0.5,0
	h115.5c8.3,0,15,6.7,15.1,15c0,0,0,0.1,0,0.1c0,1.4-0.5,2.7-1.4,3.6c-1,0.9-2.3,1.5-3.6,1.4H100.4c-2.7-0.1-4.9,2-5,4.6
	c0,0.1,0,0.3,0,0.4c-0.1,2.7,1.9,4.9,4.6,5c0.1,0,0.3,0,0.4,0L220,105.9z M206,171.2c5.6,0.1,10.2-4.4,10.3-10s-4.4-10.2-10-10.3
	c-5.6-0.1-10.2,4.4-10.3,10c0,2.7,1,5.4,3,7.3C200.7,170.1,203.3,171.2,206,171.2z"/>
<path class="st1" d="M159.6,166.6H147v4.4h22c0.4,0,0.9,0.2,1.2,0.5c0.3,0.3,0.5,0.7,0.5,1.2v5.5c0,0.4-0.2,0.9-0.5,1.2
	c-0.3,0.3-0.7,0.5-1.2,0.5h-22v7.1c0,0.4-0.2,0.8-0.5,1.2c-0.3,0.3-0.7,0.5-1.2,0.5h-8.1c-0.4,0-0.9-0.2-1.2-0.5
	c-0.3-0.3-0.5-0.7-0.5-1.2v-7.1h-7.1c-0.4,0-0.9-0.2-1.2-0.5c-0.3-0.3-0.5-0.7-0.5-1.2v-5.5c0-0.9,0.7-1.6,1.6-1.6h7.2v-4.4h-7.1
	c-0.4,0-0.9-0.2-1.2-0.5c-0.3-0.3-0.5-0.7-0.5-1.2v-6.2c0-0.4,0.2-0.9,0.5-1.2c0.3-0.3,0.7-0.5,1.2-0.5h7.1v-28.3
	c0-0.4,0.2-0.9,0.5-1.2c0.3-0.3,0.7-0.5,1.2-0.5h22.3c5.3-0.2,10.4,1.7,14.3,5.4c3.7,3.7,5.8,8.9,5.5,14.2
	c0.5,10.5-7.6,19.3-18.1,19.8C160.8,166.6,160.2,166.6,159.6,166.6L159.6,166.6z M147,136.7v20.5h10.5c2.8,0.2,5.6-0.8,7.7-2.8
	c1.9-2,2.9-4.8,2.7-7.5c0.2-2.8-0.8-5.5-2.7-7.5c-2-1.9-4.7-2.9-7.5-2.7L147,136.7z"/>
<rect x="-879.2" y="-199.1" class="st2" width="2757.5" height="719.4"/>
</svg>
