<?xml version="1.0" encoding="utf-8"?>
<!-- Generator: Adobe Illustrator 22.1.0, SVG Export Plug-In . SVG Version: 6.00 Build 0)  -->
<svg version="1.1" id="OBJECTS" xmlns="http://www.w3.org/2000/svg" xmlns:xlink="http://www.w3.org/1999/xlink" x="0px" y="0px"
	 viewBox="0 0 300 300" style="enable-background:new 0 0 300 300;" xml:space="preserve">
<style type="text/css">
	.st0{fill:#004073;}
	.st1{fill:none;stroke:#FFFFFF;stroke-width:7.04;stroke-miterlimit:10;}
</style>
<title>1</title>
<path class="st0" d="M198.5,206.4c-0.1,1-0.5,1.9-1.1,2.6c-14.5,13.1-33.3,20.3-52.8,20.3c-13.8,0.1-27.4-3.5-39.3-10.5
	c-11.9-7-21.8-16.9-28.7-28.8c-7-11.8-10.7-25.3-10.7-39c-0.1-13.5,3.3-26.9,10-38.7C89,88.8,113.3,73.6,140.2,72
	c1.1,0,2.1,0.4,2.9,1.1c0.8,0.7,1.3,1.7,1.3,2.8v74.8l52.8,52.8C198.1,204.2,198.6,205.3,198.5,206.4z M160.2,140.2h74.7
	c1.1,0,2.1-0.5,2.8-1.3c0.7-0.8,1.2-1.9,1.1-2.9c-0.6-12.9-4.4-25.4-11.1-36.4c-6.7-11-16-20.2-27-26.9c-11-6.8-23.5-10.6-36.4-11.3
	c-1.1,0-2.1,0.4-2.9,1.1c-0.8,0.7-1.3,1.7-1.3,2.8L160.2,140.2z M249.9,157.3c0.7,0.8,1.1,1.9,1.1,2.9c-0.5,8.8-2.4,17.4-5.7,25.6
	c-3.4,8.3-8.2,15.9-14.3,22.5c-0.8,0.8-1.8,1.3-2.9,1.5c-1.1,0.1-2.2-0.3-2.9-1.1l-52.8-52.8h74.7
	C248.2,155.8,249.2,156.4,249.9,157.3L249.9,157.3z"/>
<rect x="-1203.1" y="-199.1" class="st1" width="2757.5" height="719.4"/>
</svg>
