<?xml version="1.0" encoding="utf-8"?>
<!-- Generator: Adobe Illustrator 22.1.0, SVG Export Plug-In . SVG Version: 6.00 Build 0)  -->
<svg version="1.1" id="OBJECTS" xmlns="http://www.w3.org/2000/svg" xmlns:xlink="http://www.w3.org/1999/xlink" x="0px" y="0px"
	 viewBox="0 0 300 300" style="enable-background:new 0 0 300 300;" xml:space="preserve">
<style type="text/css">
	.st0{fill:#004073;}
	.st1{fill:none;stroke:#FFFFFF;stroke-width:7.04;stroke-miterlimit:10;}
</style>
<title>1</title>
<path class="st0" d="M194.8,162.1c9.7,0.2,19.1,3.1,27.3,8.2c8.2,5.1,15,12.1,19.7,20.5c4.8,8.4,7.2,17.9,7.2,27.5v17.8
	c0,11.2-9,20.3-20.2,20.3c-0.1,0-0.1,0-0.2,0H79.5c-11.2,0-20.3-9-20.3-20.2c0-0.1,0-0.1,0-0.2v-17.8c-0.1-9.7,2.4-19.1,7.2-27.5
	c4.7-8.4,11.5-15.4,19.7-20.5c8.2-5.2,17.6-8,27.3-8.2l20.3,80.9l13.5-57.6l-13.5-23.7h40.6l-13.6,23.7l13.6,57.6L194.8,162.1z
	 M154.2,148.1c-9.6,0.1-19-2.4-27.3-7.2c-8.2-4.7-15-11.5-19.7-19.7c-9.6-16.9-9.6-37.7,0-54.6c4.7-8.2,11.5-15,19.7-19.7
	c16.9-9.6,37.7-9.6,54.6,0c8.2,4.7,15,11.5,19.7,19.7c9.6,17,9.6,37.7,0,54.6c-4.7,8.2-11.5,15-19.7,19.7
	C173.1,145.7,163.7,148.2,154.2,148.1L154.2,148.1z"/>
<rect x="-1527.1" y="-199.1" class="st1" width="2757.5" height="719.4"/>
</svg>
