<svg xmlns="http://www.w3.org/2000/svg" xmlns:xlink="http://www.w3.org/1999/xlink" viewBox="0 0 299.99 299.99"><defs><style>.cls-1{isolation:isolate;}.cls-2,.cls-3{stroke-linecap:round;stroke-linejoin:round;stroke-width:1.16px;}.cls-2{fill:url(#linear-gradient);stroke:url(#linear-gradient-2);}.cls-3{fill:url(#linear-gradient-3);stroke:url(#linear-gradient-4);}.cls-4{mix-blend-mode:multiply;}.cls-5{fill:#c6227f;}.cls-6{fill:#ffe9ff;}.cls-7{fill:#fff;}</style><linearGradient id="linear-gradient" y1="264.08" x2="187.47" y2="264.08" gradientUnits="userSpaceOnUse"><stop offset="0" stop-color="#b2d23d"/><stop offset="1" stop-color="#8eae19"/></linearGradient><linearGradient id="linear-gradient-2" x1="-0.58" y1="264.08" x2="188.05" y2="264.08" gradientUnits="userSpaceOnUse"><stop offset="0" stop-color="#8eae19"/><stop offset="1" stop-color="#b2d23d"/></linearGradient><linearGradient id="linear-gradient-3" x1="165.25" y1="44.45" x2="277.72" y2="44.45" xlink:href="#linear-gradient"/><linearGradient id="linear-gradient-4" x1="164.67" y1="44.45" x2="278.3" y2="44.45" xlink:href="#linear-gradient-2"/></defs><title>1</title><g class="cls-1"><g id="OBJECTS"><polygon class="cls-2" points="187.47 245.18 171.84 282.98 0 245.18 187.47 245.18"/><polygon class="cls-3" points="165.25 60.43 178.55 28.46 277.72 44.38 165.25 60.43"/><g class="cls-4"><polygon class="cls-5" points="187.47 245.18 171.84 282.98 0 245.18 187.47 245.18"/><polygon class="cls-5" points="165.25 60.43 178.55 28.46 277.72 44.38 165.25 60.43"/></g><polygon class="cls-5" points="299.36 247.36 0 245.18 9.44 74.19 277.72 44.38 299.36 247.36"/><polygon class="cls-6" points="277.72 232.01 13.12 229.88 21.46 62.67 258.59 33.53 277.72 232.01"/><polygon class="cls-5" points="178.55 28.46 248.36 16.02 253.47 40.49 178.55 28.46"/><path class="cls-7" d="M235.61,183.63a4,4,0,0,1,1.21,2.93v13.75a4,4,0,0,1-1.21,2.93,4,4,0,0,1-2.92,1.2H64.85a4.11,4.11,0,0,1-4.13-4.13V76.5a4.13,4.13,0,0,1,4.13-4.13H78.61a4.11,4.11,0,0,1,4.12,4.13V182.43h150A4,4,0,0,1,235.61,183.63ZM179,83.38a8.27,8.27,0,0,0-5.85,14.1l11.35,11.35-24.76,25.11-19.26-19.26a3.73,3.73,0,0,0-2.76-1,5,5,0,0,0-3.09,1L93.74,155.26a3.72,3.72,0,0,0-1,2.75,5,5,0,0,0,1,3.1l10,10a3.28,3.28,0,0,0,2.76,1.38,4.26,4.26,0,0,0,3.09-1.38l28.2-28.2,18.92,19.26a5,5,0,0,0,3.1,1,3.72,3.72,0,0,0,2.75-1l37.83-37.49L211.71,136a8.26,8.26,0,0,0,14.1-5.85V91.63a8.23,8.23,0,0,0-8.25-8.25Z"/></g></g></svg>