<svg xmlns="http://www.w3.org/2000/svg" xmlns:xlink="http://www.w3.org/1999/xlink" viewBox="0 0 299.99 299.99"><defs><style>.cls-1{isolation:isolate;}.cls-2,.cls-3{stroke-linecap:round;stroke-linejoin:round;stroke-width:1.16px;}.cls-2{fill:url(#linear-gradient);stroke:url(#linear-gradient-2);}.cls-3{fill:url(#linear-gradient-3);stroke:url(#linear-gradient-4);}.cls-4{mix-blend-mode:multiply;}.cls-5{fill:#8cc63f;}.cls-6{fill:#dfffdb;}.cls-7{fill:#fff;}</style><linearGradient id="linear-gradient" y1="264.08" x2="187.47" y2="264.08" gradientUnits="userSpaceOnUse"><stop offset="0" stop-color="#b2d23d"/><stop offset="1" stop-color="#8eae19"/></linearGradient><linearGradient id="linear-gradient-2" x1="-0.58" y1="264.08" x2="188.05" y2="264.08" gradientUnits="userSpaceOnUse"><stop offset="0" stop-color="#8eae19"/><stop offset="1" stop-color="#b2d23d"/></linearGradient><linearGradient id="linear-gradient-3" x1="165.25" y1="44.45" x2="277.72" y2="44.45" xlink:href="#linear-gradient"/><linearGradient id="linear-gradient-4" x1="164.67" y1="44.45" x2="278.3" y2="44.45" xlink:href="#linear-gradient-2"/></defs><title>1</title><g class="cls-1"><g id="OBJECTS"><polygon class="cls-2" points="187.47 245.18 171.84 282.98 0 245.18 187.47 245.18"/><polygon class="cls-3" points="165.25 60.43 178.55 28.46 277.72 44.38 165.25 60.43"/><g class="cls-4"><polygon class="cls-5" points="187.47 245.18 171.84 282.98 0 245.18 187.47 245.18"/><polygon class="cls-5" points="165.25 60.43 178.55 28.46 277.72 44.38 165.25 60.43"/></g><polygon class="cls-5" points="299.36 247.36 0 245.18 9.44 74.19 277.72 44.38 299.36 247.36"/><polygon class="cls-6" points="277.72 232.01 13.12 229.88 21.46 62.67 258.59 33.53 277.72 232.01"/><polygon class="cls-5" points="178.55 28.46 248.36 16.02 253.47 40.49 178.55 28.46"/><path class="cls-7" d="M208.24,201.5a14.51,14.51,0,0,1-14.56,14.56H106.32A14.51,14.51,0,0,1,91.75,201.5V94.73a14.49,14.49,0,0,1,14.57-14.56h24.26a19.3,19.3,0,0,1,33.06-13.65,18.63,18.63,0,0,1,5.77,13.65h24.27a14.49,14.49,0,0,1,14.56,14.56ZM179.12,101.4a1.76,1.76,0,0,0-.61-1.21,1.74,1.74,0,0,0-1.21-.61H122.7a2.14,2.14,0,0,0-1.82,1.82v6.07a2.14,2.14,0,0,0,1.82,1.82h54.6a1.74,1.74,0,0,0,1.21-.61,1.76,1.76,0,0,0,.61-1.21ZM144.84,75A7.33,7.33,0,1,0,150,72.89,7,7,0,0,0,144.84,75Z"/></g></g></svg>