<svg xmlns="http://www.w3.org/2000/svg" xmlns:xlink="http://www.w3.org/1999/xlink" viewBox="0 0 299.99 299.99"><defs><style>.cls-1,.cls-2{stroke-linecap:round;stroke-linejoin:round;stroke-width:1.16px;}.cls-1{fill:url(#linear-gradient);stroke:url(#linear-gradient-2);}.cls-2{fill:url(#linear-gradient-3);stroke:url(#linear-gradient-4);}.cls-3{fill:#0071bc;}.cls-4{fill:#2aabed;}.cls-5{fill:#bfffff;}.cls-6{fill:#fff;}.cls-7{fill:#e9ffff;}</style><linearGradient id="linear-gradient" y1="264.08" x2="187.47" y2="264.08" gradientUnits="userSpaceOnUse"><stop offset="0" stop-color="#b2d23d"/><stop offset="1" stop-color="#8eae19"/></linearGradient><linearGradient id="linear-gradient-2" x1="-0.58" y1="264.08" x2="188.05" y2="264.08" gradientUnits="userSpaceOnUse"><stop offset="0" stop-color="#8eae19"/><stop offset="1" stop-color="#b2d23d"/></linearGradient><linearGradient id="linear-gradient-3" x1="165.25" y1="44.45" x2="277.72" y2="44.45" xlink:href="#linear-gradient"/><linearGradient id="linear-gradient-4" x1="164.67" y1="44.45" x2="278.3" y2="44.45" xlink:href="#linear-gradient-2"/></defs><title>1</title><g id="OBJECTS"><polygon class="cls-1" points="187.47 245.18 171.84 282.98 0 245.18 187.47 245.18"/><polygon class="cls-2" points="165.25 60.43 178.55 28.46 277.72 44.38 165.25 60.43"/><polygon class="cls-3" points="187.47 245.18 171.84 282.98 0 245.18 187.47 245.18"/><polygon class="cls-3" points="165.25 60.43 178.55 28.46 277.72 44.38 165.25 60.43"/><polygon class="cls-4" points="299.36 247.36 0 245.18 9.44 74.19 277.72 44.38 299.36 247.36"/><polygon class="cls-5" points="277.72 232.01 13.12 229.88 21.46 62.67 258.59 33.53 277.72 232.01"/><polygon class="cls-4" points="178.55 28.46 248.36 16.02 253.47 40.49 178.55 28.46"/><path class="cls-6" d="M218.82,102.7A17.15,17.15,0,0,1,231,107.42,15.08,15.08,0,0,1,236,118.89v86.34A15.08,15.08,0,0,1,231,216.7a17.15,17.15,0,0,1-12.14,4.72H84.92a21.31,21.31,0,0,1-21.58-21.59V91.9A21.31,21.31,0,0,1,84.92,70.32H209a16.12,16.12,0,0,1,16.19,16.19,5.19,5.19,0,0,1-5.4,5.39H90.32a5.4,5.4,0,1,0,0,10.8Zm-15.18,70.15a10.95,10.95,0,1,0-7.58-3.2A10.37,10.37,0,0,0,203.64,172.85Z"/><path class="cls-7" d="M153.89,168H140.37v4.71H164a1.71,1.71,0,0,1,1.25.51,1.68,1.68,0,0,1,.52,1.25v5.88a1.76,1.76,0,0,1-1.77,1.76H140.37v7.65a1.74,1.74,0,0,1-1.76,1.76h-8.68a1.74,1.74,0,0,1-1.76-1.76v-7.65h-7.64a1.76,1.76,0,0,1-1.77-1.76v-5.88a1.68,1.68,0,0,1,.52-1.25,1.71,1.71,0,0,1,1.25-.51h7.64V168h-7.64a1.76,1.76,0,0,1-1.77-1.76v-6.62a1.76,1.76,0,0,1,1.77-1.76h7.64V127.44a1.74,1.74,0,0,1,1.76-1.76h24q9.41,0,15.36,5.81t6,15.21q0,9.41-6,15.36T153.89,168Zm-13.52-32.19v22.05h11.32c3.53,0,6.27-1,8.23-3a11.1,11.1,0,0,0,2.94-8.09,10.16,10.16,0,0,0-11-11Z"/></g></svg>