<svg xmlns="http://www.w3.org/2000/svg" xmlns:xlink="http://www.w3.org/1999/xlink" viewBox="0 0 299.99 299.99"><defs><style>.cls-1,.cls-2{stroke-linecap:round;stroke-linejoin:round;stroke-width:1.16px;}.cls-1{fill:url(#linear-gradient);stroke:url(#linear-gradient-2);}.cls-2{fill:url(#linear-gradient-3);stroke:url(#linear-gradient-4);}.cls-3{fill:#01a7b3;}.cls-4{fill:#00dfbc;}.cls-5{fill:#ceffee;}.cls-6{fill:#fff;}</style><linearGradient id="linear-gradient" y1="264.08" x2="187.47" y2="264.08" gradientUnits="userSpaceOnUse"><stop offset="0" stop-color="#b2d23d"/><stop offset="1" stop-color="#8eae19"/></linearGradient><linearGradient id="linear-gradient-2" x1="-0.58" y1="264.08" x2="188.05" y2="264.08" gradientUnits="userSpaceOnUse"><stop offset="0" stop-color="#8eae19"/><stop offset="1" stop-color="#b2d23d"/></linearGradient><linearGradient id="linear-gradient-3" x1="165.25" y1="44.45" x2="277.72" y2="44.45" xlink:href="#linear-gradient"/><linearGradient id="linear-gradient-4" x1="164.67" y1="44.45" x2="278.3" y2="44.45" xlink:href="#linear-gradient-2"/></defs><title>1</title><g id="OBJECTS"><polygon class="cls-1" points="187.47 245.18 171.84 282.98 0 245.18 187.47 245.18"/><polygon class="cls-2" points="165.25 60.43 178.55 28.46 277.72 44.38 165.25 60.43"/><polygon class="cls-3" points="187.47 245.18 171.84 282.98 0 245.18 187.47 245.18"/><polygon class="cls-3" points="165.25 60.43 178.55 28.46 277.72 44.38 165.25 60.43"/><polygon class="cls-4" points="299.36 247.36 0 245.18 9.44 74.19 277.72 44.38 299.36 247.36"/><polygon class="cls-5" points="277.72 232.01 13.12 229.88 21.46 62.67 258.59 33.53 277.72 232.01"/><polygon class="cls-4" points="178.55 28.46 248.36 16.02 253.47 40.49 178.55 28.46"/><path class="cls-6" d="M179.9,186.39a3.28,3.28,0,0,1-.91,2.06,61.56,61.56,0,0,1-41.53,16,59.73,59.73,0,0,1-30.95-8.38,63.08,63.08,0,0,1-22.57-22.57,59.29,59.29,0,0,1-8.39-30.7,60.86,60.86,0,0,1,7.87-30.43,62.42,62.42,0,0,1,50.69-31.73,3.44,3.44,0,0,1,2.32.9,2.79,2.79,0,0,1,1,2.19v58.82L179,184.06A2.82,2.82,0,0,1,179.9,186.39Zm-30.06-52.11h58.82a2.79,2.79,0,0,0,2.19-1,3.44,3.44,0,0,0,.9-2.32A60.05,60.05,0,0,0,203,102.29a62.21,62.21,0,0,0-21.15-21.15,60.13,60.13,0,0,0-28.63-8.77,3.43,3.43,0,0,0-2.33.91,2.82,2.82,0,0,0-1,2.19Zm70.55,13.41a3.48,3.48,0,0,1,.91,2.33,61,61,0,0,1-4.52,20.11,60.15,60.15,0,0,1-11.22,17.8,3.79,3.79,0,0,1-2.32,1.17,2.79,2.79,0,0,1-2.32-.91l-41.53-41.53H218.2A2.79,2.79,0,0,1,220.39,147.69Z"/></g></svg>