<svg xmlns="http://www.w3.org/2000/svg" xmlns:xlink="http://www.w3.org/1999/xlink" viewBox="0 0 299.99 299.99"><defs><style>.cls-1,.cls-2{stroke-linecap:round;stroke-linejoin:round;stroke-width:1.16px;}.cls-1{fill:url(#linear-gradient);stroke:url(#linear-gradient-2);}.cls-2{fill:url(#linear-gradient-3);stroke:url(#linear-gradient-4);}.cls-3{fill:#ff730a;}.cls-4{fill:#ffbc84;}.cls-5{fill:#fff8d1;}.cls-6{fill:#fff;}</style><linearGradient id="linear-gradient" y1="264.08" x2="187.47" y2="264.08" gradientUnits="userSpaceOnUse"><stop offset="0" stop-color="#b2d23d"/><stop offset="1" stop-color="#8eae19"/></linearGradient><linearGradient id="linear-gradient-2" x1="-0.58" y1="264.08" x2="188.05" y2="264.08" gradientUnits="userSpaceOnUse"><stop offset="0" stop-color="#8eae19"/><stop offset="1" stop-color="#b2d23d"/></linearGradient><linearGradient id="linear-gradient-3" x1="165.25" y1="44.45" x2="277.72" y2="44.45" xlink:href="#linear-gradient"/><linearGradient id="linear-gradient-4" x1="164.67" y1="44.45" x2="278.3" y2="44.45" xlink:href="#linear-gradient-2"/></defs><title>1</title><g id="OBJECTS"><polygon class="cls-1" points="187.47 245.18 171.84 282.98 0 245.18 187.47 245.18"/><polygon class="cls-2" points="165.25 60.43 178.55 28.46 277.72 44.38 165.25 60.43"/><polygon class="cls-3" points="187.47 245.18 171.84 282.98 0 245.18 187.47 245.18"/><polygon class="cls-3" points="165.25 60.43 178.55 28.46 277.72 44.38 165.25 60.43"/><polygon class="cls-4" points="299.36 247.36 0 245.18 9.44 74.19 277.72 44.38 299.36 247.36"/><polygon class="cls-5" points="277.72 232.01 13.12 229.88 21.46 62.67 258.59 33.53 277.72 232.01"/><polygon class="cls-4" points="178.55 28.46 248.36 16.02 253.47 40.49 178.55 28.46"/><path class="cls-6" d="M176.53,151.46a36.73,36.73,0,0,1,18.79,5.68,39.34,39.34,0,0,1,13.54,14.13,37.74,37.74,0,0,1,4.95,18.93v12.24a13.91,13.91,0,0,1-14,14H97.29a13.93,13.93,0,0,1-14-14V190.2a37.74,37.74,0,0,1,5-18.93,39.34,39.34,0,0,1,13.54-14.13,36.73,36.73,0,0,1,18.79-5.68l14,55.64,9.32-39.62-9.32-16.31h28l-9.32,16.31,9.32,39.62Zm-28-9.61a36.89,36.89,0,0,1-18.79-5,36.31,36.31,0,0,1-13.55-13.54,38.14,38.14,0,0,1,0-37.58,36.41,36.41,0,0,1,13.55-13.55,38.14,38.14,0,0,1,37.58,0A36.41,36.41,0,0,1,180.9,85.77a38.14,38.14,0,0,1,0,37.58,36.31,36.31,0,0,1-13.55,13.54A36.89,36.89,0,0,1,148.56,141.85Z"/></g></svg>